{
classes = (
{
automatic = 1;
code = "A Aacute Abreve Acircumflex Adieresis Agrave Amacron Aogonek Aring Atilde AE B C Cacute Ccaron Ccedilla Cdotaccent D Eth Dcaron Dcroat E Eacute Ecaron Ecircumflex Edieresis Edotaccent Egrave Emacron Eogonek F G Gbreve Gcommaaccent Gdotaccent H Hbar I IJ Iacute Icircumflex Idieresis Idotaccent Igrave Imacron Iogonek J K Kcommaaccent L Lacute Lcaron Lcommaaccent Ldot Lslash M N Nacute Ncaron Ncommaaccent Eng Ntilde O Oacute Ocircumflex Odieresis Ograve Ohungarumlaut Omacron Oslash Otilde OE P Thorn Q R Racute Rcaron Rcommaaccent S Sacute Scaron Scedilla Scommaaccent T Tbar Tcaron Tcedilla Tcommaaccent U Uacute Ucircumflex Udieresis Ugrave Uhungarumlaut Umacron Uogonek Uring V W Wacute Wcircumflex Wdieresis Wgrave X Y Yacute Ycircumflex Ydieresis Ygrave Z Zacute Zcaron Zdotaccent";
name = Uppercase;
},
{
automatic = 1;
code = "iMatra-deva iMatra-deva.0 iMatra-deva.01 iMatra-deva.015 iMatra-deva.02 iMatra-deva.03 iMatra-deva.04 iMatra-deva.045 iMatra-deva.05 iMatra-deva.055 iMatra-deva.057 iMatra-deva.059 iMatra-deva.06 iMatra-deva.07 iMatra-deva.073 iMatra-deva.075 iMatra-deva.10 iMatra-deva.101 iMatra-deva.102 iMatra-deva.103 iMatra-deva.104 iMatra-deva.105 iMatra-deva.106 iMatra-deva.107 iMatra-deva.108 iMatra-deva.109 iMatra-deva.110 iMatra-deva.111 iMatra-deva.112 iMatra-deva.113 iMatra-deva.114 iMatra-deva.115 iMatra-deva.116 iMatra-deva.117 iMatra-deva.118 iMatra-deva.119 iMatra-deva.120 iMatra-deva.121";
name = DevaIMatras;
},
{
automatic = 1;

glyphs = (
{
glyphname = A;
lastChange = "2014-11-03 10:07:49 +0000";
layers = (
{
anchors = (
{
name = Accent;
position = "{344, 758}";
},
{
name = ogonek;
position = "{634, 0}";
}
);
layerId = "BE6E37CB-569E-4B40-A59A-BD6EE6EB60D7";
name = Light;
paths = (
{
closed = 1;
nodes = (
"25 0 LINE",
"85 0 LINE",
"352 695 LINE",
"336 695 LINE",
"604 0 LINE",
"664 0 LINE",
"368 767 LINE",
"320 767 LINE"
);
},
{
closed = 1;
nodes = (
"157 254 LINE",
"533 254 LINE",
"533 308 LINE",
"157 308 LINE"
);
}
);
width = 689;
}
);
unicode = 0041;
},
{
glyphname = AE;
lastChange = "2014-11-06 12:57:15 +0000";
layers = (
{
layerId = "BE6E37CB-569E-4B40-A59A-BD6EE6EB60D7";
name = Light;
paths = (
{
closed = 1;
nodes = (
"35 0 LINE",
"97 0 LINE",
"555 704 LINE",
"557 704 LINE",
"580 758 LINE",
"531 758 LINE"
);
},
{
closed = 1;
nodes = (
"229 254 LINE",
"585 254 LINE",
"585 308 LINE",
"269 308 LINE"
);
},
{
closed = 1;
nodes = (
"556 758 LINE",
"556 0 LINE",
"612 0 LINE",
"612 758 LINE"
);
},
{
closed = 1;
nodes = (
"597 0 LINE",
"1000 0 LINE",
"1000 54 LINE",
"597 54 LINE"
);
},
{
closed = 1;
nodes = (
"597 354 LINE",
"945 354 LINE",
"945 408 LINE",
"597 408 LINE"
);
},
{
closed = 1;
nodes = (
"597 704 LINE",
"995 704 LINE",
"995 758 LINE",
"597 758 LINE"
);
}
);
width = 1060;
}
);
unicode = 00C6;
},
{
glyphname = B;
lastChange = "2014-11-06 12:57:19 +0000";
layers = (
{
anchors = (
{
name = Accent;
position = "{344, 758}";
}
);
layerId = "BE6E37CB-569E-4B40-A59A-BD6EE6EB60D7";
name = Light;
paths = (
{
closed = 1;
nodes = (
"543 408 OFFCURVE",
"582 469 OFFCURVE",
"582 555 CURVE SMOOTH",
"582 689 OFFCURVE",
"528 758 OFFCURVE",
"355 758 CURVE SMOOTH",
"120 758 LINE",
"120 0 LINE",
"355 0 LINE SMOOTH",
"546 0 OFFCURVE",
"612 71 OFFCURVE",
"612 202 CURVE SMOOTH",
"612 301 OFFCURVE",
"561 364 OFFCURVE",
"456 391 CURVE",
"457 377 LINE"
);
},
{
closed = 1;
nodes = (
"355 706 LINE SMOOTH",
"486 706 OFFCURVE",
"525 662 OFFCURVE",
"524 555 CURVE SMOOTH",
"523 454 OFFCURVE",
"466 406 OFFCURVE",
"355 406 CURVE SMOOTH",
"176 406 LINE",
"176 706 LINE"
);
},
{
closed = 1;
nodes = (
"553 100 OFFCURVE",
"503 52 OFFCURVE",
"355 52 CURVE SMOOTH",
"176 51.9999 LINE",
"176 354 LINE",
"355 354 LINE SMOOTH",
"484 354 OFFCURVE",
"555 310 OFFCURVE",
"554 202 CURVE SMOOTH"
);
}
);
width = 690;
}
);
unicode = 0042;
},
{
glyphname = C;
lastChange = "2014-10-25 11:43:59 +0000";
layers = (
{
anchors = (
{
name = Accent;
position = "{384, 758}";
},
{
name = bottomaccent;
position = "{424, 0}";
}
);
layerId = "BE6E37CB-569E-4B40-A59A-BD6EE6EB60D7";
name = Light;
paths = (
{
closed = 1;
nodes = (
"177 772 OFFCURVE",
"67 595 OFFCURVE",
"67 378 CURVE SMOOTH",
"67 146 OFFCURVE",
"187 -17 OFFCURVE",
"424 -17 CURVE",
"499 -17 OFFCURVE",
"588 3 OFFCURVE",
"668 44 CURVE",
"648 94 LINE",
"576 60 OFFCURVE",
"504 35 OFFCURVE",
"424 35 CURVE",
"232 35 OFFCURVE",
"126 175 OFFCURVE",
"125 378 CURVE SMOOTH",
"124 576 OFFCURVE",
"232 720 OFFCURVE",
"424 720 CURVE",
"486 720 OFFCURVE",
"547 708.947 OFFCURVE",
"608 679 CURVE",
"608 735 LINE",
"547 760 OFFCURVE",
"497 772 OFFCURVE",
"424 772 CURVE"
);
}
);
width = 703;
}
);
unicode = 0043;
},
{
glyphname = D;
lastChange = "2014-10-14 15:04:52 +0000";
layers = (
{
anchors = (
{
name = Accent;
position = "{365, 758}";
}
);
layerId = "BE6E37CB-569E-4B40-A59A-BD6EE6EB60D7";
name = Light;
paths = (
{
closed = 1;
nodes = (
"150 758 LINE",
"150 706 LINE",
"365 706 LINE",
"556.522 706 OFFCURVE",
"665 607 OFFCURVE",
"664 378 CURVE SMOOTH",
"663 147 OFFCURVE",
"556.522 52 OFFCURVE",
"365 52 CURVE",
"149 52 LINE",
"149 0 LINE",
"365 0 LINE",
"601.723 0 OFFCURVE",
"722 127 OFFCURVE",
"722 378 CURVE SMOOTH",
"722 626 OFFCURVE",
"601.723 758 OFFCURVE",
"365 758 CURVE"
);
},
{
closed = 1;
nodes = (
"120 758 LINE",
"120 0 LINE",
"176 0 LINE",
"176 758 LINE"
);
}
);
width = 794;
}
);
unicode = 0044;
},
{
glyphname = Eth;
lastChange = "2014-11-03 11:52:32 +0000";
layers = (
{
components = (
{
name = D;
transform = "{1, 0, 0, 1, 0, 0}";
}
);
layerId = "BE6E37CB-569E-4B40-A59A-BD6EE6EB60D7";
name = Light;
paths = (
{
closed = 1;
nodes = (
"27 355 LINE",
"382 355 LINE",
"382 407 LINE",
"27 407 LINE"
);
}
);
width = 794;
}
);
unicode = 00D0;
},
{
glyphname = E;
lastChange = "2014-11-04 12:00:49 +0000";
layers = (
{
anchors = (
{
name = Accent;
position = "{337, 758}";
},
{
name = ogonek;
position = "{534, 0}";
}
);
background = {
paths = (
{
closed = 1;
nodes = (
"120 758 LINE",
"120 0 LINE",
"174 0 LINE",
"174 758 LINE"
);
},
{
closed = 1;
nodes = (
"601 758 LINE",
"601 0 LINE",
"655 0 LINE",
"655 758 LINE"
);
},
{
closed = 1;
nodes = (
"159 354 LINE",
"614 354 LINE",
"614 408 LINE",
"159 408 LINE"
);
}
);
};
layerId = "BE6E37CB-569E-4B40-A59A-BD6EE6EB60D7";
name = Light;
paths = (
{
closed = 1;
nodes = (
"120 758 LINE",
"120 0 LINE",
"176 0 LINE",
"176 758 LINE"
);
},
{
closed = 1;
nodes = (
"161 0 LINE",
"564 0 LINE",
"564 54 LINE",
"161 54 LINE"
);
},
{
closed = 1;
nodes = (
"161 354 LINE",
"509 354 LINE",
"509 408 LINE",
"161 408 LINE"
);
},
{
closed = 1;
nodes = (
"161 704 LINE",
"559 704 LINE",
"559 758 LINE",
"161 758 LINE"
);
}
);
width = 624;
}
);
unicode = 0045;
},
{
glyphname = F;
lastChange = "2014-10-14 15:05:03 +0000";
layers = (
{
anchors = (
{
name = Accent;
position = "{355, 758}";
}
);
background = {
paths = (
{
closed = 1;
nodes = (
"120 758 LINE",
"120 0 LINE",
"174 0 LINE",
"174 758 LINE"
);
},
{
closed = 1;
nodes = (
"159 0 LINE",
"594 0 LINE",
"594 54 LINE",
"159 54 LINE"
);
},
{
closed = 1;
nodes = (
"159 354 LINE",
"539 354 LINE",
"539 408 LINE",
"159 408 LINE"
);
},
{
closed = 1;
nodes = (
"159 704 LINE",
"589 704 LINE",
"589 758 LINE",
"159 758 LINE"
);
}
);
};
layerId = "BE6E37CB-569E-4B40-A59A-BD6EE6EB60D7";
name = Light;
paths = (
{
closed = 1;
nodes = (
"120 758 LINE",
"120 0 LINE",
"176 0 LINE",
"176 758 LINE"
);
},
{
closed = 1;
nodes = (
"161 344 LINE",
"509 344 LINE",
"509 398 LINE",
"161 398 LINE"
);
},
{
closed = 1;
nodes = (
"161 704 LINE",
"559 704 LINE",
"559 758 LINE",
"161 758 LINE"
);
}
);
width = 609;
}
);
unicode = 0046;
},
{
glyphname = G;
lastChange = "2014-11-03 11:54:33 +0000";
layers = (
{
anchors = (
{
name = Accent;
position = "{409, 758}";
},
{
name = bottomaccent;
position = "{424, 0}";
}
);
background = {
paths = (
{
closed = 1;
nodes = (
"177 772 OFFCURVE",
"67 595 OFFCURVE",
"67 378 CURVE SMOOTH",
"67 146 OFFCURVE",
"187 -17 OFFCURVE",
"424 -17 CURVE",
"502 -17 OFFCURVE",
"603 6 OFFCURVE",
"685 53 CURVE",
"648 94 LINE",
"576 60 OFFCURVE",
"504 35 OFFCURVE",
"424 35 CURVE",
"232 35 OFFCURVE",
"126 175 OFFCURVE",
"125 378 CURVE SMOOTH",
"124 576 OFFCURVE",
"232 720 OFFCURVE",
"424 720 CURVE",
"516 720 OFFCURVE",
"577 697 OFFCURVE",
"638 663 CURVE",
"638 722 LINE",
"579 748 OFFCURVE",
"522 772 OFFCURVE",
"424 772 CURVE"
);
},
{
closed = 1;
nodes = (
"629 378 LINE",
"629 53 LINE",
"685 53 LINE",
"685 378 LINE"
);
},
{
closed = 1;
nodes = (
"280 374 LINE",
"685 374 LINE",
"685 428 LINE",
"280 428 LINE"
);
}
);
};
layerId = "BE6E37CB-569E-4B40-A59A-BD6EE6EB60D7";
name = Light;
paths = (
{
closed = 1;
nodes = (
"177 772 OFFCURVE",
"67 595 OFFCURVE",
"67 378 CURVE SMOOTH",
"67 146 OFFCURVE",
"187 -17 OFFCURVE",
"424 -17 CURVE",
"502 -17 OFFCURVE",
"603 6 OFFCURVE",
"685 53 CURVE",
"648 94 LINE",
"576 60 OFFCURVE",
"504 35 OFFCURVE",
"424 35 CURVE",
"232 35 OFFCURVE",
"126 175 OFFCURVE",
"125 378 CURVE SMOOTH",
"124 576 OFFCURVE",
"232 720 OFFCURVE",
"424 720 CURVE",
"516 720 OFFCURVE",
"577 697 OFFCURVE",
"638 663 CURVE",
"638 722 LINE",
"579 748 OFFCURVE",
"522 772 OFFCURVE",
"424 772 CURVE"
);
},
{
closed = 1;
nodes = (
"629 413 LINE",
"629 53 LINE",
"685 53 LINE",
"685 413 LINE"
);
},
{
closed = 1;
nodes = (
"300 409 LINE",
"685 409 LINE",
"685 463 LINE",
"300 463 LINE"
);
}
);
width = 780;
}
);
unicode = 0047;
},
{
glyphname = H;
lastChange = "2014-11-06 12:57:37 +0000";
layers = (
{
anchors = (
{
name = Accent;
position = "{387, 758}";
}
);
layerId = "BE6E37CB-569E-4B40-A59A-BD6EE6EB60D7";
name = Light;
paths = (
{
closed = 1;
nodes = (
"120 758 LINE",
"120 0 LINE",
"176 0 LINE",
"176 758 LINE"
);
},
{
closed = 1;
nodes = (
"599 758 LINE",
"599 0 LINE",
"655 0 LINE",
"655 758 LINE"
);
},
{
closed = 1;
nodes = (
"157 354 LINE",
"612 354 LINE",
"612 408 LINE",
"157 408 LINE"
);
}
);
width = 775;
}
);
unicode = 0048;
},
{
glyphname = Hbar;
lastChange = "2014-11-03 11:51:54 +0000";
layers = (
{
layerId = "BE6E37CB-569E-4B40-A59A-BD6EE6EB60D7";
name = Light;
paths = (
{
closed = 1;
nodes = (
"120 758 LINE",
"120 0 LINE",
"176 0 LINE",
"176 758 LINE"
);
},
{
closed = 1;
nodes = (
"599 758 LINE",
"599 0 LINE",
"655 0 LINE",
"655 758 LINE"
);
},
{
closed = 1;
nodes = (
"157 354 LINE",
"612 354 LINE",
"612 408 LINE",
"157 408 LINE"
);
},
{
closed = 1;
nodes = (
"157 556 LINE",
"618 556 LINE",
"618 608 LINE",
"157 608 LINE"
);
}
);
width = 775;
}
);
unicode = 0126;
},
{
glyphname = I;
lastChange = "2014-11-03 10:11:22 +0000";
layers = (
{
anchors = (
{
name = Accent;
position = "{148, 758}";
},
{
name = bottomaccent;
position = "{148, 0}";
}
);
layerId = "BE6E37CB-569E-4B40-A59A-BD6EE6EB60D7";
name = Light;
paths = (
{
closed = 1;
nodes = (
"120 758 LINE",
"120 0 LINE",
"176 0 LINE",
"176 758 LINE"
);
}
);
width = 296;
}
);
unicode = 0049;
},
{
glyphname = Iogonek;
lastChange = "2014-11-03 10:15:11 +0000";
layers = (
{
background = {
paths = (
{
closed = 1;
nodes = (
"141 -223 OFFCURVE",
"158 -220 OFFCURVE",
"176 -212 CURVE",
"176 -164 LINE",
"157 -174 OFFCURVE",
"139 -176 OFFCURVE",
"124 -176 CURVE SMOOTH",
"88 -176 OFFCURVE",
"73 -157 OFFCURVE",
"73 -135 CURVE SMOOTH",
"73 -85 OFFCURVE",
"120 -44 OFFCURVE",
"176 0 CURVE",
"116 0 LINE",
"57 -46 OFFCURVE",
"22 -88 OFFCURVE",
"22 -140 CURVE SMOOTH",
"22 -188 OFFCURVE",
"55 -223 OFFCURVE",
"124 -223 CURVE"
);
}
);
};
components = (
{
name = I;
transform = "{1, 0, 0, 1, 0, 0}";
}
);
layerId = "BE6E37CB-569E-4B40-A59A-BD6EE6EB60D7";
name = Light;
paths = (
{
closed = 1;
nodes = (
"141 -223 OFFCURVE",
"158 -220 OFFCURVE",
"176 -212 CURVE",
"176 -164 LINE",
"157 -174 OFFCURVE",
"139 -176 OFFCURVE",
"124 -176 CURVE SMOOTH",
"88 -176 OFFCURVE",
"73 -157 OFFCURVE",
"73 -135 CURVE SMOOTH",
"73 -85 OFFCURVE",
"120 -44 OFFCURVE",
"176 0 CURVE",
"176 10 LINE",
"120 10 LINE",
"120 0 LINE",
"58 -46 OFFCURVE",
"22 -88 OFFCURVE",
"22 -140 CURVE SMOOTH",
"22 -188 OFFCURVE",
"55 -223 OFFCURVE",
"124 -223 CURVE"
);
}
);
width = 296;
}
);
unicode = 012E;
},
{
glyphname = J;
lastChange = "2014-10-14 15:06:13 +0000";
layers = (
{
anchors = (
{
name = Accent;
position = "{148, 758}";
}
);
background = {
paths = (
{
closed = 1;
nodes = (
"120 758 LINE",
"120 0 LINE",
"176 0 LINE",
"176 758 LINE"
);
}
);
};
layerId = "BE6E37CB-569E-4B40-A59A-BD6EE6EB60D7";
name = Light;
paths = (
{
closed = 1;
nodes = (
"150 -81 OFFCURVE",
"176 -47 OFFCURVE",
"176 80 CURVE SMOOTH",
"176 758 LINE",
"120 758 LINE",
"120 86 LINE SMOOTH",
"120 -8 OFFCURVE",
"106 -27 OFFCURVE",
"57 -27 CURVE SMOOTH",
"42 -27 OFFCURVE",
"26 -26 OFFCURVE",
"11 -23 CURVE",
"11 -77 LINE",
"26 -80 OFFCURVE",
"41 -81 OFFCURVE",
"52 -81 CURVE SMOOTH"
);
}
);
width = 296;
}
);
unicode = 004A;
},
{
glyphname = K;
lastChange = "2014-11-06 12:57:49 +0000";
layers = (
{
anchors = (
{
name = Accent;
position = "{338, 758}";
},
{
name = bottomaccent;
position = "{325, 0}";
}
);
layerId = "BE6E37CB-569E-4B40-A59A-BD6EE6EB60D7";
name = Light;
paths = (
{
closed = 1;
nodes = (
"615 758 LINE",
"542 758 LINE",
"158 371 LINE",
"156 296 LINE"
);
},
{
closed = 1;
nodes = (
"120 758 LINE",
"120 0 LINE",
"176 0 LINE",
"176 758 LINE"
);
},
{
closed = 1;
nodes = (
"206 413 LINE",
"545 0 LINE",
"620 0 LINE",
"252 450 LINE"
);
}
);
width = 660;
}
);
unicode = 004B;
},
{
glyphname = L;
lastChange = "2014-10-25 11:45:19 +0000";
layers = (
{
anchors = (
{
name = Accent;
position = "{148, 758}";
},
{
name = bottomaccent;
position = "{314, 0}";
}
);
layerId = "BE6E37CB-569E-4B40-A59A-BD6EE6EB60D7";
name = Light;
paths = (
{
closed = 1;
nodes = (
"120 758 LINE",
"120 0 LINE",
"176 0 LINE",
"176 758 LINE"
);
},
{
closed = 1;
nodes = (
"161 0 LINE",
"514 0 LINE",
"514 54 LINE",
"161 54 LINE"
);
}
);
width = 554;
}
);
unicode = 004C;
},
{
glyphname = Ldot;
lastChange = "2014-11-04 14:47:50 +0000";
layers = (
{
background = {
paths = (
{
closed = 1;
nodes = (
"120 758 LINE",
"120 0 LINE",
"176 0 LINE",
"176 758 LINE"
);
},
{
closed = 1;
nodes = (
"599 758 LINE",
"599 0 LINE",
"655 0 LINE",
"655 758 LINE"
);
},
{
closed = 1;
nodes = (
"157 354 LINE",
"612 354 LINE",
"612 408 LINE",
"157 408 LINE"
);
}
);
};
components = (
{
name = L;
transform = "{1, 0, 0, 1, 0, 0}";
},
{
name = periodcentered;
transform = "{1, 0, 0, 1, 260, 44}";
}
);
layerId = "BE6E37CB-569E-4B40-A59A-BD6EE6EB60D7";
name = Light;
width = 554;
}
);
unicode = 013F;
},
{
glyphname = Lslash;
lastChange = "2014-11-06 12:57:57 +0000";
layers = (
{
components = (
{
name = L;
transform = "{1, 0, 0, 1, 0, 0}";
}
);
layerId = "BE6E37CB-569E-4B40-A59A-BD6EE6EB60D7";
name = Light;
paths = (
{
closed = 1;
nodes = (
"15 250 LINE",
"447 424 LINE",
"447 476 LINE",
"15 302 LINE"
);
}
);
width = 554;
}
);
unicode = 0141;
},
{
glyphname = M;
lastChange = "2014-10-16 11:18:45 +0000";
layers = (
{
anchors = (
{
name = Accent;
position = "{453, 758}";
}
);
background = {
paths = (
{
closed = 1;
nodes = (
"283 147 LINE SMOOTH",
"328 113 LINE SMOOTH",
"775 725 LINE SMOOTH",
"730 758 LINE SMOOTH"
);
}
);
};
layerId = "BE6E37CB-569E-4B40-A59A-BD6EE6EB60D7";
name = Light;
paths = (
{
closed = 1;
nodes = (
"730 758 LINE",
"439 360 LINE",
"467 360 LINE",
"176 758 LINE",
"120 758 LINE",
"120 0 LINE",
"176 0 LINE",
"176 687 LINE",
"162 683 LINE",
"437 306 LINE",
"469 306 LINE",
"744 683 LINE",
"730 687 LINE",
"730 0 LINE",
"786 0 LINE",
"786 758 LINE"
);
}
);
width = 906;
}
);
unicode = 004D;
},
{
glyphname = N;
lastChange = "2014-11-06 12:58:05 +0000";
layers = (
{
anchors = (
{
name = Accent;
position = "{403, 758}";
},
{
name = bottomaccent;
position = "{366, 0}";
}
);
layerId = "BE6E37CB-569E-4B40-A59A-BD6EE6EB60D7";
name = Light;
paths = (
{
closed = 1;
nodes = (
"599 758 LINE",
"599 79 LINE",
"612 83 LINE",
"175 758 LINE",
"120 758 LINE",
"120 0 LINE",
"176 0 LINE",
"176 679 LINE",
"163 675 LINE",
"600 0 LINE",
"655 0 LINE",
"655 758 LINE"
);
}
);
width = 775;
}
);
unicode = 004E;
},
{
glyphname = Eng;
lastChange = "2014-11-05 12:36:58 +0000";
layers = (
{
anchors = (
{
name = Accent;
position = "{403, 758}";
},
{
name = bottomaccent;
position = "{366, 0}";
}
);
layerId = "BE6E37CB-569E-4B40-A59A-BD6EE6EB60D7";
name = Light;
paths = (
{
closed = 1;
nodes = (
"599 758 LINE",
"599 79 LINE",
"612 83 LINE",
"175 758 LINE",
"120 758 LINE",
"120 0 LINE",
"176 0 LINE",
"176 679 LINE",
"163 675 LINE",
"600 0 LINE",
"655 87 LINE",
"655 758 LINE"
);
},
{
closed = 1;
nodes = (
"629 -166 OFFCURVE",
"655 -132 OFFCURVE",
"655 -5 CURVE SMOOTH",
"655 588 LINE",
"599 588 LINE",
"599 1 LINE SMOOTH",
"599 -93 OFFCURVE",
"585 -112 OFFCURVE",
"536 -112 CURVE SMOOTH",
"521 -112 OFFCURVE",
"505 -111 OFFCURVE",
"490 -108 CURVE",
"490 -162 LINE",
"505 -165 OFFCURVE",
"520 -166 OFFCURVE",
"531 -166 CURVE SMOOTH"
);
}
);
width = 775;
}
);
unicode = 014A;
},
{
glyphname = O;
lastChange = "2014-10-25 11:45:35 +0000";
layers = (
{
anchors = (
{
name = Accent;
position = "{415, 758}";
},
{
name = bottomaccent;
position = "{415, 0}";
}
);
background = {
paths = (
{
closed = 1;
nodes = (
"224 35 OFFCURVE",
"122 183 OFFCURVE",
"122 378 CURVE",
"122 569 OFFCURVE",
"224 719 OFFCURVE",
"412 719 CURVE",
"601 719 OFFCURVE",
"703 569 OFFCURVE",
"703 378 CURVE",
"703 183 OFFCURVE",
"601 35 OFFCURVE",
"412 35 CURVE"
);
},
{
closed = 1;
nodes = (
"645 -17 OFFCURVE",
"765 164 OFFCURVE",
"765 379 CURVE",
"765 589 OFFCURVE",
"645 771 OFFCURVE",
"412 771 CURVE",
"179 771 OFFCURVE",
"60 589 OFFCURVE",
"60 377 CURVE",
"60 164 OFFCURVE",
"179 -17 OFFCURVE",
"412 -17 CURVE"
);
}
);
};
layerId = "BE6E37CB-569E-4B40-A59A-BD6EE6EB60D7";
name = Light;
paths = (
{
closed = 1;
nodes = (
"182 772 OFFCURVE",
"67 594 OFFCURVE",
"67 378 CURVE SMOOTH",
"67 157 OFFCURVE",
"182 -17 OFFCURVE",
"415 -17 CURVE SMOOTH",
"645 -17 OFFCURVE",
"762 157 OFFCURVE",
"762 378 CURVE SMOOTH",
"762 594 OFFCURVE",
"645 772 OFFCURVE",
"415 772 CURVE SMOOTH"
);
},
{
closed = 1;
nodes = (
"600 720 OFFCURVE",
"705 565 OFFCURVE",
"704 378 CURVE SMOOTH",
"703 187 OFFCURVE",
"600 35 OFFCURVE",
"415 35 CURVE SMOOTH",
"224 35 OFFCURVE",
"125 187 OFFCURVE",
"125 378 CURVE SMOOTH",
"125 565 OFFCURVE",
"224 720 OFFCURVE",
"415 720 CURVE SMOOTH"
);
}
);
width = 829;
}
);
unicode = 004F;
},
{
glyphname = Oslash;
lastChange = "2014-11-06 12:58:18 +0000";
layers = (
{
components = (
{
name = O;
transform = "{1, 0, 0, 1, 0, 0}";
}
);
layerId = "BE6E37CB-569E-4B40-A59A-BD6EE6EB60D7";
name = Light;
paths = (
{
closed = 1;
nodes = (
"63 0 LINE",
"800 723 LINE",
"766 758 LINE",
"28 34 LINE"
);
}
);
width = 829;
}
);
unicode = 00D8;
},
{
glyphname = OE;
lastChange = "2014-10-25 12:09:43 +0000";
layers = (
{
anchors = (
{
name = Accent;
position = "{853, 758}";
}
);
layerId = "BE6E37CB-569E-4B40-A59A-BD6EE6EB60D7";
name = Light;
paths = (
{
closed = 1;
nodes = (
"644 0 LINE",
"644 52 LINE",
"429 52 LINE",
"237 52 OFFCURVE",
"129 151 OFFCURVE",
"130 380 CURVE SMOOTH",
"131 611 OFFCURVE",
"237 706 OFFCURVE",
"429 706 CURVE",
"645 706 LINE",
"645 758 LINE",
"429 758 LINE",
"192 758 OFFCURVE",
"72 631 OFFCURVE",
"72 380 CURVE SMOOTH",
"72 132 OFFCURVE",
"192 0 OFFCURVE",
"429 0 CURVE"
);
},
{
closed = 1;
nodes = (
"618 758 LINE",
"618 0 LINE",
"674 0 LINE",
"674 758 LINE"
);
},
{
closed = 1;
nodes = (
"659 0 LINE",
"1062 0 LINE",
"1062 54 LINE",
"659 54 LINE"
);
},
{
closed = 1;
nodes = (
"659 354 LINE",
"1007 354 LINE",
"1007 408 LINE",
"659 408 LINE"
);
},
{
closed = 1;
nodes = (
"659 704 LINE",
"1057 704 LINE",
"1057 758 LINE",
"659 758 LINE"
);
}
);
width = 1122;
}
);
unicode = 0152;
},
{
glyphname = P;
lastChange = "2014-10-14 15:07:04 +0000";
layers = (
{
anchors = (
{
name = Accent;
position = "{365, 758}";
}
);
background = {
paths = (
{
closed = 1;
nodes = (
"120 758 LINE",
"120 0 LINE",
"176 0 LINE",
"176 758 LINE"
);
},
{
closed = 1;
nodes = (
"160 758 LINE",
"160 706 LINE",
"365 706 LINE",
"476 706 OFFCURVE",
"535 662 OFFCURVE",
"534 555 CURVE SMOOTH",
"533 454 OFFCURVE",
"476 406 OFFCURVE",
"365 406 CURVE",
"159 406 LINE",
"159 354 LINE",
"365 354 LINE",
"518 354 OFFCURVE",
"592 425 OFFCURVE",
"592 555 CURVE SMOOTH",
"592 689 OFFCURVE",
"518 758 OFFCURVE",
"365 758 CURVE"
);
}
);
};
layerId = "BE6E37CB-569E-4B40-A59A-BD6EE6EB60D7";
name = Light;
paths = (
{
closed = 1;
nodes = (
"120 758 LINE",
"120 0 LINE",
"176 0 LINE",
"176 758 LINE"
);
},
{
closed = 1;
nodes = (
"160 758 LINE",
"160 706 LINE",
"365 706 LINE",
"476 706 OFFCURVE",
"535 659 OFFCURVE",
"534 545 CURVE SMOOTH",
"533 438 OFFCURVE",
"476 386 OFFCURVE",
"365 386 CURVE",
"159 386 LINE",
"159 334 LINE",
"365 334 LINE",
"518 334 OFFCURVE",
"592 409 OFFCURVE",
"592 545 CURVE SMOOTH",
"592 686 OFFCURVE",
"518 758 OFFCURVE",
"365 758 CURVE"
);
}
);
width = 642;
}
);
unicode = 0050;
},
{
glyphname = Thorn;
lastChange = "2014-10-25 12:10:28 +0000";
layers = (
{
anchors = (
{
name = Accent;
position = "{365, 758}";
}
);
background = {
paths = (
{
closed = 1;
nodes = (
"120 758 LINE",
"120 0 LINE",
"176 0 LINE",
"176 758 LINE"
);
},
{
closed = 1;
nodes = (
"160 758 LINE",
"160 706 LINE",
"365 706 LINE",
"476 706 OFFCURVE",
"535 659 OFFCURVE",
"534 545 CURVE SMOOTH",
"533 438 OFFCURVE",
"476 386 OFFCURVE",
"365 386 CURVE",
"159 386 LINE",
"159 334 LINE",
"365 334 LINE",
"518 334 OFFCURVE",
"592 409 OFFCURVE",
"592 545 CURVE SMOOTH",
"592 686 OFFCURVE",
"518 758 OFFCURVE",
"365 758 CURVE"
);
}
);
};
layerId = "BE6E37CB-569E-4B40-A59A-BD6EE6EB60D7";
name = Light;
paths = (
{
closed = 1;
nodes = (
"120 758 LINE",
"120 0 LINE",
"176 0 LINE",
"176 758 LINE"
);
},
{
closed = 1;
nodes = (
"160 596 LINE",
"160 544 LINE",
"365 544 LINE",
"476 544 OFFCURVE",
"535 497 OFFCURVE",
"534 383 CURVE SMOOTH",
"533 276 OFFCURVE",
"476 224 OFFCURVE",
"365 224 CURVE",
"159 224 LINE",
"159 172 LINE",
"365 172 LINE",
"518 172 OFFCURVE",
"592 247 OFFCURVE",
"592 383 CURVE SMOOTH",
"592 524 OFFCURVE",
"518 596 OFFCURVE",
"365 596 CURVE"
);
}
);
width = 642;
}
);
unicode = 00DE;
},
{
glyphname = Q;
lastChange = "2014-10-14 09:29:49 +0000";
layers = (
{
background = {
paths = (
{
closed = 1;
nodes = (
"489 237 LINE",
"419 237 LINE",
"671 -54 LINE",
"741 -54 LINE"
);
}
);
};
components = (
{
name = O;
transform = "{1, 0, 0, 1, 0, 0}";
}
);
layerId = "BE6E37CB-569E-4B40-A59A-BD6EE6EB60D7";
name = Light;
paths = (
{
closed = 1;
nodes = (
"632 72 LINE",
"489 237 LINE",
"419 237 LINE",
"583 47 LINE",
"678 -64 LINE",
"752 -64 LINE"
);
}
);
width = 829;
}
);
unicode = 0051;
},
{
glyphname = R;
lastChange = "2014-11-03 11:57:23 +0000";
layers = (
{
anchors = (
{
name = Accent;
position = "{315, 758}";
},
{
name = bottomaccent;
position = "{334, 0}";
}
);
background = {
paths = (
{
closed = 1;
nodes = (
"167 645 LINE",
"566 0 LINE",
"614 29 LINE",
"215 674 LINE"
);
}
);
};
layerId = "BE6E37CB-569E-4B40-A59A-BD6EE6EB60D7";
name = Light;
paths = (
{
closed = 1;
nodes = (
"120 758 LINE",
"120 0 LINE",
"176 0 LINE",
"176 758 LINE"
);
},
{
closed = 1;
nodes = (
"160 758 LINE",
"160 706 LINE",
"365 706 LINE",
"476 706 OFFCURVE",
"535 660 OFFCURVE",
"534 550 CURVE SMOOTH",
"533 446 OFFCURVE",
"476 396 OFFCURVE",
"365 396 CURVE",
"159 396 LINE",
"159 344 LINE",
"365 344 LINE",
"518 344 OFFCURVE",
"592 417 OFFCURVE",
"592 550 CURVE SMOOTH",
"592 688 OFFCURVE",
"518 758 OFFCURVE",
"365 758 CURVE"
);
},
{
closed = 1;
nodes = (
"344 359 LINE",
"566 0 LINE",
"632 0 LINE",
"390 391 LINE"
);
}
);
width = 689;
}
);
unicode = 0052;
},
{
glyphname = S;
lastChange = "2014-11-06 12:58:30 +0000";
layers = (
{
anchors = (
{
name = Accent;
position = "{322, 758}";
},
{
name = bottomaccent;
position = "{315, 0}";
}
);
layerId = "BE6E37CB-569E-4B40-A59A-BD6EE6EB60D7";
name = Light;
paths = (
{
closed = 1;
nodes = (
"557 323 OFFCURVE",
"468 365 OFFCURVE",
"366 393 CURVE SMOOTH",
"297 412 LINE SMOOTH",
"214 435 OFFCURVE",
"148 467 OFFCURVE",
"147 562 CURVE",
"147 655 OFFCURVE",
"196 720 OFFCURVE",
"312 720 CURVE SMOOTH",
"395 720 OFFCURVE",
"461 700 OFFCURVE",
"520 669 CURVE",
"520 725 LINE",
"458 754 OFFCURVE",
"400 772 OFFCURVE",
"312 772 CURVE SMOOTH",
"172 772 OFFCURVE",
"89 701 OFFCURVE",
"89 563 CURVE SMOOTH",
"89 426 OFFCURVE",
"183 385 OFFCURVE",
"276 358 CURVE SMOOTH",
"344 339 LINE SMOOTH",
"422 317 OFFCURVE",
"499 283 OFFCURVE",
"499 188 CURVE SMOOTH",
"498 103 OFFCURVE",
"449 35 OFFCURVE",
"315 35 CURVE SMOOTH",
"233 35 OFFCURVE",
"146 50 OFFCURVE",
"66 92 CURVE",
"66 36 LINE",
"141 0 OFFCURVE",
"221 -17 OFFCURVE",
"315 -17 CURVE SMOOTH",
"465 -17 OFFCURVE",
"556 61 OFFCURVE",
"557 187 CURVE"
);
}
);
width = 629;
}
);
unicode = 0053;
},
{
glyphname = T;
lastChange = "2014-10-25 11:54:30 +0000";
layers = (
{
anchors = (
{
name = Accent;
position = "{307, 758}";
},
{
name = bottomaccent;
position = "{304, 0}";
}
);
layerId = "BE6E37CB-569E-4B40-A59A-BD6EE6EB60D7";
name = Light;
paths = (
{
closed = 1;
nodes = (
"335 0 LINE",
"335 758 LINE",
"279 758 LINE",
"279 0 LINE"
);
},
{
closed = 1;
nodes = (
"574 704 LINE",
"574 758 LINE",
"319 758 LINE",
"319 704 LINE"
);
},
{
closed = 1;
nodes = (
"295 758 LINE",
"40 758 LINE",
"40 704 LINE",
"295 704 LINE"
);
}
);
width = 614;
}
);
unicode = 0054;
},
{
glyphname = Tbar;
lastChange = "2014-11-04 14:58:09 +0000";
layers = (
{
components = (
{
name = T;
transform = "{1, 0, 0, 1, 0, 0}";
}
);
layerId = "BE6E37CB-569E-4B40-A59A-BD6EE6EB60D7";
name = Light;
paths = (
{
closed = 1;
nodes = (
"100 494 LINE",
"514 494 LINE",
"514 546 LINE",
"100 546 LINE"
);
}
);
width = 614;
}
);
unicode = 0166;
},
{
glyphname = U;
lastChange = "2014-11-03 10:09:21 +0000";
layers = (
{
anchors = (
{
name = Accent;
position = "{383, 758}";
},
{
name = ogonek;
position = "{434, 0}";
}
);
background = {
paths = (
{
closed = 1;
nodes = (
"150 772 OFFCURVE",
"35 594 OFFCURVE",
"35 378 CURVE SMOOTH",
"35 157 OFFCURVE",
"150 -17 OFFCURVE",
"383 -17 CURVE SMOOTH",
"613 -17 OFFCURVE",
"730 157 OFFCURVE",
"730 378 CURVE SMOOTH",
"730 594 OFFCURVE",
"613 772 OFFCURVE",
"383 772 CURVE SMOOTH"
);
},
{
closed = 1;
nodes = (
"568 720 OFFCURVE",
"673 565 OFFCURVE",
"672 378 CURVE SMOOTH",
"671 187 OFFCURVE",
"568 35 OFFCURVE",
"383 35 CURVE SMOOTH",
"192 35 OFFCURVE",
"93 187 OFFCURVE",
"93 378 CURVE SMOOTH",
"93 565 OFFCURVE",
"192 720 OFFCURVE",
"383 720 CURVE SMOOTH"
);
}
);
};
layerId = "BE6E37CB-569E-4B40-A59A-BD6EE6EB60D7";
name = Light;
paths = (
{
closed = 1;
nodes = (
"115 83 OFFCURVE",
"200 -17 OFFCURVE",
"383 -17 CURVE SMOOTH",
"567 -17 OFFCURVE",
"651 83 OFFCURVE",
"651 248 CURVE SMOOTH",
"651 758 LINE",
"595 758 LINE",
"595 248 LINE SMOOTH",
"595 108 OFFCURVE",
"524 35 OFFCURVE",
"383 35 CURVE SMOOTH",
"242 35 OFFCURVE",
"171 108 OFFCURVE",
"171 248 CURVE SMOOTH",
"171 758 LINE",
"115 758 LINE",
"115 248 LINE SMOOTH"
);
}
);
width = 766;
}
);
unicode = 0055;
},
{
glyphname = V;
lastChange = "2014-10-14 15:07:55 +0000";
layers = (
{
anchors = (
{
name = Accent;
position = "{355, 758}";
}
);
background = {
paths = (
{
closed = 1;
nodes = (
"35 758 LINE",
"309 51 LINE",
"361 72 LINE",
"87 778 LINE"
);
}
);
};
layerId = "BE6E37CB-569E-4B40-A59A-BD6EE6EB60D7";
name = Light;
paths = (
{
closed = 1;
nodes = (
"674 758 LINE",
"614 758 LINE",
"347 63 LINE",
"363 63 LINE",
"95 758 LINE",
"35 758 LINE",
"331 -9 LINE",
"379 -9 LINE"
);
}
);
width = 709;
}
);
unicode = 0056;
},
{
glyphname = W;
lastChange = "2014-10-14 15:08:09 +0000";
layers = (
{
anchors = (
{
name = Accent;
position = "{524, 758}";
}
);
background = {
paths = (
{
closed = 1;
nodes = (
"554 758 LINE",
"494 758 LINE",
"287 63 LINE",
"303 63 LINE",
"95 758 LINE",
"35 758 LINE",
"271 -9 LINE",
"319 -9 LINE"
);
},
{
closed = 1;
nodes = (
"1013 758 LINE",
"953 758 LINE",
"746 63 LINE",
"762 63 LINE",
"554 758 LINE",
"494 758 LINE",
"730 -9 LINE",
"778 -9 LINE"
);
}
);
};
layerId = "BE6E37CB-569E-4B40-A59A-BD6EE6EB60D7";
name = Light;
paths = (
{
closed = 1;
nodes = (
"953 758 LINE",
"746 63 LINE",
"762 63 LINE",
"554 758 LINE",
"494 758 LINE",
"288 67 LINE",
"302 67 LINE",
"95 758 LINE",
"35 758 LINE",
"271 -9 LINE",
"319 -9 LINE",
"531 684 LINE",
"517 684 LINE",
"730 -9 LINE",
"778 -9 LINE",
"1013 758 LINE"
);
}
);
width = 1048;
}
);
unicode = 0057;
},
{
glyphname = X;
lastChange = "2014-11-06 12:58:43 +0000";
layers = (
{
anchors = (
{
name = Accent;
position = "{353, 758}";
}
);
layerId = "BE6E37CB-569E-4B40-A59A-BD6EE6EB60D7";
name = Light;
paths = (
{
closed = 1;
nodes = (
"354 428 LINE",
"333 413 LINE",
"49 0 LINE",
"117 0 LINE",
"361 360 LINE",
"385 378 LINE",
"644 758 LINE",
"577 758 LINE"
);
},
{
closed = 1;
nodes = (
"67 758 LINE",
"326 378 LINE",
"350 360 LINE",
"593 0 LINE",
"661 0 LINE",
"378 413 LINE",
"357 428 LINE",
"134 758 LINE"
);
}
);
width = 706;
}
);
unicode = 0058;
},
{
glyphname = Y;
lastChange = "2014-11-06 12:58:47 +0000";
layers = (
{
anchors = (
{
name = Accent;
position = "{351, 758}";
}
);
layerId = "BE6E37CB-569E-4B40-A59A-BD6EE6EB60D7";
name = Light;
paths = (
{
closed = 1;
nodes = (
"668 758 LINE",
"608 758 LINE",
"343 328 LINE",
"359 328 LINE",
"95 758 LINE",
"35 758 LINE",
"327 286 LINE",
"375 286 LINE"
);
},
{
closed = 1;
nodes = (
"323 339 LINE",
"323 0 LINE",
"379 0 LINE",
"379 339 LINE"
);
}
);
width = 703;
}
);
unicode = 0059;
},
{
glyphname = Z;
lastChange = "2014-11-06 12:58:52 +0000";
layers = (
{
anchors = (
{
name = Accent;
position = "{347, 758}";
}
);
layerId = "BE6E37CB-569E-4B40-A59A-BD6EE6EB60D7";
name = Light;
paths = (
{
closed = 1;
nodes = (
"120 54 LINE",
"133 34 LINE",
"595 706 LINE",
"595 758 LINE",
"93 758 LINE",
"93 704 LINE",
"556 704 LINE",
"543 724 LINE",
"80 52 LINE",
"80 0 LINE",
"628 0 LINE",
"628 54 LINE"
);
}
);
width = 708;
}
);
unicode = 005A;
},
{
glyphname = a;
lastChange = "2014-11-06 12:58:57 +0000";
layers = (
{
anchors = (
{
name = accent;
position = "{265, 546}";
}
);
layerId = "BE6E37CB-569E-4B40-A59A-BD6EE6EB60D7";
name = Light;
paths = (
{
closed = 1;
nodes = (
"176 546 LINE",
"176 496 LINE",
"230 496 LINE SMOOTH",
"366 496 OFFCURVE",
"374 423 OFFCURVE",
"374 303 CURVE SMOOTH",
"374 0 LINE",
"428 0 LINE",
"428 313 LINE SMOOTH",
"428 445 OFFCURVE",
"406 546 OFFCURVE",
"245 546 CURVE SMOOTH"
);
},
{
closed = 1;
nodes = (
"358 344 OFFCURVE",
"292 362 OFFCURVE",
"240 362 CURVE SMOOTH",
"120 362 OFFCURVE",
"35 295 OFFCURVE",
"35 173 CURVE SMOOTH",
"35 55 OFFCURVE",
"119 -13 OFFCURVE",
"210 -13 CURVE SMOOTH",
"279 -13 OFFCURVE",
"337 16 OFFCURVE",
"399 85 CURVE",
"398 139 LINE",
"336 70 OFFCURVE",
"268 41 OFFCURVE",
"210 41 CURVE SMOOTH",
"161 41 OFFCURVE",
"91 72 OFFCURVE",
"91 173 CURVE SMOOTH",
"91 280 OFFCURVE",
"171 308 OFFCURVE",
"240 308 CURVE SMOOTH",
"288 308 OFFCURVE",
"347 297 OFFCURVE",
"395 264 CURVE",
"401 312 LINE"
);
}
);
width = 493;
}
);
unicode = 0061;
},
{
glyphname = aogonek;
lastChange = "2014-11-03 10:13:51 +0000";
layers = (
{
components = (
{
name = a;
transform = "{1, 0, 0, 1, 0, 0}";
}
);
layerId = "BE6E37CB-569E-4B40-A59A-BD6EE6EB60D7";
name = Light;
paths = (
{
closed = 1;
nodes = (
"393 -223 OFFCURVE",
"410 -220 OFFCURVE",
"428 -212 CURVE",
"428 -164 LINE",
"409 -174 OFFCURVE",
"391 -176 OFFCURVE",
"376 -176 CURVE SMOOTH",
"341 -176 OFFCURVE",
"327 -157 OFFCURVE",
"327 -135 CURVE SMOOTH",
"327 -85 OFFCURVE",
"373 -44 OFFCURVE",
"428 0 CURVE",
"428 10 LINE",
"374 10 LINE",
"374 0 LINE",
"312 -46 OFFCURVE",
"276 -88 OFFCURVE",
"276 -140 CURVE SMOOTH",
"276 -188 OFFCURVE",
"308 -223 OFFCURVE",
"376 -223 CURVE"
);
}
);
width = 493;
}
);
unicode = 0105;
},
{
glyphname = ae;
lastChange = "2014-11-06 12:59:04 +0000";
layers = (
{
layerId = "BE6E37CB-569E-4B40-A59A-BD6EE6EB60D7";
name = Light;
paths = (
{
closed = 1;
nodes = (
"176 546 LINE",
"176 496 LINE",
"230 496 LINE SMOOTH",
"366 496 OFFCURVE",
"374 423 OFFCURVE",
"374 303 CURVE SMOOTH",
"374 274 LINE",
"426 274 LINE",
"426 313 LINE SMOOTH",
"425.989 445 OFFCURVE",
"404.231 546 OFFCURVE",
"245 546 CURVE SMOOTH"
);
},
{
closed = 1;
nodes = (
"358 344 OFFCURVE",
"292 362 OFFCURVE",
"240 362 CURVE SMOOTH",
"120 362 OFFCURVE",
"35 295 OFFCURVE",
"35 173 CURVE SMOOTH",
"35 55 OFFCURVE",
"119 -13 OFFCURVE",
"210 -13 CURVE SMOOTH",
"291 -13 OFFCURVE",
"359 26 OFFCURVE",
"432 96 CURVE",
"398 139 LINE",
"336 70 OFFCURVE",
"268 41 OFFCURVE",
"210 41 CURVE SMOOTH",
"161 41 OFFCURVE",
"91 72 OFFCURVE",
"91 173 CURVE SMOOTH",
"91 280 OFFCURVE",
"171 308 OFFCURVE",
"240 308 CURVE SMOOTH",
"288 308 OFFCURVE",
"347 297 OFFCURVE",
"395 264 CURVE",
"401 312 LINE"
);
},
{
closed = 1;
nodes = (
"483 37 OFFCURVE",
"430 145 OFFCURVE",
"430 275 CURVE SMOOTH",
"430 434 OFFCURVE",
"502 508 OFFCURVE",
"612 508 CURVE SMOOTH",
"723 508 OFFCURVE",
"773 446 OFFCURVE",
"773 310 CURVE",
"773 289 LINE",
"829 289 LINE",
"829 310 LINE",
"828 475 OFFCURVE",
"744 562 OFFCURVE",
"612 562 CURVE SMOOTH",
"480 562 OFFCURVE",
"374 463 OFFCURVE",
"374 274 CURVE SMOOTH",
"374 102 OFFCURVE",
"463 -17 OFFCURVE",
"632 -17 CURVE",
"695 -17 OFFCURVE",
"758 -1 OFFCURVE",
"815 28 CURVE",
"795 78 LINE",
"742 54 OFFCURVE",
"687 37 OFFCURVE",
"632 37 CURVE"
);
},
{
closed = 1;
nodes = (
"415 289 LINE",
"784 289 LINE",
"784 343 LINE",
"415 343 LINE"
);
}
);
width = 879;
}
);
unicode = 00E6;
},
{
glyphname = b;
lastChange = "2014-11-06 12:59:07 +0000";
layers = (
{
anchors = (
{
name = accent;
position = "{318, 546}";
}
);
layerId = "BE6E37CB-569E-4B40-A59A-BD6EE6EB60D7";
name = Light;
paths = (
{
closed = 1;
nodes = (
"154 846 LINE",
"100 846 LINE",
"100 0 LINE",
"154 0 LINE"
);
},
{
closed = 1;
nodes = (
"556 467 OFFCURVE",
"459 562 OFFCURVE",
"318 562 CURVE SMOOTH",
"247 562 OFFCURVE",
"176 515 OFFCURVE",
"126 460 CURVE",
"126 406 LINE",
"177 462 OFFCURVE",
"243 508 OFFCURVE",
"318 508 CURVE SMOOTH",
"438 508 OFFCURVE",
"500 426 OFFCURVE",
"500 272 CURVE",
"500 119 OFFCURVE",
"438 37 OFFCURVE",
"318 37 CURVE SMOOTH",
"243 37 OFFCURVE",
"177 83 OFFCURVE",
"126 139 CURVE",
"126 85 LINE",
"176 30 OFFCURVE",
"247 -17 OFFCURVE",
"318 -17 CURVE SMOOTH",
"459 -17 OFFCURVE",
"556 78 OFFCURVE",
"556 272 CURVE"
);
}
);
width = 623;
}
);
unicode = 0062;
},
{
glyphname = c;
lastChange = "2014-11-06 12:59:11 +0000";
layers = (
{
anchors = (
{
name = accent;
position = "{306, 546}";
},
{
name = bottomaccent;
position = "{305, 0}";
}
);
layerId = "BE6E37CB-569E-4B40-A59A-BD6EE6EB60D7";
name = Light;
paths = (
{
closed = 1;
nodes = (
"67 102 OFFCURVE",
"156 -16 OFFCURVE",
"325 -17 CURVE SMOOTH",
"388 -17 OFFCURVE",
"450 -1 OFFCURVE",
"508 28 CURVE",
"488 78 LINE",
"435 54 OFFCURVE",
"380 37 OFFCURVE",
"325 37 CURVE SMOOTH",
"176 38 OFFCURVE",
"123 144 OFFCURVE",
"123 275 CURVE",
"123 403 OFFCURVE",
"175.528 507.115 OFFCURVE",
"325 508 CURVE",
"374 508 OFFCURVE",
"414 501 OFFCURVE",
"464 477 CURVE",
"464 535 LINE",
"419 553 OFFCURVE",
"383 562 OFFCURVE",
"325 562 CURVE",
"155.836 561.273 OFFCURVE",
"67 444 OFFCURVE",
"67 274 CURVE"
);
}
);
width = 546;
}
);
unicode = 0063;
},
{
glyphname = d;
lastChange = "2014-11-06 12:59:16 +0000";
layers = (
{
anchors = (
{
name = accent;
position = "{305, 546}";
}
);
layerId = "BE6E37CB-569E-4B40-A59A-BD6EE6EB60D7";
name = Light;
paths = (
{
closed = 1;
nodes = (
"469 0 LINE",
"523 0 LINE",
"523 846 LINE",
"469 846 LINE"
);
},
{
closed = 1;
nodes = (
"67 78 OFFCURVE",
"164.452 -17 OFFCURVE",
"305 -17 CURVE SMOOTH",
"376 -17 OFFCURVE",
"447 30 OFFCURVE",
"497 85 CURVE",
"497 139 LINE",
"446 83 OFFCURVE",
"380 37 OFFCURVE",
"305 37 CURVE SMOOTH",
"184.812 37 OFFCURVE",
"123 119 OFFCURVE",
"123 273 CURVE",
"123 426 OFFCURVE",
"184.812 508 OFFCURVE",
"305 508 CURVE SMOOTH",
"380 508 OFFCURVE",
"446 462 OFFCURVE",
"497 406 CURVE",
"497 460 LINE",
"447 515 OFFCURVE",
"376 562 OFFCURVE",
"305 562 CURVE SMOOTH",
"164.452 562 OFFCURVE",
"67 467 OFFCURVE",
"67 273 CURVE"
);
}
);
width = 623;
}
);
unicode = 0064;
},
{
glyphname = eth;
lastChange = "2014-11-06 12:59:20 +0000";
layers = (
{
layerId = "BE6E37CB-569E-4B40-A59A-BD6EE6EB60D7";
name = Light;
paths = (
{
closed = 1;
nodes = (
"468 -17 OFFCURVE",
"550 120 OFFCURVE",
"550 313 CURVE SMOOTH",
"550 531 OFFCURVE",
"442 759 OFFCURVE",
"258 862 CURVE",
"227 823 LINE",
"401 727 OFFCURVE",
"496 507 OFFCURVE",
"494 313 CURVE SMOOTH",
"492 133 OFFCURVE",
"423 37 OFFCURVE",
"309 37 CURVE SMOOTH",
"204 37 OFFCURVE",
"123 95 OFFCURVE",
"123 272 CURVE SMOOTH",
"123 465 OFFCURVE",
"219 508 OFFCURVE",
"308 508 CURVE SMOOTH",
"388 508 OFFCURVE",
"455 451 OFFCURVE",
"497 406 CURVE",
"497 460 LINE",
"445 518 OFFCURVE",
"372 562 OFFCURVE",
"308 562 CURVE SMOOTH",
"179 562 OFFCURVE",
"67 485 OFFCURVE",
"67 272 CURVE SMOOTH",
"67 80 OFFCURVE",
"163 -17 OFFCURVE",
"309 -17 CURVE SMOOTH"
);
},
{
closed = 1;
nodes = (
"437 847 LINE",
"402 874 LINE",
"204 689 LINE",
"237 664 LINE"
);
}
);
width = 617;
}
);
unicode = 00F0;
},
{
glyphname = dcroat;
lastChange = "2014-11-04 14:54:36 +0000";
layers = (
{
components = (
{
name = d;
transform = "{1, 0, 0, 1, 0, 0}";
}
);
layerId = "BE6E37CB-569E-4B40-A59A-BD6EE6EB60D7";
name = Light;
paths = (
{
closed = 1;
nodes = (
"285 666 LINE",
"586 666 LINE",
"586 714 LINE",
"285 714 LINE"
);
}
);
width = 623;
}
);
unicode = 0111;
},
{
glyphname = e;
lastChange = "2014-11-06 12:59:25 +0000";
layers = (
{
anchors = (
{
name = accent;
position = "{305, 546}";
}
);
layerId = "BE6E37CB-569E-4B40-A59A-BD6EE6EB60D7";
name = Light;
paths = (
{
closed = 1;
nodes = (
"176 37 OFFCURVE",
"123 145 OFFCURVE",
"123 275 CURVE SMOOTH",
"123 434 OFFCURVE",
"195 508 OFFCURVE",
"305 508 CURVE SMOOTH",
"416 508 OFFCURVE",
"466 446 OFFCURVE",
"466 310 CURVE",
"466 289 LINE",
"522 289 LINE",
"522 310 LINE",
"521 475 OFFCURVE",
"437 562 OFFCURVE",
"305 562 CURVE SMOOTH",
"173 562 OFFCURVE",
"67 463 OFFCURVE",
"67 274 CURVE SMOOTH",
"67 102 OFFCURVE",
"156 -17 OFFCURVE",
"325 -17 CURVE",
"388 -17 OFFCURVE",
"451 -1 OFFCURVE",
"508 28 CURVE",
"488 78 LINE",
"435 54 OFFCURVE",
"380 37 OFFCURVE",
"325 37 CURVE"
);
},
{
closed = 1;
nodes = (
"108 289 LINE",
"477 289 LINE",
"477 343 LINE",
"108 343 LINE"
);
}
);
width = 572;
}
);
unicode = 0065;
},
{
glyphname = eogonek;
lastChange = "2014-11-03 10:13:25 +0000";
layers = (
{
background = {
paths = (
{
closed = 1;
nodes = (
"439 -223 OFFCURVE",
"456 -220 OFFCURVE",
"474 -212 CURVE",
"474 -164 LINE",
"455 -174 OFFCURVE",
"437 -176 OFFCURVE",
"422 -176 CURVE SMOOTH",
"386 -176 OFFCURVE",
"371 -157 OFFCURVE",
"371 -135 CURVE SMOOTH",
"371 -85 OFFCURVE",
"418 -44 OFFCURVE",
"474 0 CURVE",
"414 0 LINE",
"355 -46 OFFCURVE",
"320 -88 OFFCURVE",
"320 -140 CURVE SMOOTH",
"320 -188 OFFCURVE",
"353 -223 OFFCURVE",
"422 -223 CURVE"
);
},
{
closed = 1;
nodes = (
"176 37 OFFCURVE",
"123 145 OFFCURVE",
"123 275 CURVE SMOOTH",
"123 434 OFFCURVE",
"195 508 OFFCURVE",
"305 508 CURVE SMOOTH",
"416 508 OFFCURVE",
"466 446 OFFCURVE",
"466 310 CURVE",
"466 289 LINE",
"522 289 LINE",
"522 310 LINE",
"521 475 OFFCURVE",
"437 562 OFFCURVE",
"305 562 CURVE SMOOTH",
"173 562 OFFCURVE",
"67 463 OFFCURVE",
"67 274 CURVE SMOOTH",
"67 102 OFFCURVE",
"156 -17 OFFCURVE",
"325 -17 CURVE",
"388 -17 OFFCURVE",
"451 -1 OFFCURVE",
"508 28 CURVE",
"488 78 LINE",
"435 54 OFFCURVE",
"380 37 OFFCURVE",
"325 37 CURVE"
);
},
{
closed = 1;
nodes = (
"108 289 LINE",
"477 289 LINE",
"477 343 LINE",
"108 343 LINE"
);
}
);
};
components = (
{
name = e;
transform = "{1, 0, 0, 1, 0, 0}";
}
);
layerId = "BE6E37CB-569E-4B40-A59A-BD6EE6EB60D7";
name = Light;
paths = (
{
closed = 1;
nodes = (
"439 -223 OFFCURVE",
"456 -220 OFFCURVE",
"474 -212 CURVE",
"474 -164 LINE",
"455 -174 OFFCURVE",
"437 -176 OFFCURVE",
"422 -176 CURVE SMOOTH",
"386 -176 OFFCURVE",
"371 -157 OFFCURVE",
"371 -135 CURVE SMOOTH",
"371 -75 OFFCURVE",
"434 -25 OFFCURVE",
"508 28 CURVE",
"409 0 LINE",
"352 -46 OFFCURVE",
"320 -88 OFFCURVE",
"320 -140 CURVE SMOOTH",
"320 -188 OFFCURVE",
"353 -223 OFFCURVE",
"422 -223 CURVE"
);
}
);
width = 572;
}
);
unicode = 0119;
},
{
glyphname = f;
lastChange = "2014-11-06 12:59:31 +0000";
layers = (
{
anchors = (
{
name = accent;
position = "{232, 845}";
}
);
layerId = "BE6E37CB-569E-4B40-A59A-BD6EE6EB60D7";
name = Light;
paths = (
{
closed = 1;
nodes = (
"144 859 OFFCURVE",
"109 833 OFFCURVE",
"109 738 CURVE SMOOTH",
"109 0 LINE",
"163 0 LINE",
"163 732 LINE SMOOTH",
"163 789 OFFCURVE",
"177 805 OFFCURVE",
"227 805 CURVE SMOOTH",
"242 805 OFFCURVE",
"258 804 OFFCURVE",
"273 801 CURVE",
"273 855 LINE",
"258 858 OFFCURVE",
"243 859 OFFCURVE",
"232 859 CURVE SMOOTH"
);
},
{
closed = 1;
nodes = (
"41 492 LINE",
"273 492 LINE",
"273 546 LINE",
"41 546 LINE"
);
}
);
width = 298;
}
);
unicode = 0066;
},
{
glyphname = g;
lastChange = "2014-10-14 15:10:11 +0000";
layers = (
{
anchors = (
{
name = accent;
position = "{305, 546}";
}
);
background = {
paths = (
{
closed = 1;
nodes = (
"67 105 OFFCURVE",
"164 3 OFFCURVE",
"305 3 CURVE SMOOTH",
"376 3 OFFCURVE",
"447 50 OFFCURVE",
"497 105 CURVE",
"497 159 LINE",
"446 103 OFFCURVE",
"380 57 OFFCURVE",
"305 57 CURVE SMOOTH",
"185 57 OFFCURVE",
"123 145 OFFCURVE",
"123 283 CURVE",
"123 419 OFFCURVE",
"184.812 508 OFFCURVE",
"305 508 CURVE SMOOTH",
"380 508 OFFCURVE",
"446 462 OFFCURVE",
"497 406 CURVE",
"497 460 LINE",
"447 515 OFFCURVE",
"376 562 OFFCURVE",
"305 562 CURVE SMOOTH",
"164.452 562 OFFCURVE",
"67 470 OFFCURVE",
"67 283 CURVE"
);
},
{
closed = 1;
nodes = (
"285 -197 LINE",
"230 -197 OFFCURVE",
"175 -180 OFFCURVE",
"122 -156 CURVE",
"102 -206 LINE",
"165 -235 OFFCURVE",
"210 -251 OFFCURVE",
"300 -251 CURVE"
);
},
{
closed = 1;
nodes = (
"495.576 -251 OFFCURVE",
"523 -150 OFFCURVE",
"523 -18 CURVE SMOOTH",
"523 546 LINE",
"469 546 LINE",
"469 -8 LINE SMOOTH",
"469 -125.5 OFFCURVE",
"458.649 -197 OFFCURVE",
"285 -197 CURVE SMOOTH",
"232 -197 OFFCURVE",
"175 -181 OFFCURVE",
"121 -155 CURVE",
"121 -215 LINE",
"182 -241 OFFCURVE",
"226 -251 OFFCURVE",
"300 -251 CURVE SMOOTH"
);
}
);
};
layerId = "BE6E37CB-569E-4B40-A59A-BD6EE6EB60D7";
name = Light;
paths = (
{
closed = 1;
nodes = (
"495.576 -251 OFFCURVE",
"523 -150 OFFCURVE",
"523 -18 CURVE SMOOTH",
"523 546 LINE",
"469 546 LINE",
"469 -8 LINE SMOOTH",
"469 -125.5 OFFCURVE",
"458.649 -197 OFFCURVE",
"285 -197 CURVE SMOOTH",
"232 -197 OFFCURVE",
"175 -181 OFFCURVE",
"121 -155 CURVE",
"121 -215 LINE",
"182 -241 OFFCURVE",
"226 -251 OFFCURVE",
"300 -251 CURVE SMOOTH"
);
},
{
closed = 1;
nodes = (
"67 105 OFFCURVE",
"164 3 OFFCURVE",
"305 3 CURVE SMOOTH",
"376 3 OFFCURVE",
"447 50 OFFCURVE",
"497 105 CURVE",
"497 159 LINE",
"446 103 OFFCURVE",
"380 57 OFFCURVE",
"305 57 CURVE SMOOTH",
"185 57 OFFCURVE",
"123 145 OFFCURVE",
"123 283 CURVE",
"123 419 OFFCURVE",
"184.812 508 OFFCURVE",
"305 508 CURVE SMOOTH",
"380 508 OFFCURVE",
"446 462 OFFCURVE",
"497 406 CURVE",
"497 460 LINE",
"447 515 OFFCURVE",
"376 562 OFFCURVE",
"305 562 CURVE SMOOTH",
"164.452 562 OFFCURVE",
"67 470 OFFCURVE",
"67 283 CURVE"
);
}
);
width = 600;
}
);
unicode = 0067;
},
{
glyphname = h;
lastChange = "2014-11-06 12:59:38 +0000";
layers = (
{
anchors = (
{
name = accent;
position = "{328, 546}";
}
);
layerId = "BE6E37CB-569E-4B40-A59A-BD6EE6EB60D7";
name = Light;
paths = (
{
closed = 1;
nodes = (
"253 558 OFFCURVE",
"176 509 OFFCURVE",
"126 451 CURVE",
"126 397 LINE",
"177 456 OFFCURVE",
"249 504 OFFCURVE",
"328 504 CURVE SMOOTH",
"430 504 OFFCURVE",
"463 458 OFFCURVE",
"463 330 CURVE SMOOTH",
"463 0 LINE",
"517 0 LINE",
"517 330 LINE SMOOTH",
"517 499 OFFCURVE",
"454 558 OFFCURVE",
"328 558 CURVE SMOOTH"
);
},
{
closed = 1;
nodes = (
"100 846 LINE",
"100 0 LINE",
"154 0 LINE",
"154 846 LINE"
);
}
);
width = 612;
}
);
unicode = 0068;
},
{
glyphname = hbar;
lastChange = "2014-11-04 12:04:57 +0000";
layers = (
{
components = (
{
name = h;
transform = "{1, 0, 0, 1, 0, 0}";
}
);
layerId = "BE6E37CB-569E-4B40-A59A-BD6EE6EB60D7";
name = Light;
paths = (
{
closed = 1;
nodes = (
"37 666 LINE",
"338 666 LINE",
"338 714 LINE",
"37 714 LINE"
);
}
);
width = 612;
}
);
unicode = 0127;
},
{
glyphname = i;
lastChange = "2014-10-14 09:31:17 +0000";
layers = (
{
background = {
paths = (
{
closed = 1;
nodes = (
"100 546 LINE",
"100 0 LINE",
"154 0 LINE",
"154 546 LINE"
);
},
{
closed = 1;
nodes = (
"100 788 LINE",
"100 637 LINE",
"154 637 LINE",
"154 788 LINE"
);
}
);
};
layerId = "BE6E37CB-569E-4B40-A59A-BD6EE6EB60D7";
name = Light;
paths = (
{
closed = 1;
nodes = (
"100 546 LINE",
"100 0 LINE",
"154 0 LINE",
"154 546 LINE"
);
},
{
closed = 1;
nodes = (
"100 808 LINE",
"100 657 LINE",
"154 657 LINE",
"154 808 LINE"
);
}
);
width = 254;
}
);
unicode = 0069;
},
{
glyphname = idotless;
lastChange = "2014-10-14 15:11:35 +0000";
layers = (
{
anchors = (
{
name = accent;
position = "{127, 546}";
}
);
layerId = "BE6E37CB-569E-4B40-A59A-BD6EE6EB60D7";
name = Light;
paths = (
{
closed = 1;
nodes = (
"100 546 LINE",
"100 0 LINE",
"154 0 LINE",
"154 546 LINE"
);
}
);
width = 254;
}
);
unicode = 0131;
},
{
glyphname = iogonek;
lastChange = "2014-11-03 10:14:02 +0000";
layers = (
{
components = (
{
name = idotless;
transform = "{1, 0, 0, 1, 0, 0}";
},
{
name = dotaccent;
transform = "{1, 0, 0, 1, -199, 0}";
}
);
layerId = "BE6E37CB-569E-4B40-A59A-BD6EE6EB60D7";
name = Light;
paths = (
{
closed = 1;
nodes = (
"119 -223 OFFCURVE",
"136 -220 OFFCURVE",
"154 -212 CURVE",
"154 -164 LINE",
"135 -174 OFFCURVE",
"117 -176 OFFCURVE",
"102 -176 CURVE SMOOTH",
"67 -176 OFFCURVE",
"53 -157 OFFCURVE",
"53 -135 CURVE SMOOTH",
"53 -85 OFFCURVE",
"99 -44 OFFCURVE",
"154 0 CURVE",
"154 10 LINE",
"100 10 LINE",
"100 0 LINE",
"38 -46 OFFCURVE",
"2 -88 OFFCURVE",
"2 -140 CURVE SMOOTH",
"2 -188 OFFCURVE",
"34 -223 OFFCURVE",
"102 -223 CURVE"
);
}
);
width = 254;
}
);
unicode = 012F;
},
{
glyphname = j;
lastChange = "2014-10-14 09:31:28 +0000";
layers = (
{
background = {
paths = (
{
closed = 1;
nodes = (
"128 -251 OFFCURVE",
"154 -217 OFFCURVE",
"154 -90 CURVE SMOOTH",
"154 546 LINE",
"100 546 LINE",
"100 -84 LINE SMOOTH",
"100 -178 OFFCURVE",
"86 -197 OFFCURVE",
"36 -197 CURVE SMOOTH",
"21 -197 OFFCURVE",
"5 -196 OFFCURVE",
"-10 -193 CURVE",
"-10 -247 LINE",
"5 -250 OFFCURVE",
"20 -251 OFFCURVE",
"31 -251 CURVE SMOOTH"
);
},
{
closed = 1;
nodes = (
"100 798 LINE",
"100 647 LINE",
"154 647 LINE",
"154 798 LINE"
);
}
);
};
layerId = "BE6E37CB-569E-4B40-A59A-BD6EE6EB60D7";
name = Light;
paths = (
{
closed = 1;
nodes = (
"128 -251 OFFCURVE",
"154 -217 OFFCURVE",
"154 -90 CURVE SMOOTH",
"154 546 LINE",
"100 546 LINE",
"100 -84 LINE SMOOTH",
"100 -178 OFFCURVE",
"86 -197 OFFCURVE",
"36 -197 CURVE SMOOTH",
"21 -197 OFFCURVE",
"5 -196 OFFCURVE",
"-10 -193 CURVE",
"-10 -247 LINE",
"5 -250 OFFCURVE",
"20 -251 OFFCURVE",
"31 -251 CURVE SMOOTH"
);
},
{
closed = 1;
nodes = (
"100 808 LINE",
"100 657 LINE",
"154 657 LINE",
"154 808 LINE"
);
}
);
width = 254;
}
);
unicode = 006A;
},
{
glyphname = jdotless;
lastChange = "2014-10-14 15:11:49 +0000";
layers = (
{
anchors = (
{
name = accent;
position = "{127, 546}";
}
);
layerId = "BE6E37CB-569E-4B40-A59A-BD6EE6EB60D7";
name = Light;
paths = (
{
closed = 1;
nodes = (
"128 -251 OFFCURVE",
"154 -217 OFFCURVE",
"154 -90 CURVE SMOOTH",
"154 546 LINE",
"100 546 LINE",
"100 -84 LINE SMOOTH",
"100 -178 OFFCURVE",
"86 -197 OFFCURVE",
"36 -197 CURVE SMOOTH",
"21 -197 OFFCURVE",
"5 -196 OFFCURVE",
"-10 -193 CURVE",
"-10 -247 LINE",
"5 -250 OFFCURVE",
"20 -251 OFFCURVE",
"31 -251 CURVE SMOOTH"
);
}
);
width = 254;
}
);
unicode = 0237;
},
{
glyphname = k;
lastChange = "2014-10-25 11:47:48 +0000";
layers = (
{
anchors = (
{
name = accent;
position = "{127, 846}";
},
{
name = bottomaccent;
position = "{283, 0}";
}
);
background = {
paths = (
{
closed = 1;
nodes = (
"-75 664 LINE",
"449 0 LINE",
"491 33 LINE",
"-33 698 LINE"
);
},
{
closed = 1;
nodes = (
"443 508 LINE",
"405 546 LINE",
"-191 -54 LINE",
"-153 -93 LINE"
);
}
);
};
layerId = "BE6E37CB-569E-4B40-A59A-BD6EE6EB60D7";
name = Light;
paths = (
{
closed = 1;
nodes = (
"477 546 LINE",
"405 546 LINE",
"146 285 LINE",
"146 213 LINE"
);
},
{
closed = 1;
nodes = (
"100 846 LINE",
"100 0 LINE",
"154 0 LINE",
"154 846 LINE"
);
},
{
closed = 1;
nodes = (
"210 303 LINE",
"449 0 LINE",
"517 0 LINE",
"249 340 LINE"
);
}
);
width = 547;
}
);
unicode = 006B;
},
{
glyphname = l;
lastChange = "2014-10-25 11:47:57 +0000";
layers = (
{
anchors = (
{
name = accent;
position = "{127, 846}";
},
{
name = bottomaccent;
position = "{197, 0}";
}
);
background = {
paths = (
{
closed = 1;
nodes = (
"233 -13 OFFCURVE",
"249 -12 OFFCURVE",
"264 -9 CURVE",
"264 45 LINE",
"249 42 OFFCURVE",
"233 41 OFFCURVE",
"218 41 CURVE SMOOTH",
"168 41 OFFCURVE",
"154 57 OFFCURVE",
"154 114 CURVE SMOOTH",
"154 846 LINE",
"100 846 LINE",
"100 114 LINE SMOOTH",
"100 19 OFFCURVE",
"124 -13 OFFCURVE",
"218 -13 CURVE SMOOTH"
);
}
);
};
layerId = "BE6E37CB-569E-4B40-A59A-BD6EE6EB60D7";
name = Light;
paths = (
{
closed = 1;
nodes = (
"234 -13 OFFCURVE",
"249 -12 OFFCURVE",
"264 -9 CURVE",
"264 45 LINE",
"249 42 OFFCURVE",
"233 41 OFFCURVE",
"218 41 CURVE SMOOTH",
"168 41 OFFCURVE",
"154 57 OFFCURVE",
"154 114 CURVE SMOOTH",
"154 846 LINE",
"100 846 LINE",
"100 108 LINE SMOOTH",
"100 13 OFFCURVE",
"135 -13 OFFCURVE",
"223 -13 CURVE SMOOTH"
);
}
);
width = 289;
}
);
unicode = 006C;
},
{
glyphname = lslash;
lastChange = "2014-11-06 12:59:53 +0000";
layers = (
{
components = (
{
name = l;
transform = "{1, 0, 0, 1, 0, 0}";
}
);
layerId = "BE6E37CB-569E-4B40-A59A-BD6EE6EB60D7";
name = Light;
paths = (
{
closed = 1;
nodes = (
"11 357 LINE",
"260 456 LINE",
"260 506 LINE",
"11 407 LINE"
);
}
);
width = 289;
}
);
unicode = 0142;
},
{
glyphname = m;
lastChange = "2014-11-06 12:59:59 +0000";
layers = (
{
anchors = (
{
name = accent;
position = "{490, 546}";
}
);
layerId = "BE6E37CB-569E-4B40-A59A-BD6EE6EB60D7";
name = Light;
paths = (
{
closed = 1;
nodes = (
"253 558 OFFCURVE",
"176 509 OFFCURVE",
"126 451 CURVE",
"126 397 LINE",
"177 456 OFFCURVE",
"249 504 OFFCURVE",
"328 504 CURVE SMOOTH",
"430 504 OFFCURVE",
"463 458 OFFCURVE",
"463 330 CURVE SMOOTH",
"463 0 LINE",
"517 0 LINE",
"517 330 LINE SMOOTH",
"517 499 OFFCURVE",
"454 558 OFFCURVE",
"328 558 CURVE SMOOTH"
);
},
{
closed = 1;
nodes = (
"100 546 LINE",
"100 0 LINE",
"154 0 LINE",
"154 546 LINE"
);
},
{
closed = 1;
nodes = (
"616 558 OFFCURVE",
"539 509 OFFCURVE",
"489 451 CURVE",
"489 387 LINE",
"540 452 OFFCURVE",
"612 504 OFFCURVE",
"691 504 CURVE SMOOTH",
"793 504 OFFCURVE",
"826 458 OFFCURVE",
"826 330 CURVE SMOOTH",
"826 0 LINE",
"880 0 LINE",
"880 330 LINE SMOOTH",
"880 499 OFFCURVE",
"817 558 OFFCURVE",
"691 558 CURVE SMOOTH"
);
}
);
width = 950;
}
);
unicode = 006D;
},
{
glyphname = n;
lastChange = "2014-11-06 13:00:06 +0000";
layers = (
{
anchors = (
{
name = accent;
position = "{308, 546}";
},
{
name = bottomaccent;
position = "{313, 0}";
}
);
layerId = "BE6E37CB-569E-4B40-A59A-BD6EE6EB60D7";
name = Light;
paths = (
{
closed = 1;
nodes = (
"253 558 OFFCURVE",
"176.376 508.794 OFFCURVE",
"126 451 CURVE",
"126 397 LINE",
"177.327 455.888 OFFCURVE",
"249 504 OFFCURVE",
"328 504 CURVE SMOOTH",
"430 504 OFFCURVE",
"463 458 OFFCURVE",
"463 330 CURVE SMOOTH",
"463 0 LINE",
"517 0 LINE",
"517 330 LINE SMOOTH",
"517 499 OFFCURVE",
"454 558 OFFCURVE",
"328 558 CURVE SMOOTH"
);
},
{
closed = 1;
nodes = (
"100 546 LINE",
"100 0 LINE",
"154 0 LINE",
"154 546 LINE"
);
}
);
width = 612;
}
);
unicode = 006E;
},
{
glyphname = eng;
lastChange = "2014-11-04 14:57:18 +0000";
layers = (
{
components = (
{
name = n;
transform = "{1, 0, 0, 1, 0, 0}";
}
);
layerId = "BE6E37CB-569E-4B40-A59A-BD6EE6EB60D7";
name = Light;
paths = (
{
closed = 1;
nodes = (
"491 -251 OFFCURVE",
"517 -217 OFFCURVE",
"517 -90 CURVE SMOOTH",
"517 146 LINE",
"463 146 LINE",
"463 -84 LINE SMOOTH",
"463 -178 OFFCURVE",
"449 -197 OFFCURVE",
"399 -197 CURVE SMOOTH",
"384 -197 OFFCURVE",
"368 -196 OFFCURVE",
"353 -193 CURVE",
"353 -247 LINE",
"368 -250 OFFCURVE",
"383 -251 OFFCURVE",
"394 -251 CURVE SMOOTH"
);
}
);
width = 600;
}
);
unicode = 014B;
},
{
glyphname = o;
lastChange = "2014-11-06 13:00:13 +0000";
layers = (
{
anchors = (
{
name = accent;
position = "{325, 546}";
},
{
name = bottomaccent;
position = "{325, 0}";
}
);
layerId = "BE6E37CB-569E-4B40-A59A-BD6EE6EB60D7";
name = Light;
paths = (
{
closed = 1;
nodes = (
"153 562 OFFCURVE",
"67 433 OFFCURVE",
"67 273 CURVE SMOOTH",
"67 112 OFFCURVE",
"153 -17 OFFCURVE",
"325 -17 CURVE SMOOTH",
"497 -17 OFFCURVE",
"582 112 OFFCURVE",
"582 273 CURVE SMOOTH",
"582 433 OFFCURVE",
"497 562 OFFCURVE",
"325 562 CURVE SMOOTH"
);
},
{
closed = 1;
nodes = (
"456 508 OFFCURVE",
"526 403 OFFCURVE",
"526 273 CURVE SMOOTH",
"526 143 OFFCURVE",
"456 37 OFFCURVE",
"325 37 CURVE SMOOTH",
"193 37 OFFCURVE",
"123 143 OFFCURVE",
"123 273 CURVE SMOOTH",
"123 403 OFFCURVE",
"193 508 OFFCURVE",
"325 508 CURVE SMOOTH"
);
}
);
width = 649;
}
);
unicode = 006F;
},
{
color = 0;
glyphname = oslash;
lastChange = "2014-11-05 15:34:05 +0000";
layers = (
{
components = (
{
name = o;
transform = "{1, 0, 0, 1, 0, 0}";
}
);
layerId = "BE6E37CB-569E-4B40-A59A-BD6EE6EB60D7";
name = Light;
paths = (
{
closed = 1;
nodes = (
"63 0 LINE",
"621 511 LINE",
"587 546 LINE",
"28 34 LINE"
);
}
);
width = 649;
}
);
unicode = 00F8;
},
{
glyphname = oe;
lastChange = "2014-11-04 14:48:54 +0000";
layers = (
{
layerId = "BE6E37CB-569E-4B40-A59A-BD6EE6EB60D7";
name = Light;
paths = (
{
closed = 1;
nodes = (
"153 562 OFFCURVE",
"67 433 OFFCURVE",
"67 273 CURVE SMOOTH",
"67 112 OFFCURVE",
"153 -17 OFFCURVE",
"325 -17 CURVE SMOOTH",
"497 -17 OFFCURVE",
"582 112 OFFCURVE",
"582 273 CURVE SMOOTH",
"582 433 OFFCURVE",
"497 562 OFFCURVE",
"325 562 CURVE SMOOTH"
);
},
{
closed = 1;
nodes = (
"456 508 OFFCURVE",
"526 403 OFFCURVE",
"526 273 CURVE SMOOTH",
"526 143 OFFCURVE",
"456 37 OFFCURVE",
"325 37 CURVE SMOOTH",
"193 37 OFFCURVE",
"123 143 OFFCURVE",
"123 273 CURVE SMOOTH",
"123 403 OFFCURVE",
"193 508 OFFCURVE",
"325 508 CURVE SMOOTH"
);
},
{
closed = 1;
nodes = (
"635 37 OFFCURVE",
"582 145 OFFCURVE",
"582 275 CURVE SMOOTH",
"582 434 OFFCURVE",
"654 508 OFFCURVE",
"764 508 CURVE SMOOTH",
"875 508 OFFCURVE",
"925 446 OFFCURVE",
"925 310 CURVE",
"925 289 LINE",
"981 289 LINE",
"981 310 LINE",
"980 475 OFFCURVE",
"896 562 OFFCURVE",
"764 562 CURVE SMOOTH",
"632 562 OFFCURVE",
"526 463 OFFCURVE",
"526 274 CURVE SMOOTH",
"526 102 OFFCURVE",
"615 -17 OFFCURVE",
"784 -17 CURVE",
"847 -17 OFFCURVE",
"910 -1 OFFCURVE",
"967 28 CURVE",
"947 78 LINE",
"894 54 OFFCURVE",
"839 37 OFFCURVE",
"784 37 CURVE"
);
},
{
closed = 1;
nodes = (
"567 289 LINE",
"936 289 LINE",
"936 343 LINE",
"567 343 LINE"
);
}
);
width = 1031;
}
);
unicode = 0153;
},
{
glyphname = p;
lastChange = "2014-11-06 13:00:20 +0000";
layers = (
{
anchors = (
{
name = accent;
position = "{318, 546}";
}
);
layerId = "BE6E37CB-569E-4B40-A59A-BD6EE6EB60D7";
name = Light;
paths = (
{
closed = 1;
nodes = (
"154 546 LINE",
"100 546 LINE",
"100 -234 LINE",
"154 -234 LINE"
);
},
{
closed = 1;
nodes = (
"556 467 OFFCURVE",
"459 562 OFFCURVE",
"318 562 CURVE SMOOTH",
"247 562 OFFCURVE",
"176 515 OFFCURVE",
"126 460 CURVE",
"126 406 LINE",
"177 462 OFFCURVE",
"243 508 OFFCURVE",
"318 508 CURVE SMOOTH",
"438 508 OFFCURVE",
"500 426 OFFCURVE",
"500 272 CURVE",
"500 119 OFFCURVE",
"438 37 OFFCURVE",
"318 37 CURVE SMOOTH",
"243 37 OFFCURVE",
"177 83 OFFCURVE",
"126 139 CURVE",
"126 85 LINE",
"176 30 OFFCURVE",
"247 -17 OFFCURVE",
"318 -17 CURVE SMOOTH",
"459 -17 OFFCURVE",
"556 78 OFFCURVE",
"556 272 CURVE"
);
}
);
width = 623;
}
);
unicode = 0070;
},
{
glyphname = thorn;
lastChange = "2014-10-25 12:13:10 +0000";
layers = (
{
background = {
paths = (
{
closed = 1;
nodes = (
"154 546 LINE",
"100 546 LINE",
"100 -234 LINE",
"154 -234 LINE"
);
},
{
closed = 1;
nodes = (
"556 467 OFFCURVE",
"459 562 OFFCURVE",
"318 562 CURVE SMOOTH",
"247 562 OFFCURVE",
"176 515 OFFCURVE",
"126 460 CURVE",
"126 406 LINE",
"177 462 OFFCURVE",
"243 508 OFFCURVE",
"318 508 CURVE SMOOTH",
"438 508 OFFCURVE",
"500 426 OFFCURVE",
"500 272 CURVE",
"500 119 OFFCURVE",
"438 37 OFFCURVE",
"318 37 CURVE SMOOTH",
"243 37 OFFCURVE",
"177 83 OFFCURVE",
"126 139 CURVE",
"126 85 LINE",
"176 30 OFFCURVE",
"247 -17 OFFCURVE",
"318 -17 CURVE SMOOTH",
"459 -17 OFFCURVE",
"556 78 OFFCURVE",
"556 272 CURVE"
);
}
);
};
layerId = "BE6E37CB-569E-4B40-A59A-BD6EE6EB60D7";
name = Light;
paths = (
{
closed = 1;
nodes = (
"154 846 LINE",
"100 846 LINE",
"100 -234 LINE",
"154 -234 LINE"
);
},
{
closed = 1;
nodes = (
"556 467 OFFCURVE",
"459 562 OFFCURVE",
"318 562 CURVE SMOOTH",
"247 562 OFFCURVE",
"176 515 OFFCURVE",
"126 460 CURVE",
"126 406 LINE",
"177 462 OFFCURVE",
"243 508 OFFCURVE",
"318 508 CURVE SMOOTH",
"438 508 OFFCURVE",
"500 426 OFFCURVE",
"500 272 CURVE",
"500 119 OFFCURVE",
"438 37 OFFCURVE",
"318 37 CURVE SMOOTH",
"243 37 OFFCURVE",
"177 83 OFFCURVE",
"126 139 CURVE",
"126 85 LINE",
"176 30 OFFCURVE",
"247 -17 OFFCURVE",
"318 -17 CURVE SMOOTH",
"459 -17 OFFCURVE",
"556 78 OFFCURVE",
"556 272 CURVE"
);
}
);
width = 623;
}
);
unicode = 00FE;
},
{
glyphname = q;
lastChange = "2014-11-06 13:00:26 +0000";
layers = (
{
anchors = (
{
name = accent;
position = "{305, 546}";
}
);
layerId = "BE6E37CB-569E-4B40-A59A-BD6EE6EB60D7";
name = Light;
paths = (
{
closed = 1;
nodes = (
"67 78 OFFCURVE",
"164.452 -17 OFFCURVE",
"305 -17 CURVE SMOOTH",
"376 -17 OFFCURVE",
"447 30 OFFCURVE",
"497 85 CURVE",
"497 139 LINE",
"446 83 OFFCURVE",
"380 37 OFFCURVE",
"305 37 CURVE SMOOTH",
"184.812 37 OFFCURVE",
"123 119 OFFCURVE",
"123 273 CURVE",
"123 426 OFFCURVE",
"184.812 508 OFFCURVE",
"305 508 CURVE SMOOTH",
"380 508 OFFCURVE",
"446 462 OFFCURVE",
"497 406 CURVE",
"497 460 LINE",
"447 515 OFFCURVE",
"376 562 OFFCURVE",
"305 562 CURVE SMOOTH",
"164.452 562 OFFCURVE",
"67 467 OFFCURVE",
"67 273 CURVE"
);
},
{
closed = 1;
nodes = (
"523 546 LINE",
"469 546 LINE",
"469 -234 LINE",
"523 -234 LINE"
);
}
);
width = 623;
}
);
unicode = 0071;
},
{
glyphname = r;
lastChange = "2014-11-06 13:00:30 +0000";
layers = (
{
anchors = (
{
name = accent;
position = "{235, 546}";
},
{
name = bottomaccent;
position = "{127, 0}";
}
);
layerId = "BE6E37CB-569E-4B40-A59A-BD6EE6EB60D7";
name = Light;
paths = (
{
closed = 1;
nodes = (
"253 558 OFFCURVE",
"176 509 OFFCURVE",
"126 451 CURVE",
"126 397 LINE",
"177 456 OFFCURVE",
"249 504 OFFCURVE",
"328 504 CURVE",
"351 504 LINE",
"351 558 LINE",
"328 558 LINE"
);
},
{
closed = 1;
nodes = (
"100 546 LINE",
"100 0 LINE",
"154 0 LINE",
"154 546 LINE"
);
}
);
width = 381;
}
);
unicode = 0072;
},
{
glyphname = s;
lastChange = "2014-11-06 13:00:39 +0000";
layers = (
{
anchors = (
{
name = accent;
position = "{242, 546}";
},
{
name = bottomaccent;
position = "{245, 0}";
}
);
guideLines = (
{
angle = 90;
position = "{72, 191}";
},
{
angle = 90;
position = "{426, 191}";
}
);
layerId = "BE6E37CB-569E-4B40-A59A-BD6EE6EB60D7";
name = Light;
paths = (
{
closed = 1;
nodes = (
"426 252 OFFCURVE",
"357 278 OFFCURVE",
"281.279 299.309 CURVE SMOOTH",
"230.825 313.182 LINE SMOOTH",
"174.439 328.686 OFFCURVE",
"128 351.403 OFFCURVE",
"128 417 CURVE",
"128 460.855 OFFCURVE",
"156 508 OFFCURVE",
"242 508 CURVE SMOOTH",
"320 508 OFFCURVE",
"360 487 OFFCURVE",
"400 468 CURVE",
"400 526 LINE",
"354 548 OFFCURVE",
"311 562 OFFCURVE",
"242 562 CURVE SMOOTH",
"128 562 OFFCURVE",
"72 501.525 OFFCURVE",
"72 418 CURVE SMOOTH",
"72 308.442 OFFCURVE",
"150 277 OFFCURVE",
"215 259 CURVE SMOOTH",
"265 245 LINE SMOOTH",
"330 227 OFFCURVE",
"370 207.063 OFFCURVE",
"370 141 CURVE",
"370 84.9109 OFFCURVE",
"339.478 37 OFFCURVE",
"245 37 CURVE SMOOTH",
"180 37 OFFCURVE",
"118 52.0664 OFFCURVE",
"56 87 CURVE",
"56 24 LINE",
"118 -4.9798 OFFCURVE",
"171 -17 OFFCURVE",
"245 -17 CURVE SMOOTH",
"352.281 -17 OFFCURVE",
"426 39.9245 OFFCURVE",
"426 140 CURVE"
);
}
);
width = 488;
}
);
unicode = 0073;
},
{
glyphname = germandbls;
lastChange = "2014-10-14 15:22:09 +0000";
layers = (
{
background = {
paths = (
{
closed = 1;
nodes = (
"146 859 OFFCURVE",
"100 825 OFFCURVE",
"100 698 CURVE SMOOTH",
"100 0 LINE",
"154 0 LINE",
"154 698 LINE SMOOTH",
"154 783 OFFCURVE",
"176 805 OFFCURVE",
"258 805 CURVE SMOOTH",
"337 805 OFFCURVE",
"362 779 OFFCURVE",
"362 698 CURVE SMOOTH",
"362 558 OFFCURVE",
"251 531 OFFCURVE",
"251 410 CURVE SMOOTH",
"251 232 OFFCURVE",
"490 282 OFFCURVE",
"492 141 CURVE",
"490 72 OFFCURVE",
"447 37 OFFCURVE",
"366 37 CURVE SMOOTH",
"332 37 OFFCURVE",
"302 39 OFFCURVE",
"247 56 CURVE",
"247 -2 LINE",
"291 -15 OFFCURVE",
"326 -17 OFFCURVE",
"366 -17 CURVE SMOOTH",
"472 -17 OFFCURVE",
"543 33 OFFCURVE",
"548 140 CURVE",
"546 320 OFFCURVE",
"307 291 OFFCURVE",
"307 409 CURVE SMOOTH",
"307 499 OFFCURVE",
"416 535 OFFCURVE",
"416 698 CURVE SMOOTH",
"416 809 OFFCURVE",
"368 859 OFFCURVE",
"263 859 CURVE SMOOTH"
);
}
);
};
layerId = "BE6E37CB-569E-4B40-A59A-BD6EE6EB60D7";
name = Light;
paths = (
{
closed = 1;
nodes = (
"156 859 OFFCURVE",
"100 820 OFFCURVE",
"100 698 CURVE SMOOTH",
"100 0 LINE",
"154 0 LINE",
"154 698 LINE SMOOTH",
"154 778 OFFCURVE",
"186 805 OFFCURVE",
"258 805 CURVE SMOOTH",
"327 805 OFFCURVE",
"362 774 OFFCURVE",
"362 698 CURVE SMOOTH",
"362 558 OFFCURVE",
"251 531 OFFCURVE",
"251 410 CURVE SMOOTH",
"251 232 OFFCURVE",
"490 282 OFFCURVE",
"492 141 CURVE",
"490 72 OFFCURVE",
"447 37 OFFCURVE",
"366 37 CURVE SMOOTH",
"332 37 OFFCURVE",
"302 42 OFFCURVE",
"247 65 CURVE",
"247 8 LINE",
"291 -11 OFFCURVE",
"326 -17 OFFCURVE",
"366 -17 CURVE SMOOTH",
"472 -17 OFFCURVE",
"543 33 OFFCURVE",
"548 140 CURVE",
"546 320 OFFCURVE",
"307 291 OFFCURVE",
"307 409 CURVE SMOOTH",
"307 499 OFFCURVE",
"416 535 OFFCURVE",
"416 698 CURVE SMOOTH",
"416 804 OFFCURVE",
"358 859 OFFCURVE",
"263 859 CURVE SMOOTH"
);
}
);
width = 595;
}
);
unicode = 00DF;
},
{
glyphname = t;
lastChange = "2014-11-06 13:00:46 +0000";
layers = (
{
anchors = (
{
name = accent;
position = "{136, 736}";
},
{
name = bottomaccent;
position = "{187, 0}";
}
);
layerId = "BE6E37CB-569E-4B40-A59A-BD6EE6EB60D7";
name = Light;
paths = (
{
closed = 1;
nodes = (
"253 -13 OFFCURVE",
"271 -10 OFFCURVE",
"293 -5 CURVE",
"293 49 LINE",
"270 44 OFFCURVE",
"253 41 OFFCURVE",
"227 41 CURVE SMOOTH",
"177 41 OFFCURVE",
"163 57 OFFCURVE",
"163 114 CURVE SMOOTH",
"163 736 LINE",
"109 736 LINE",
"109 114 LINE SMOOTH",
"109 19 OFFCURVE",
"133 -13 OFFCURVE",
"227 -13 CURVE SMOOTH"
);
},
{
closed = 1;
nodes = (
"41 492 LINE",
"291 492 LINE",
"291 546 LINE",
"41 546 LINE"
);
}
);
width = 339;
}
);
unicode = 0074;
},
{
glyphname = tbar;
lastChange = "2014-11-04 14:58:36 +0000";
layers = (
{
components = (
{
name = t;
transform = "{1, 0, 0, 1, 0, 0}";
}
);
layerId = "BE6E37CB-569E-4B40-A59A-BD6EE6EB60D7";
name = Light;
paths = (
{
closed = 1;
nodes = (
"41 253 LINE",
"291 253 LINE",
"291 301 LINE",
"41 301 LINE"
);
}
);
width = 339;
}
);
unicode = 0167;
},
{
glyphname = u;
lastChange = "2014-10-25 11:49:06 +0000";
layers = (
{
anchors = (
{
name = accent;
position = "{302, 546}";
},
{
name = bottomaccent;
position = "{485, 0}";
}
);
layerId = "BE6E37CB-569E-4B40-A59A-BD6EE6EB60D7";
name = Light;
paths = (
{
closed = 1;
nodes = (
"359 -12 OFFCURVE",
"436 37 OFFCURVE",
"486 95 CURVE",
"486 149 LINE",
"435 90 OFFCURVE",
"363 42 OFFCURVE",
"284 42 CURVE SMOOTH",
"182 42 OFFCURVE",
"149 88 OFFCURVE",
"149 216 CURVE SMOOTH",
"149 546 LINE",
"95 546 LINE",
"95 216 LINE SMOOTH",
"95 47 OFFCURVE",
"158 -12 OFFCURVE",
"284 -12 CURVE SMOOTH"
);
},
{
closed = 1;
nodes = (
"512 0 LINE",
"512 546 LINE",
"458 546 LINE",
"458 0 LINE"
);
}
);
width = 612;
}
);
unicode = 0075;
},
{
glyphname = uogonek;
lastChange = "2014-11-03 10:14:11 +0000";
layers = (
{
components = (
{
name = u;
transform = "{1, 0, 0, 1, 0, 0}";
}
);
layerId = "BE6E37CB-569E-4B40-A59A-BD6EE6EB60D7";
name = Light;
paths = (
{
closed = 1;
nodes = (
"477 -223 OFFCURVE",
"494 -220 OFFCURVE",
"512 -212 CURVE",
"512 -164 LINE",
"493 -174 OFFCURVE",
"475 -176 OFFCURVE",
"460 -176 CURVE SMOOTH",
"425 -176 OFFCURVE",
"411 -157 OFFCURVE",
"411 -135 CURVE SMOOTH",
"411 -85 OFFCURVE",
"457 -44 OFFCURVE",
"512 0 CURVE",
"512 10 LINE",
"458 10 LINE",
"458 0 LINE",
"396 -46 OFFCURVE",
"360 -88 OFFCURVE",
"360 -140 CURVE SMOOTH",
"360 -188 OFFCURVE",
"392 -223 OFFCURVE",
"460 -223 CURVE"
);
}
);
width = 612;
}
);
unicode = 0173;
},
{
glyphname = v;
lastChange = "2014-10-14 15:14:08 +0000";
layers = (
{
anchors = (
{
name = accent;
position = "{268, 546}";
}
);
background = {
paths = (
{
closed = 1;
nodes = (
"20 546 LINE",
"225 39 LINE",
"275 60 LINE",
"70 566 LINE"
);
}
);
};
layerId = "BE6E37CB-569E-4B40-A59A-BD6EE6EB60D7";
name = Light;
paths = (
{
closed = 1;
nodes = (
"515 546 LINE",
"457 546 LINE",
"263 63 LINE",
"273 63 LINE",
"78 546 LINE",
"20 546 LINE",
"244 -9 LINE",
"292 -9 LINE"
);
}
);
width = 535;
}
);
unicode = 0076;
},
{
glyphname = w;
lastChange = "2014-11-06 13:00:59 +0000";
layers = (
{
anchors = (
{
name = accent;
position = "{406, 546}";
}
);
layerId = "BE6E37CB-569E-4B40-A59A-BD6EE6EB60D7";
name = Light;
paths = (
{
closed = 1;
nodes = (
"435 546 LINE",
"377 546 LINE",
"223 63 LINE",
"233 63 LINE",
"78 546 LINE",
"20 546 LINE",
"204 -9 LINE",
"252 -9 LINE"
);
},
{
closed = 1;
nodes = (
"792 546 LINE",
"734 546 LINE",
"580 63 LINE",
"590 63 LINE",
"435 546 LINE",
"377 546 LINE",
"561 -9 LINE",
"609 -9 LINE"
);
}
);
width = 812;
}
);
unicode = 0077;
},
{
glyphname = x;
lastChange = "2014-11-06 13:01:05 +0000";
layers = (
{
anchors = (
{
name = accent;
position = "{281, 546}";
}
);
guideLines = (
{
angle = 90;
position = "{50, 226}";
},
{
angle = 90;
position = "{511, 225}";
}
);
layerId = "BE6E37CB-569E-4B40-A59A-BD6EE6EB60D7";
name = Light;
paths = (
{
closed = 1;
nodes = (
"277 319 LINE SMOOTH",
"254 302 LINE SMOOTH",
"42 0 LINE SMOOTH",
"110 0 LINE SMOOTH",
"286 255 LINE SMOOTH",
"309 272 LINE SMOOTH",
"509 546 LINE SMOOTH",
"443 546 LINE SMOOTH"
);
},
{
closed = 1;
nodes = (
"52 546 LINE SMOOTH",
"252 272 LINE SMOOTH",
"266 255 LINE SMOOTH",
"450 0 LINE SMOOTH",
"518 0 LINE SMOOTH",
"294 305 LINE SMOOTH",
"284 319 LINE SMOOTH",
"120 546 LINE SMOOTH"
);
}
);
width = 560;
}
);
unicode = 0078;
},
{
glyphname = y;
lastChange = "2014-10-14 15:14:40 +0000";
layers = (
{
anchors = (
{
name = accent;
position = "{268, 546}";
}
);
background = {
paths = (
{
closed = 1;
nodes = (
"515 546 LINE",
"457 546 LINE",
"263 63 LINE",
"273 63 LINE",
"78 546 LINE",
"20 546 LINE",
"244 -9 LINE",
"292 -9 LINE"
);
},
{
closed = 0;
nodes = (
"176 -84 LINE SMOOTH",
"176 -178 OFFCURVE",
"162 -197 OFFCURVE",
"112 -197 CURVE SMOOTH",
"97 -197 OFFCURVE",
"81 -196 OFFCURVE",
"66 -193 CURVE",
"66 -247 LINE",
"81 -250 OFFCURVE",
"96 -251 OFFCURVE",
"107 -251 CURVE SMOOTH",
"204 -251 OFFCURVE",
"230 -217 OFFCURVE",
"230 -90 CURVE SMOOTH"
);
}
);
};
layerId = "BE6E37CB-569E-4B40-A59A-BD6EE6EB60D7";
name = Light;
paths = (
{
closed = 1;
nodes = (
"273 63 LINE",
"78 546 LINE",
"20 546 LINE",
"244 -9 LINE"
);
},
{
closed = 1;
nodes = (
"169 -171 OFFCURVE",
"157 -197 OFFCURVE",
"112 -197 CURVE SMOOTH",
"97 -197 OFFCURVE",
"81 -196 OFFCURVE",
"66 -193 CURVE",
"66 -247 LINE",
"81 -250 OFFCURVE",
"96 -251 OFFCURVE",
"107 -251 CURVE SMOOTH",
"199 -251 OFFCURVE",
"209 -217 OFFCURVE",
"260 -89 CURVE SMOOTH",
"515 546 LINE",
"457 546 LINE",
"204 -84 LINE SMOOTH"
);
}
);
width = 535;
}
);
unicode = 0079;
},
{
glyphname = z;
lastChange = "2014-11-06 13:01:11 +0000";
layers = (
{
anchors = (
{
name = accent;
position = "{248, 546}";
}
);
guideLines = (
{
angle = 90;
position = "{86, 327}";
}
);
layerId = "BE6E37CB-569E-4B40-A59A-BD6EE6EB60D7";
name = Light;
paths = (
{
closed = 1;
nodes = (
"109 52 LINE",
"118 34 LINE",
"435 494 LINE",
"435 546 LINE",
"85 546 LINE",
"85 494 LINE",
"394 494 LINE",
"385 512 LINE",
"67 52 LINE",
"67 0 LINE",
"457 0 LINE",
"457 52 LINE"
);
}
);
width = 517;
}
);
unicode = 007A;
},
{
glyphname = ordfeminine;
lastChange = "2014-11-05 15:35:27 +0000";
layers = (
{
background = {
paths = (
{
closed = 1;
nodes = (
"146 673 LINE",
"146 637 LINE",
"184 637 LINE SMOOTH",
"281 637 OFFCURVE",
"287 585 OFFCURVE",
"287 500 CURVE SMOOTH",
"287 284 LINE",
"325 284 LINE",
"325 507 LINE SMOOTH",
"325 601 OFFCURVE",
"309 673 OFFCURVE",
"195 673 CURVE SMOOTH"
);
},
{
closed = 1;
nodes = (
"275 529 OFFCURVE",
"228 542 OFFCURVE",
"191 542 CURVE SMOOTH",
"106 542 OFFCURVE",
"45 494 OFFCURVE",
"45 407 CURVE SMOOTH",
"45 323 OFFCURVE",
"105 275 OFFCURVE",
"170 275 CURVE SMOOTH",
"219 275 OFFCURVE",
"260 295 OFFCURVE",
"304 345 CURVE",
"304 383 LINE",
"259 334 OFFCURVE",
"211 313 OFFCURVE",
"170 313 CURVE SMOOTH",
"135 313 OFFCURVE",
"85 335 OFFCURVE",
"85 407 CURVE SMOOTH",
"85 483 OFFCURVE",
"142 503 OFFCURVE",
"191 503 CURVE SMOOTH",
"225 503 OFFCURVE",
"267 495 OFFCURVE",
"301 472 CURVE",
"306 506 LINE"
);
}
);
};
layerId = "BE6E37CB-569E-4B40-A59A-BD6EE6EB60D7";
name = Light;
paths = (
{
closed = 1;
nodes = (
"136 674 LINE",
"136 626 LINE",
"182 626 LINE SMOOTH",
"274 626 OFFCURVE",
"280 578 OFFCURVE",
"280 501 CURVE SMOOTH",
"280 284 LINE",
"332 284 LINE",
"332 508 LINE SMOOTH",
"332 602 OFFCURVE",
"314 674 OFFCURVE",
"193 674 CURVE SMOOTH"
);
},
{
closed = 1;
nodes = (
"274 529 OFFCURVE",
"227 542 OFFCURVE",
"190 542 CURVE SMOOTH",
"101 542 OFFCURVE",
"36 494 OFFCURVE",
"36 408 CURVE SMOOTH",
"36 323 OFFCURVE",
"100 275 OFFCURVE",
"168 275 CURVE SMOOTH",
"217 275 OFFCURVE",
"259 296 OFFCURVE",
"303 345 CURVE",
"302 397 LINE",
"258 348 OFFCURVE",
"210 327 OFFCURVE",
"168 327 CURVE SMOOTH",
"137 327 OFFCURVE",
"90 348 OFFCURVE",
"90 408 CURVE SMOOTH",
"90 473 OFFCURVE",
"144 490 OFFCURVE",
"190 490 CURVE SMOOTH",
"224 490 OFFCURVE",
"266 482 OFFCURVE",
"300 459 CURVE",
"305 506 LINE"
);
}
);
width = 397;
}
);
unicode = 00AA;
},
{
glyphname = ordmasculine;
lastChange = "2014-10-23 10:05:17 +0000";
layers = (
{
background = {
paths = (
{
closed = 1;
nodes = (
"136 688 OFFCURVE",
"75 596 OFFCURVE",
"75 482 CURVE SMOOTH",
"75 367 OFFCURVE",
"136 275 OFFCURVE",
"259 275 CURVE SMOOTH",
"382 275 OFFCURVE",
"442 367 OFFCURVE",
"442 482 CURVE SMOOTH",
"442 596 OFFCURVE",
"382 688 OFFCURVE",
"259 688 CURVE SMOOTH"
);
},
{
closed = 1;
nodes = (
"352 650 OFFCURVE",
"402 575 OFFCURVE",
"402 482 CURVE SMOOTH",
"402 389 OFFCURVE",
"352 313 OFFCURVE",
"259 313 CURVE SMOOTH",
"165 313 OFFCURVE",
"115 389 OFFCURVE",
"115 482 CURVE SMOOTH",
"115 575 OFFCURVE",
"165 650 OFFCURVE",
"259 650 CURVE SMOOTH"
);
}
);
};
layerId = "BE6E37CB-569E-4B40-A59A-BD6EE6EB60D7";
name = Light;
paths = (
{
closed = 1;
nodes = (
"136 688 OFFCURVE",
"67 596 OFFCURVE",
"67 482 CURVE SMOOTH",
"67 367 OFFCURVE",
"136 275 OFFCURVE",
"259 275 CURVE SMOOTH",
"382 275 OFFCURVE",
"450 367 OFFCURVE",
"450 482 CURVE SMOOTH",
"450 596 OFFCURVE",
"382 688 OFFCURVE",
"259 688 CURVE SMOOTH"
);
},
{
closed = 1;
nodes = (
"356 634 OFFCURVE",
"394 565 OFFCURVE",
"394 482 CURVE SMOOTH",
"394 399 OFFCURVE",
"356 329 OFFCURVE",
"259 329 CURVE SMOOTH",
"161 329 OFFCURVE",
"123 399 OFFCURVE",
"123 482 CURVE SMOOTH",
"123 565 OFFCURVE",
"161 634 OFFCURVE",
"259 634 CURVE SMOOTH"
);
}
);
width = 517;
}
);
unicode = 00BA;
},
{
glyphname = "a-deva";
lastChange = "2014-10-15 06:48:47 +0000";
layers = (
{
anchors = (
{
name = bottom;
position = "{574, 0}";
},
{
name = top;
position = "{574, 634}";
}
);
background = {
paths = (
{
closed = 1;
nodes = (
"417 634 LINE",
"417 590 LINE",
"548 590 LINE",
"548 0 LINE",
"602 0 LINE",
"602 590 LINE",
"722 590 LINE",
"722 634 LINE"
);
},
{
closed = 1;
nodes = (
"319 363 OFFCURVE",
"357 412 OFFCURVE",
"357 486 CURVE SMOOTH",
"357 595 OFFCURVE",
"288 634 OFFCURVE",
"153 634 CURVE SMOOTH",
"86 634 LINE",
"86 590 LINE",
"153 590 LINE SMOOTH",
"248 590 OFFCURVE",
"303 569 OFFCURVE",
"303 486 CURVE SMOOTH",
"303 420 OFFCURVE",
"262 365 OFFCURVE",
"163 365 CURVE SMOOTH",
"106 365 LINE",
"106 321 LINE",
"162 321 LINE SMOOTH",
"262 321 OFFCURVE",
"303 284 OFFCURVE",
"303 211 CURVE SMOOTH",
"303 102 OFFCURVE",
"206 84 OFFCURVE",
"123 84 CURVE SMOOTH",
"65 84 LINE",
"65 40 LINE",
"123 40 LINE SMOOTH",
"243 40 OFFCURVE",
"357 80 OFFCURVE",
"357 211 CURVE SMOOTH",
"357 280 OFFCURVE",
"322 335 OFFCURVE",
"241 350 CURVE",
"241 333 LINE"
);
},
{
closed = 1;
nodes = (
"326 251 LINE",
"571 251 LINE",
"571 295 LINE",
"326 295 LINE"
);
}
);
};
guideLines = (
{
angle = 90;
position = "{86, 250}";
}
);
layerId = "BE6E37CB-569E-4B40-A59A-BD6EE6EB60D7";
name = Light;
paths = (
{
closed = 1;
nodes = (
"417 634 LINE",
"417 590 LINE",
"548 590 LINE",
"548 0 LINE",
"602 0 LINE",
"602 590 LINE",
"722 590 LINE",
"722 634 LINE"
);
},
{
closed = 1;
nodes = (
"319 363 OFFCURVE",
"357 412 OFFCURVE",
"357 486 CURVE SMOOTH",
"357 595 OFFCURVE",
"288 634 OFFCURVE",
"153 634 CURVE SMOOTH",
"96 634 LINE",
"96 590 LINE",
"153 590 LINE SMOOTH",
"248 590 OFFCURVE",
"303 569 OFFCURVE",
"303 486 CURVE SMOOTH",
"303 420 OFFCURVE",
"262 365 OFFCURVE",
"163 365 CURVE SMOOTH",
"111 365 LINE",
"111 321 LINE",
"162 321 LINE SMOOTH",
"262 321 OFFCURVE",
"303 284 OFFCURVE",
"303 211 CURVE SMOOTH",
"303 102 OFFCURVE",
"206 84 OFFCURVE",
"123 84 CURVE SMOOTH",
"65 84 LINE",
"65 40 LINE",
"123 40 LINE SMOOTH",
"243 40 OFFCURVE",
"357 80 OFFCURVE",
"357 211 CURVE SMOOTH",
"357 280 OFFCURVE",
"322 335 OFFCURVE",
"241 350 CURVE",
"241 333 LINE"
);
},
{
closed = 1;
nodes = (
"326 251 LINE",
"571 251 LINE",
"571 295 LINE",
"326 295 LINE"
);
}
);
width = 712;
}
);
unicode = 0905;
},
{
glyphname = "aa-deva";
lastChange = "2014-10-22 18:10:53 +0000";
layers = (
{
components = (
{
name = "aaMatra-deva";
transform = "{1, 0, 0, 1, 712, 0}";
}
);
layerId = "BE6E37CB-569E-4B40-A59A-BD6EE6EB60D7";
name = Light;
paths = (
{
closed = 1;
nodes = (
"417 634 LINE",
"417 590 LINE",
"548 590 LINE",
"548 0 LINE",
"602 0 LINE",
"602 590 LINE",
"722 590 LINE",
"722 634 LINE"
);
},
{
closed = 1;
nodes = (
"319 363 OFFCURVE",
"357 412 OFFCURVE",
"357 486 CURVE SMOOTH",
"357 595 OFFCURVE",
"288 634 OFFCURVE",
"153 634 CURVE SMOOTH",
"96 634 LINE",
"96 590 LINE",
"153 590 LINE SMOOTH",
"248 590 OFFCURVE",
"303 569 OFFCURVE",
"303 486 CURVE SMOOTH",
"303 420 OFFCURVE",
"262 365 OFFCURVE",
"163 365 CURVE SMOOTH",
"111 365 LINE",
"111 321 LINE",
"162 321 LINE SMOOTH",
"262 321 OFFCURVE",
"303 284 OFFCURVE",
"303 211 CURVE SMOOTH",
"303 102 OFFCURVE",
"206 84 OFFCURVE",
"123 84 CURVE SMOOTH",
"65 84 LINE",
"65 40 LINE",
"123 40 LINE SMOOTH",
"243 40 OFFCURVE",
"357 80 OFFCURVE",
"357 211 CURVE SMOOTH",
"357 280 OFFCURVE",
"322 335 OFFCURVE",
"241 350 CURVE",
"241 333 LINE"
);
},
{
closed = 1;
nodes = (
"326 251 LINE",
"571 251 LINE",
"571 295 LINE",
"326 295 LINE"
);
}
);
width = 986;
}
);
unicode = 0906;
},
{
glyphname = "i-deva";
lastChange = "2014-11-06 13:01:20 +0000";
layers = (
{
anchors = (
{
name = top;
position = "{353, 634}";
}
);
layerId = "BE6E37CB-569E-4B40-A59A-BD6EE6EB60D7";
name = Light;
paths = (
{
closed = 1;
nodes = (
"217 470 LINE SMOOTH",
"121 470 OFFCURVE",
"73 440 OFFCURVE",
"73 358 CURVE SMOOTH",
"73 304 OFFCURVE",
"110 262 OFFCURVE",
"131 246 CURVE",
"287 246 LINE SMOOTH",
"356 246 OFFCURVE",
"395 224 OFFCURVE",
"397 157 CURVE SMOOTH",
"399 94 OFFCURVE",
"356 67 OFFCURVE",
"287 67 CURVE SMOOTH",
"272 67 LINE SMOOTH",
"204 67 OFFCURVE",
"155 85 OFFCURVE",
"108 115 CURVE",
"90 73 LINE",
"140 42 OFFCURVE",
"196 23 OFFCURVE",
"272 23 CURVE SMOOTH",
"287 23 LINE SMOOTH",
"389 23 OFFCURVE",
"451 69 OFFCURVE",
"451 157 CURVE SMOOTH",
"451 248 OFFCURVE",
"389 290 OFFCURVE",
"287 290 CURVE SMOOTH",
"157 290 LINE",
"142 300 OFFCURVE",
"127 323 OFFCURVE",
"127 358 CURVE",
"127 412 OFFCURVE",
"159 426 OFFCURVE",
"217 426 CURVE SMOOTH",
"381 426 LINE",
"381 470 LINE"
);
},
{
closed = 1;
nodes = (
"73 174 LINE",
"73 -55 LINE",
"127 -55 LINE",
"127 174 LINE"
);
},
{
closed = 1;
nodes = (
"-10 634 LINE",
"-10 590 LINE",
"327 590 LINE",
"327 440 LINE",
"381 440 LINE",
"381 590 LINE",
"512 590 LINE",
"512 634 LINE"
);
}
);
width = 502;
}
);
unicode = 0907;
},
{
glyphname = "u-deva";
lastChange = "2014-11-06 13:01:25 +0000";
layers = (
{
layerId = "BE6E37CB-569E-4B40-A59A-BD6EE6EB60D7";
name = Light;
paths = (
{
closed = 1;
nodes = (
"68 43 OFFCURVE",
"156 0 OFFCURVE",
"272 0 CURVE SMOOTH",
"388 0 OFFCURVE",
"476 43 OFFCURVE",
"476 181 CURVE SMOOTH",
"476 264 OFFCURVE",
"441 334 OFFCURVE",
"360 350 CURVE",
"360 333 LINE",
"438 363 OFFCURVE",
"476 410 OFFCURVE",
"476 485 CURVE SMOOTH",
"476 572 OFFCURVE",
"436 598 OFFCURVE",
"388 626 CURVE",
"357 590 LINE",
"403 562 OFFCURVE",
"422 540 OFFCURVE",
"422 485 CURVE SMOOTH",
"422 421 OFFCURVE",
"381 365 OFFCURVE",
"282 365 CURVE SMOOTH",
"210 365 LINE",
"210 321 LINE",
"281 321 LINE SMOOTH",
"381 321 OFFCURVE",
"422 273 OFFCURVE",
"422 181 CURVE SMOOTH",
"422 64 OFFCURVE",
"353 44 OFFCURVE",
"272 44 CURVE SMOOTH",
"191 44 OFFCURVE",
"122 64 OFFCURVE",
"122 181 CURVE",
"122 231 LINE",
"68 231 LINE",
"68 181 LINE SMOOTH"
);
},
{
closed = 1;
nodes = (
"561 590 LINE",
"561 634 LINE",
"-10 634 LINE",
"-10 590 LINE"
);
}
);
width = 551;
}
);
unicode = 0909;
},
{
glyphname = "uu-deva";
lastChange = "2014-10-26 15:21:17 +0000";
layers = (
{
background = {
paths = (
{
closed = 1;
nodes = (
"68 43 OFFCURVE",
"156 0 OFFCURVE",
"272 0 CURVE SMOOTH",
"388 0 OFFCURVE",
"476 43 OFFCURVE",
"476 181 CURVE SMOOTH",
"476 264 OFFCURVE",
"441 334 OFFCURVE",
"360 350 CURVE",
"360 333 LINE",
"438 363 OFFCURVE",
"476 410 OFFCURVE",
"476 485 CURVE SMOOTH",
"476 572 OFFCURVE",
"436 598 OFFCURVE",
"388 626 CURVE",
"357 590 LINE",
"403 562 OFFCURVE",
"422 540 OFFCURVE",
"422 485 CURVE SMOOTH",
"422 421 OFFCURVE",
"381 365 OFFCURVE",
"282 365 CURVE SMOOTH",
"210 365 LINE",
"210 321 LINE",
"281 321 LINE SMOOTH",
"381 321 OFFCURVE",
"422 273 OFFCURVE",
"422 181 CURVE SMOOTH",
"422 64 OFFCURVE",
"353 44 OFFCURVE",
"272 44 CURVE SMOOTH",
"191 44 OFFCURVE",
"122 64 OFFCURVE",
"122 181 CURVE",
"122 231 LINE",
"68 231 LINE",
"68 181 LINE SMOOTH"
);
},
{
closed = 1;
nodes = (
"759 286 OFFCURVE",
"700 321 OFFCURVE",
"592 321 CURVE SMOOTH",
"532 321 OFFCURVE",
"491 300 OFFCURVE",
"450 268 CURVE",
"450 215 LINE",
"483 244 OFFCURVE",
"518 277 OFFCURVE",
"592 277 CURVE SMOOTH",
"676 277 OFFCURVE",
"705 236 OFFCURVE",
"705 161 CURVE SMOOTH",
"705 67 OFFCURVE",
"662 44 OFFCURVE",
"592 44 CURVE SMOOTH",
"580 44 LINE SMOOTH",
"562 44 OFFCURVE",
"538 46 OFFCURVE",
"520 50 CURVE",
"520 5 LINE",
"531 3 OFFCURVE",
"562 0 OFFCURVE",
"580 0 CURVE SMOOTH",
"592 0 LINE SMOOTH",
"700 0 OFFCURVE",
"759 42 OFFCURVE",
"759 161 CURVE SMOOTH"
);
},
{
closed = 1;
nodes = (
"816 590 LINE",
"816 634 LINE",
"-10 634 LINE",
"-10 590 LINE"
);
}
);
};
layerId = "BE6E37CB-569E-4B40-A59A-BD6EE6EB60D7";
name = Light;
paths = (
{
closed = 1;
nodes = (
"68 43 OFFCURVE",
"156 0 OFFCURVE",
"272 0 CURVE SMOOTH",
"388 0 OFFCURVE",
"476 43 OFFCURVE",
"476 181 CURVE SMOOTH",
"476 264 OFFCURVE",
"441 334 OFFCURVE",
"360 350 CURVE",
"360 333 LINE",
"438 363 OFFCURVE",
"476 410 OFFCURVE",
"476 485 CURVE SMOOTH",
"476 572 OFFCURVE",
"436 598 OFFCURVE",
"388 626 CURVE",
"357 590 LINE",
"403 562 OFFCURVE",
"422 540 OFFCURVE",
"422 485 CURVE SMOOTH",
"422 421 OFFCURVE",
"381 365 OFFCURVE",
"282 365 CURVE SMOOTH",
"210 365 LINE",
"210 321 LINE",
"281 321 LINE SMOOTH",
"381 321 OFFCURVE",
"422 273 OFFCURVE",
"422 181 CURVE SMOOTH",
"422 64 OFFCURVE",
"353 44 OFFCURVE",
"272 44 CURVE SMOOTH",
"191 44 OFFCURVE",
"122 64 OFFCURVE",
"122 181 CURVE",
"122 231 LINE",
"68 231 LINE",
"68 181 LINE SMOOTH"
);
},
{
closed = 1;
nodes = (
"759 286 OFFCURVE",
"700 321 OFFCURVE",
"592 321 CURVE SMOOTH",
"532 321 OFFCURVE",
"491 301.615 OFFCURVE",
"450 272 CURVE",
"450 215 LINE",
"483 244 OFFCURVE",
"518 277 OFFCURVE",
"592 277 CURVE SMOOTH",
"676 277 OFFCURVE",
"705 236 OFFCURVE",
"705 161 CURVE SMOOTH",
"705 67 OFFCURVE",
"662 44 OFFCURVE",
"592 44 CURVE SMOOTH",
"580 44 LINE SMOOTH",
"562 44 OFFCURVE",
"538 46 OFFCURVE",
"520 50 CURVE",
"520 5 LINE",
"531 3 OFFCURVE",
"562 0 OFFCURVE",
"580 0 CURVE SMOOTH",
"592 0 LINE SMOOTH",
"700 0 OFFCURVE",
"759 42 OFFCURVE",
"759 161 CURVE SMOOTH"
);
},
{
closed = 1;
nodes = (
"816 590 LINE",
"816 634 LINE",
"-10 634 LINE",
"-10 590 LINE"
);
}
);
width = 806;
}
);
unicode = 090A;
},
{
glyphname = "rVocalic-deva";
lastChange = "2014-11-06 13:01:28 +0000";
layers = (
{
guideLines = (
{
position = "{302, 456}";
}
);
layerId = "BE6E37CB-569E-4B40-A59A-BD6EE6EB60D7";
name = Light;
paths = (
{
closed = 1;
nodes = (
"69 37 LINE",
"102 0 LINE",
"433 295 LINE",
"401 333 LINE"
);
},
{
closed = 1;
nodes = (
"173 456 OFFCURVE",
"107 439 OFFCURVE",
"60 428 CURVE",
"60 377 LINE",
"106 388 OFFCURVE",
"172 406 OFFCURVE",
"211 406 CURVE SMOOTH",
"273 406 OFFCURVE",
"324 382 OFFCURVE",
"391 312 CURVE",
"390 372 LINE",
"326 430 OFFCURVE",
"282 456 OFFCURVE",
"211 456 CURVE SMOOTH"
);
},
{
closed = 1;
nodes = (
"628 302 LINE",
"688 262 OFFCURVE",
"725 216 OFFCURVE",
"725 157 CURVE SMOOTH",
"725 78 OFFCURVE",
"666 44 OFFCURVE",
"592 44 CURVE",
"562 44 LINE",
"562 0 LINE",
"592 0 LINE",
"696 0 OFFCURVE",
"779 49 OFFCURVE",
"779 157 CURVE SMOOTH",
"779 229 OFFCURVE",
"725 289 OFFCURVE",
"664 339 CURVE"
);
},
{
closed = 1;
nodes = (
"423 341 LINE",
"423 297 LINE",
"664 297 LINE",
"664 341 LINE"
);
},
{
closed = 1;
nodes = (
"610 341 LINE",
"664 341 LINE",
"664 477 LINE",
"610 477 LINE"
);
},
{
closed = 1;
nodes = (
"-10 634 LINE",
"-10 590 LINE",
"386 590 LINE",
"386 0 LINE",
"440 0 LINE",
"440 590 LINE",
"836 590 LINE",
"836 634 LINE"
);
}
);
width = 826;
}
);
unicode = 090B;
},
{
glyphname = "rrVocalic-deva";
lastChange = "2014-11-06 13:01:31 +0000";
layers = (
{
layerId = "BE6E37CB-569E-4B40-A59A-BD6EE6EB60D7";
name = Light;
paths = (
{
closed = 1;
nodes = (
"69 37 LINE",
"102 0 LINE",
"433 295 LINE",
"401 333 LINE"
);
},
{
closed = 1;
nodes = (
"173 456 OFFCURVE",
"107 439 OFFCURVE",
"60 428 CURVE",
"60 377 LINE",
"106 388 OFFCURVE",
"172 406 OFFCURVE",
"211 406 CURVE SMOOTH",
"273 406 OFFCURVE",
"324 382 OFFCURVE",
"391 312 CURVE",
"390 372 LINE",
"326 430 OFFCURVE",
"282 456 OFFCURVE",
"211 456 CURVE SMOOTH"
);
},
{
closed = 1;
nodes = (
"423 341 LINE",
"423 297 LINE",
"634 297 LINE",
"634 341 LINE"
);
},
{
closed = 1;
nodes = (
"580 341 LINE",
"634 341 LINE",
"634 477 LINE",
"580 477 LINE"
);
},
{
closed = 1;
nodes = (
"-10 634 LINE",
"-10 590 LINE",
"386 590 LINE",
"386 0 LINE",
"440 0 LINE",
"440 590 LINE",
"806 590 LINE",
"806 634 LINE"
);
},
{
closed = 1;
nodes = (
"634 339 LINE",
"598 302 LINE",
"679 144 LINE",
"715 181 LINE"
);
},
{
closed = 1;
nodes = (
"635 117 OFFCURVE",
"652 139 OFFCURVE",
"708 139 CURVE SMOOTH",
"729 139 OFFCURVE",
"745 137 OFFCURVE",
"758 134 CURVE",
"758 178 LINE",
"744 181 OFFCURVE",
"726 183 OFFCURVE",
"708 183 CURVE SMOOTH",
"613 183 OFFCURVE",
"581 148 OFFCURVE",
"581 81 CURVE SMOOTH",
"581 24.245 OFFCURVE",
"611 -21 OFFCURVE",
"733 -21 CURVE SMOOTH",
"778 -21 LINE",
"778 23 LINE",
"733 23 LINE SMOOTH",
"652 23 OFFCURVE",
"635 44.944 OFFCURVE",
"635 81 CURVE SMOOTH"
);
},
{
closed = 1;
nodes = (
"660 -40 OFFCURVE",
"690 -21 OFFCURVE",
"738 -21 CURVE SMOOTH",
"758 -21 LINE",
"758 23 LINE",
"738 23 LINE SMOOTH",
"645 23 OFFCURVE",
"606 -18 OFFCURVE",
"606 -84 CURVE SMOOTH",
"606 -159 OFFCURVE",
"652 -191 OFFCURVE",
"748 -191 CURVE SMOOTH",
"781 -191 OFFCURVE",
"815 -185 OFFCURVE",
"848 -167 CURVE",
"848 -116 LINE",
"815 -139 OFFCURVE",
"783 -147 OFFCURVE",
"748 -147 CURVE SMOOTH",
"693 -147 OFFCURVE",
"660 -131 OFFCURVE",
"660 -84 CURVE SMOOTH"
);
}
);
width = 796;
}
);
unicode = 0960;
},
{
glyphname = "lVocalic-deva";
lastChange = "2014-11-06 13:01:34 +0000";
layers = (
{
layerId = "BE6E37CB-569E-4B40-A59A-BD6EE6EB60D7";
name = Light;
paths = (
{
closed = 1;
nodes = (
"-10 634 LINE",
"-10 590 LINE",
"515 590 LINE",
"515 400 LINE",
"569 400 LINE",
"569 590 LINE",
"779 590 LINE",
"779 634 LINE"
);
},
{
closed = 1;
nodes = (
"418 350 OFFCURVE",
"359 430 OFFCURVE",
"240 430 CURVE",
"121 430 OFFCURVE",
"62 350 OFFCURVE",
"62 237 CURVE SMOOTH",
"62 122 OFFCURVE",
"120 0 OFFCURVE",
"320 0 CURVE SMOOTH",
"332 0 LINE",
"332 44 LINE",
"320 44 LINE SMOOTH",
"152 44 OFFCURVE",
"119 142 OFFCURVE",
"116 237 CURVE",
"118 329 OFFCURVE",
"158 386 OFFCURVE",
"240 386 CURVE",
"322 386 OFFCURVE",
"362 329 OFFCURVE",
"364 237 CURVE",
"364 198 LINE",
"418 198 LINE",
"418 237 LINE"
);
},
{
closed = 1;
nodes = (
"364 198 LINE",
"418 198 LINE",
"418 237 LINE",
"420 329 OFFCURVE",
"460 386 OFFCURVE",
"542 386 CURVE SMOOTH",
"608 386 OFFCURVE",
"646 356 OFFCURVE",
"646 295 CURVE SMOOTH",
"646 168 OFFCURVE",
"488 115 OFFCURVE",
"485 12 CURVE SMOOTH",
"483 -43 OFFCURVE",
"532 -97 OFFCURVE",
"630 -97 CURVE SMOOTH",
"681 -97 OFFCURVE",
"716 -83 OFFCURVE",
"747 -61 CURVE",
"747 -11 LINE",
"719 -31 OFFCURVE",
"672 -53 OFFCURVE",
"630 -53 CURVE SMOOTH",
"561 -53 OFFCURVE",
"538 -24 OFFCURVE",
"539 12 CURVE SMOOTH",
"542 90 OFFCURVE",
"700 157 OFFCURVE",
"700 295 CURVE SMOOTH",
"700 368 OFFCURVE",
"646 430 OFFCURVE",
"542 430 CURVE SMOOTH",
"423 430 OFFCURVE",
"364 350 OFFCURVE",
"364 237 CURVE"
);
}
);
width = 769;
}
);
unicode = 090C;
},
{
glyphname = "llVocalic-deva";
lastChange = "2014-11-03 12:39:02 +0000";
layers = (
{
background = {
paths = (
{
closed = 1;
nodes = (
"364 198 LINE",
"418 198 LINE",
"418 237 LINE",
"420 329 OFFCURVE",
"460 386 OFFCURVE",
"542 386 CURVE SMOOTH",
"608 386 OFFCURVE",
"646 356 OFFCURVE",
"646 295 CURVE SMOOTH",
"646 168 OFFCURVE",
"488 115 OFFCURVE",
"485 12 CURVE SMOOTH",
"483 -43 OFFCURVE",
"532 -97 OFFCURVE",
"630 -97 CURVE SMOOTH",
"681 -97 OFFCURVE",
"716 -83 OFFCURVE",
"747 -61 CURVE",
"747 -11 LINE",
"719 -31 OFFCURVE",
"672 -53 OFFCURVE",
"630 -53 CURVE SMOOTH",
"561 -53 OFFCURVE",
"538 -24 OFFCURVE",
"539 12 CURVE SMOOTH",
"542 90 OFFCURVE",
"700 157 OFFCURVE",
"700 295 CURVE SMOOTH",
"700 368 OFFCURVE",
"646 430 OFFCURVE",
"542 430 CURVE SMOOTH",
"423 430 OFFCURVE",
"364 350 OFFCURVE",
"364 237 CURVE"
);
}
);
};
layerId = "BE6E37CB-569E-4B40-A59A-BD6EE6EB60D7";
name = Light;
paths = (
{
closed = 1;
nodes = (
"597 -223 OFFCURVE",
"564 -207 OFFCURVE",
"564 -160 CURVE SMOOTH",
"564 -127 OFFCURVE",
"578 -104 OFFCURVE",
"605 -89 CURVE",
"582 -92 LINE",
"593 -95 OFFCURVE",
"614 -97 OFFCURVE",
"631 -97 CURVE SMOOTH",
"655 -97 OFFCURVE",
"670 -94 OFFCURVE",
"682 -91 CURVE",
"682 -44 LINE",
"665 -49 OFFCURVE",
"648 -53 OFFCURVE",
"630 -53 CURVE",
"561 -53 OFFCURVE",
"538 -24 OFFCURVE",
"539 12 CURVE SMOOTH",
"542 90 OFFCURVE",
"700 157 OFFCURVE",
"700 295 CURVE SMOOTH",
"700 368 OFFCURVE",
"646 430 OFFCURVE",
"542 430 CURVE SMOOTH",
"423 430 OFFCURVE",
"364 350 OFFCURVE",
"364 237 CURVE SMOOTH",
"364 198 LINE",
"418 198 LINE",
"418 237 LINE SMOOTH",
"420 329 OFFCURVE",
"460 386 OFFCURVE",
"542 386 CURVE SMOOTH",
"608 386 OFFCURVE",
"646 356 OFFCURVE",
"646 295 CURVE SMOOTH",
"646 168 OFFCURVE",
"488 115 OFFCURVE",
"485 12 CURVE SMOOTH",
"484 -29 OFFCURVE",
"510 -69 OFFCURVE",
"564 -87 CURVE",
"559 -69 LINE",
"525 -87 OFFCURVE",
"510 -119 OFFCURVE",
"510 -160 CURVE SMOOTH",
"510 -235 OFFCURVE",
"556 -267 OFFCURVE",
"652 -267 CURVE SMOOTH",
"685 -267 OFFCURVE",
"719 -261 OFFCURVE",
"752 -243 CURVE",
"752 -192 LINE",
"719 -215 OFFCURVE",
"687 -223 OFFCURVE",
"652 -223 CURVE SMOOTH"
);
},
{
closed = 1;
nodes = (
"-10 634 LINE",
"-10 590 LINE",
"515 590 LINE",
"515 400 LINE",
"569 400 LINE",
"569 590 LINE",
"779 590 LINE",
"779 634 LINE"
);
},
{
closed = 1;
nodes = (
"418 350 OFFCURVE",
"359 430 OFFCURVE",
"240 430 CURVE",
"121 430 OFFCURVE",
"62 350 OFFCURVE",
"62 237 CURVE SMOOTH",
"62 122 OFFCURVE",
"120 0 OFFCURVE",
"320 0 CURVE SMOOTH",
"332 0 LINE",
"332 44 LINE",
"320 44 LINE SMOOTH",
"152 44 OFFCURVE",
"119 142 OFFCURVE",
"116 237 CURVE",
"118 329 OFFCURVE",
"158 386 OFFCURVE",
"240 386 CURVE",
"322 386 OFFCURVE",
"362 329 OFFCURVE",
"364 237 CURVE",
"364 198 LINE",
"418 198 LINE",
"418 237 LINE"
);
}
);
width = 769;
}
);
unicode = 0961;
},
{
glyphname = "e-deva";
lastChange = "2014-11-06 13:01:44 +0000";
layers = (
{
anchors = (
{
name = top;
position = "{449, 634}";
}
);
guideLines = (
{
angle = 90;
position = "{437, 250}";
}
);
layerId = "BE6E37CB-569E-4B40-A59A-BD6EE6EB60D7";
name = Light;
paths = (
{
closed = 1;
nodes = (
"423 613 LINE",
"423 399 LINE",
"423 309 OFFCURVE",
"387 297 OFFCURVE",
"323 296 CURVE SMOOTH",
"301 296 LINE",
"301 252 LINE",
"323 252 LINE SMOOTH",
"425 253 OFFCURVE",
"477 286 OFFCURVE",
"477 399 CURVE",
"477 613 LINE"
);
},
{
closed = 1;
nodes = (
"-10 634 LINE",
"-10 590 LINE",
"579 590 LINE",
"579 634 LINE"
);
},
{
closed = 1;
nodes = (
"164 609 LINE",
"110 609 LINE",
"110 295 LINE SMOOTH",
"110 70 OFFCURVE",
"239 40 OFFCURVE",
"409 40 CURVE",
"487 40 LINE",
"487 84 LINE",
"409 84 LINE",
"281 84 OFFCURVE",
"164 88 OFFCURVE",
"164 295 CURVE"
);
}
);
width = 569;
}
);
unicode = 090F;
},
{
glyphname = "oe-deva";
lastChange = "2014-10-27 07:54:05 +0000";
layers = (
{
components = (
{
name = "a-deva";
transform = "{1, 0, 0, 1, 0, 0}";
}
);
layerId = "BE6E37CB-569E-4B40-A59A-BD6EE6EB60D7";
name = Light;
paths = (
{
closed = 1;
nodes = (
"548 903 LINE",
"548 613 LINE",
"602 613 LINE",
"602 903 LINE"
);
}
);
width = 712;
}
);
unicode = 0973;
},
{
glyphname = "ooe-deva";
lastChange = "2014-10-27 07:54:23 +0000";
layers = (
{
components = (
{
name = "aa-deva";
transform = "{1, 0, 0, 1, 0, 0}";
}
);
layerId = "BE6E37CB-569E-4B40-A59A-BD6EE6EB60D7";
name = Light;
paths = (
{
closed = 1;
nodes = (
"822 903 LINE",
"822 613 LINE",
"876 613 LINE",
"876 903 LINE"
);
}
);
width = 986;
}
);
unicode = 0974;
},
{
glyphname = "aaMatra-deva";
lastChange = "2014-10-12 18:21:02 +0000";
layers = (
{
anchors = (
{
name = bottom;
position = "{136, 0}";
},
{
name = top;
position = "{136, 634}";
}
);
layerId = "BE6E37CB-569E-4B40-A59A-BD6EE6EB60D7";
name = Light;
paths = (
{
closed = 1;
nodes = (
"110 610 LINE",
"110 0 LINE",
"164 0 LINE",
"164 610 LINE"
);
},
{
closed = 1;
nodes = (
"-10 634 LINE",
"-10 590 LINE",
"284 590 LINE",
"284 634 LINE"
);
}
);
width = 274;
}
);
unicode = 093E;
},
{
glyphname = "iMatra-deva";
lastChange = "2014-11-06 10:18:48 +0000";
layers = (
{
anchors = (
{
name = imatra;
position = "{699, 608}";
},
{
name = top;
position = "{797, 608}";
}
);
background = {
paths = (
{
closed = 1;
nodes = (
"740 731 LINE",
"797 610 LINE",
"854 731 LINE",
"797 788 LINE"
);
}
);
};
layerId = "BE6E37CB-569E-4B40-A59A-BD6EE6EB60D7";
name = Light;
paths = (
{
closed = 1;
nodes = (
"397 923 LINE",
"201 923 OFFCURVE",
"111 868 OFFCURVE",
"111 695 CURVE SMOOTH",
"111 618 LINE",
"165 618 LINE",
"165 695 LINE SMOOTH",
"165 862 OFFCURVE",
"254 879 OFFCURVE",
"397 879 CURVE",
"413 879 LINE",
"555 879 OFFCURVE",
"645 862 OFFCURVE",
"645 695 CURVE SMOOTH",
"645 608 LINE",
"699 608 LINE",
"699 695 LINE",
"696 868 OFFCURVE",
"608 923 OFFCURVE",
"413 923 CURVE"
);
},
{
closed = 1;
nodes = (
"111 610 LINE",
"111 0 LINE",
"165 0 LINE",
"165 610 LINE"
);
},
{
closed = 1;
nodes = (
"-10 634 LINE",
"-10 590 LINE",
"285 590 LINE",
"285 634 LINE"
);
}
);
width = 274;
}
);
unicode = 093F;
},
{
glyphname = "iMatra_reph-deva";
lastChange = "2014-10-13 14:36:19 +0000";
layers = (
{
components = (
{
name = "iMatra-deva";
transform = "{1, 0, 0, 1, 0, 0}";
}
);
layerId = "BE6E37CB-569E-4B40-A59A-BD6EE6EB60D7";
name = Light;
paths = (
{
closed = 1;
nodes = (
"655 625 LINE",
"699 625 LINE",
"699 786 LINE SMOOTH",
"699 857 OFFCURVE",
"738 879 OFFCURVE",
"786 879 CURVE SMOOTH",
"809 879 OFFCURVE",
"832 873 OFFCURVE",
"848 865 CURVE",
"848 912 LINE",
"834 918 OFFCURVE",
"813 923 OFFCURVE",
"786 923 CURVE SMOOTH",
"737 923 OFFCURVE",
"655 903 OFFCURVE",
"655 786 CURVE SMOOTH"
);
}
);
width = 274;
}
);
},
{
glyphname = "iMatra_reph_anusvara-deva";
lastChange = "2014-11-04 00:05:40 +0000";
layers = (
{
background = {
paths = (
{
closed = 1;
nodes = (
"655 625 LINE",
"699 625 LINE",
"699 786 LINE SMOOTH",
"699 857 OFFCURVE",
"738 879 OFFCURVE",
"786 879 CURVE SMOOTH",
"809 879 OFFCURVE",
"832 873 OFFCURVE",
"848 865 CURVE",
"848 912 LINE",
"834 918 OFFCURVE",
"813 923 OFFCURVE",
"786 923 CURVE SMOOTH",
"737 923 OFFCURVE",
"655 903 OFFCURVE",
"655 786 CURVE SMOOTH"
);
},
{
closed = 1;
nodes = (
"740 751 LINE",
"797 695 LINE",
"854 751 LINE",
"797 808 LINE"
);
}
);
};
components = (
{
name = "iMatra-deva";
transform = "{1, 0, 0, 1, 0, 0}";
},
{
disableAlignment = 1;
name = "anusvara-deva";
transform = "{1, 0, 0, 1, 935, -6}";
}
);
layerId = "BE6E37CB-569E-4B40-A59A-BD6EE6EB60D7";
name = Light;
paths = (
{
closed = 1;
nodes = (
"655 625 LINE",
"699 625 LINE",
"699 786 LINE SMOOTH",
"699 857 OFFCURVE",
"738 879 OFFCURVE",
"786 879 CURVE SMOOTH",
"809 879 OFFCURVE",
"832 873 OFFCURVE",
"848 865 CURVE",
"848 912 LINE",
"834 918 OFFCURVE",
"813 923 OFFCURVE",
"786 923 CURVE SMOOTH",
"737 923 OFFCURVE",
"655 903 OFFCURVE",
"655 786 CURVE SMOOTH"
);
}
);
width = 274;
}
);
},
{
glyphname = "iiMatra-deva";
lastChange = "2014-10-13 14:31:16 +0000";
layers = (
{
anchors = (
{
name = iimatra;
position = "{-164, 608}";
},
{
name = top;
position = "{274, 608}";
}
);
background = {
paths = (
{
closed = 1;
nodes = (
"-11 923 LINE",
"-118 923 OFFCURVE",
"-164 876 OFFCURVE",
"-164 725 CURVE SMOOTH",
"-164 618 LINE",
"-110 618 LINE",
"-110 725 LINE SMOOTH",
"-110 865 OFFCURVE",
"-74 879 OFFCURVE",
"-11 879 CURVE",
"11 879 LINE",
"67 879 OFFCURVE",
"110 865 OFFCURVE",
"110 725 CURVE SMOOTH",
"110 608 LINE",
"164 608 LINE",
"164 725 LINE",
"160 876 OFFCURVE",
"112 923 OFFCURVE",
"11 923 CURVE"
);
}
);
};
layerId = "BE6E37CB-569E-4B40-A59A-BD6EE6EB60D7";
name = Light;
paths = (
{
closed = 1;
nodes = (
"-119 923 OFFCURVE",
"-164 876 OFFCURVE",
"-164 725 CURVE",
"-164 608 LINE",
"-110 608 LINE",
"-110 725 LINE SMOOTH",
"-110 865 OFFCURVE",
"-74 879 OFFCURVE",
"-11 879 CURVE",
"11 879 LINE",
"74 879 OFFCURVE",
"110 865 OFFCURVE",
"110 725 CURVE SMOOTH",
"110 618 LINE",
"164 618 LINE",
"164 725 LINE SMOOTH",
"164 876 OFFCURVE",
"118 923 OFFCURVE",
"11 923 CURVE",
"-11 923 LINE"
);
},
{
closed = 1;
nodes = (
"110 0 LINE",
"164 0 LINE",
"164 610 LINE",
"110 610 LINE"
);
},
{
closed = 1;
nodes = (
"-10 590 LINE",
"284 590 LINE",
"284 634 LINE",
"-10 634 LINE"
);
}
);
width = 274;
}
);
unicode = 0940;
},
{
glyphname = "iiMatra_reph-deva";
lastChange = "2014-10-13 14:31:21 +0000";
layers = (
{
anchors = (
{
name = top;
position = "{274, 628}";
}
);
background = {
paths = (
{
closed = 1;
nodes = (
"110 598 LINE",
"164 598 LINE",
"164 759 LINE SMOOTH",
"164 830 OFFCURVE",
"203 852 OFFCURVE",
"251 852 CURVE SMOOTH",
"274 852 OFFCURVE",
"297 846 OFFCURVE",
"313 838 CURVE",
"313 885 LINE",
"299 891 OFFCURVE",
"278 896 OFFCURVE",
"251 896 CURVE SMOOTH",
"198 896 OFFCURVE",
"110 876 OFFCURVE",
"110 759 CURVE SMOOTH"
);
}
);
};
components = (
{
name = "iiMatra-deva";
transform = "{1, 0, 0, 1, 0, 0}";
}
);
guideLines = (
{
position = "{39, 923}";
}
);
layerId = "BE6E37CB-569E-4B40-A59A-BD6EE6EB60D7";
name = Light;
paths = (
{
closed = 1;
nodes = (
"120 625 LINE",
"164 625 LINE",
"164 786 LINE SMOOTH",
"164 857 OFFCURVE",
"203 879 OFFCURVE",
"251 879 CURVE SMOOTH",
"274 879 OFFCURVE",
"297 873 OFFCURVE",
"313 865 CURVE",
"313 912 LINE",
"299 918 OFFCURVE",
"278 923 OFFCURVE",
"251 923 CURVE SMOOTH",
"202 923 OFFCURVE",
"120 903 OFFCURVE",
"120 786 CURVE SMOOTH"
);
}
);
width = 274;
}
);
},
{
glyphname = "iiMatra_reph_anusvara-deva";
lastChange = "2014-10-13 14:31:30 +0000";
layers = (
{
anchors = (
{
name = top;
position = "{274, 628}";
}
);
components = (
{
name = "iiMatra-deva";
transform = "{1, 0, 0, 1, 0, 0}";
},
{
disableAlignment = 1;
name = "anusvara-deva";
transform = "{1, 0, 0, 1, 395, -6}";
}
);
layerId = "BE6E37CB-569E-4B40-A59A-BD6EE6EB60D7";
name = Light;
paths = (
{
closed = 1;
nodes = (
"120 625 LINE",
"164 625 LINE",
"164 786 LINE SMOOTH",
"164 857 OFFCURVE",
"203 879 OFFCURVE",
"251 879 CURVE SMOOTH",
"274 879 OFFCURVE",
"297 873 OFFCURVE",
"313 865 CURVE",
"313 912 LINE",
"299 918 OFFCURVE",
"278 923 OFFCURVE",
"251 923 CURVE SMOOTH",
"202 923 OFFCURVE",
"120 903 OFFCURVE",
"120 786 CURVE SMOOTH"
);
}
);
width = 274;
}
);
},
{
glyphname = "prishthaMatraE-deva";
lastChange = "2014-11-06 12:03:58 +0000";
layers = (
{
layerId = "BE6E37CB-569E-4B40-A59A-BD6EE6EB60D7";
name = Light;
paths = (
{
closed = 1;
nodes = (
"83 610 LINE",
"83 0 LINE",
"137 0 LINE",
"137 610 LINE"
);
},
{
closed = 1;
nodes = (
"83 634 LINE",
"83 590 LINE",
"257 590 LINE",
"257 634 LINE"
);
}
);
width = 247;
}
);
unicode = 094E;
},
{
glyphname = "ooeMatra-deva";
lastChange = "2014-10-27 07:53:36 +0000";
layers = (
{
components = (
{
name = "aaMatra-deva";
transform = "{1, 0, 0, 1, 0, 0}";
}
);
layerId = "BE6E37CB-569E-4B40-A59A-BD6EE6EB60D7";
name = Light;
paths = (
{
closed = 1;
nodes = (
"110 903 LINE",
"110 613 LINE",
"164 613 LINE",
"164 903 LINE"
);
}
);
width = 274;
}
);
unicode = 093B;
},
{
glyphname = "iMatra-deva.0";
lastChange = "2014-10-13 14:29:12 +0000";
layers = (
{
anchors = (
{
name = imatra;
position = "{590, 598}";
},
{
name = top;
position = "{629, 598}";
}
);
background = {
paths = (
{
closed = 1;
nodes = (
"110 610 LINE",
"110 0 LINE",
"164 0 LINE",
"164 610 LINE"
);
},
{
closed = 1;
nodes = (
"-10 634 LINE",
"-10 590 LINE",
"284 590 LINE",
"284 634 LINE"
);
}
);
};
layerId = "BE6E37CB-569E-4B40-A59A-BD6EE6EB60D7";
name = Light;
paths = (
{
closed = 1;
nodes = (
"342 923 LINE",
"182 923 OFFCURVE",
"110 868 OFFCURVE",
"110 695 CURVE SMOOTH",
"110 618 LINE",
"164 618 LINE",
"164 695 LINE SMOOTH",
"164 862 OFFCURVE",
"232 879 OFFCURVE",
"342 879 CURVE",
"358 879 LINE",
"480 879 OFFCURVE",
"536 863 OFFCURVE",
"536 695 CURVE SMOOTH",
"536 598 LINE",
"590 598 LINE",
"590 695 LINE",
"592 868 OFFCURVE",
"530 923 OFFCURVE",
"358 923 CURVE"
);
},
{
closed = 1;
nodes = (
"110 610 LINE",
"110 0 LINE",
"164 0 LINE",
"164 610 LINE"
);
},
{
closed = 1;
nodes = (
"-10 634 LINE",
"-10 590 LINE",
"284 590 LINE",
"284 634 LINE"
);
}
);
width = 274;
}
);
},
{
glyphname = "iMatra_reph-deva.0";
lastChange = "2014-10-13 14:29:18 +0000";
layers = (
{
components = (
{
name = "iMatra-deva.0";
transform = "{1, 0, 0, 1, 0, 0}";
}
);
layerId = "BE6E37CB-569E-4B40-A59A-BD6EE6EB60D7";
name = Light;
paths = (
{
closed = 1;
nodes = (
"546 625 LINE",
"590 625 LINE",
"590 786 LINE SMOOTH",
"590 857 OFFCURVE",
"629 879 OFFCURVE",
"677 879 CURVE SMOOTH",
"700 879 OFFCURVE",
"723 873 OFFCURVE",
"739 865 CURVE",
"739 912 LINE",
"725 918 OFFCURVE",
"704 923 OFFCURVE",
"677 923 CURVE SMOOTH",
"628 923 OFFCURVE",
"546 903 OFFCURVE",
"546 786 CURVE SMOOTH"
);
}
);
width = 274;
}
);
},
{
glyphname = "iMatra_reph_anusvara-deva.0";
lastChange = "2014-10-13 14:29:22 +0000";
layers = (
{
components = (
{
name = "iMatra-deva.0";
transform = "{1, 0, 0, 1, 0, 0}";
},
{
disableAlignment = 1;
name = "anusvara-deva";
transform = "{1, 0, 0, 1, 826, -6}";
}
);
layerId = "BE6E37CB-569E-4B40-A59A-BD6EE6EB60D7";
name = Light;
paths = (
{
closed = 1;
nodes = (
"546 625 LINE",
"590 625 LINE",
"590 786 LINE SMOOTH",
"590 857 OFFCURVE",
"629 879 OFFCURVE",
"677 879 CURVE SMOOTH",
"700 879 OFFCURVE",
"723 873 OFFCURVE",
"739 865 CURVE",
"739 912 LINE",
"725 918 OFFCURVE",
"704 923 OFFCURVE",
"677 923 CURVE SMOOTH",
"628 923 OFFCURVE",
"546 903 OFFCURVE",
"546 786 CURVE SMOOTH"
);
}
);
width = 274;
}
);
},
{
glyphname = "iMatra-deva.01";
lastChange = "2014-10-13 14:29:36 +0000";
layers = (
{
anchors = (
{
name = imatra;
position = "{655, 608}";
},
{
name = top;
position = "{683, 608}";
}
);
layerId = "BE6E37CB-569E-4B40-A59A-BD6EE6EB60D7";
name = Light;
paths = (
{
closed = 1;
nodes = (
"375 923 LINE",
"194 923 OFFCURVE",
"111 868 OFFCURVE",
"111 695 CURVE SMOOTH",
"111 618 LINE",
"165 618 LINE",
"165 695 LINE SMOOTH",
"165 862 OFFCURVE",
"245 879 OFFCURVE",
"375 879 CURVE",
"391 879 LINE",
"519 879 OFFCURVE",
"600 862 OFFCURVE",
"601 695 CURVE SMOOTH",
"601 608 LINE",
"655 608 LINE",
"655 695 LINE",
"652 868 OFFCURVE",
"571 923 OFFCURVE",
"391 923 CURVE"
);
},
{
closed = 1;
nodes = (
"111 610 LINE",
"111 0 LINE",
"165 0 LINE",
"165 610 LINE"
);
},
{
closed = 1;
nodes = (
"-10 634 LINE",
"-10 590 LINE",
"285 590 LINE",
"285 634 LINE"
);
}
);
width = 274;
}
);
},
{
glyphname = "iMatra_reph-deva.01";
lastChange = "2014-10-13 14:29:40 +0000";
layers = (
{
components = (
{
name = "iMatra-deva.01";
transform = "{1, 0, 0, 1, 0, 0}";
}
);
layerId = "BE6E37CB-569E-4B40-A59A-BD6EE6EB60D7";
name = Light;
paths = (
{
closed = 1;
nodes = (
"611 625 LINE",
"655 625 LINE",
"655 786 LINE SMOOTH",
"655 857 OFFCURVE",
"694 879 OFFCURVE",
"742 879 CURVE SMOOTH",
"765 879 OFFCURVE",
"788 873 OFFCURVE",
"804 865 CURVE",
"804 912 LINE",
"790 918 OFFCURVE",
"769 923 OFFCURVE",
"742 923 CURVE SMOOTH",
"693 923 OFFCURVE",
"611 903 OFFCURVE",
"611 786 CURVE SMOOTH"
);
}
);
width = 274;
}
);
},
{
glyphname = "iMatra_reph_anusvara-deva.01";
lastChange = "2014-10-13 14:29:43 +0000";
layers = (
{
components = (
{
name = "iMatra-deva.01";
transform = "{1, 0, 0, 1, 0, 0}";
},
{
disableAlignment = 1;
name = "anusvara-deva";
transform = "{1, 0, 0, 1, 891, -6}";
}
);
layerId = "BE6E37CB-569E-4B40-A59A-BD6EE6EB60D7";
name = Light;
paths = (
{
closed = 1;
nodes = (
"611 625 LINE",
"655 625 LINE",
"655 786 LINE SMOOTH",
"655 857 OFFCURVE",
"694 879 OFFCURVE",
"742 879 CURVE SMOOTH",
"765 879 OFFCURVE",
"788 873 OFFCURVE",
"804 865 CURVE",
"804 912 LINE",
"790 918 OFFCURVE",
"769 923 OFFCURVE",
"742 923 CURVE SMOOTH",
"693 923 OFFCURVE",
"611 903 OFFCURVE",
"611 786 CURVE SMOOTH"
);
}
);
width = 274;
}
);
},
{
glyphname = "iMatra-deva.015";
lastChange = "2014-11-03 23:45:37 +0000";
layers = (
{
anchors = (
{
name = imatra;
position = "{673, 608}";
},
{
name = top;
position = "{701, 608}";
}
);
layerId = "BE6E37CB-569E-4B40-A59A-BD6EE6EB60D7";
name = Light;
paths = (
{
closed = 1;
nodes = (
"375 923 LINE",
"194 923 OFFCURVE",
"111 868 OFFCURVE",
"111 695 CURVE SMOOTH",
"111 618 LINE",
"165 618 LINE",
"165 695 LINE SMOOTH",
"165 862 OFFCURVE",
"245 879 OFFCURVE",
"375 879 CURVE",
"409 879 LINE",
"537 879 OFFCURVE",
"618 862 OFFCURVE",
"619 695 CURVE SMOOTH",
"619 608 LINE",
"673 608 LINE",
"673 695 LINE",
"670 868 OFFCURVE",
"589 923 OFFCURVE",
"409 923 CURVE"
);
},
{
closed = 1;
nodes = (
"111 610 LINE",
"111 0 LINE",
"165 0 LINE",
"165 610 LINE"
);
},
{
closed = 1;
nodes = (
"-10 634 LINE",
"-10 590 LINE",
"285 590 LINE",
"285 634 LINE"
);
}
);
width = 274;
}
);
},
{
glyphname = "iMatra_reph-deva.015";
lastChange = "2014-11-04 00:04:52 +0000";
layers = (
{
components = (
{
name = "iMatra-deva.015";
transform = "{1, 0, 0, 1, 0, 0}";
}
);
layerId = "BE6E37CB-569E-4B40-A59A-BD6EE6EB60D7";
name = Light;
paths = (
{
closed = 1;
nodes = (
"629 625 LINE",
"673 625 LINE",
"673 786 LINE SMOOTH",
"673 857 OFFCURVE",
"712 879 OFFCURVE",
"760 879 CURVE SMOOTH",
"783 879 OFFCURVE",
"806 873 OFFCURVE",
"822 865 CURVE",
"822 912 LINE",
"808 918 OFFCURVE",
"787 923 OFFCURVE",
"760 923 CURVE SMOOTH",
"711 923 OFFCURVE",
"629 903 OFFCURVE",
"629 786 CURVE SMOOTH"
);
}
);
width = 274;
}
);
},
{
glyphname = "iMatra_reph_anusvara-deva.015";
lastChange = "2014-11-04 00:06:45 +0000";
layers = (
{
background = {
paths = (
{
closed = 1;
nodes = (
"629 625 LINE",
"673 625 LINE",
"673 786 LINE SMOOTH",
"673 857 OFFCURVE",
"712 879 OFFCURVE",
"760 879 CURVE SMOOTH",
"783 879 OFFCURVE",
"806 873 OFFCURVE",
"822 865 CURVE",
"822 912 LINE",
"808 918 OFFCURVE",
"787 923 OFFCURVE",
"760 923 CURVE SMOOTH",
"711 923 OFFCURVE",
"629 903 OFFCURVE",
"629 786 CURVE SMOOTH"
);
},
{
closed = 1;
nodes = (
"714 751 LINE",
"771 695 LINE",
"828 751 LINE",
"771 808 LINE"
);
}
);
};
components = (
{
name = "iMatra-deva.015";
transform = "{1, 0, 0, 1, 0, 0}";
},
{
name = "anusvara-deva";
transform = "{1, 0, 0, 1, 909, -6}";
}
);
layerId = "BE6E37CB-569E-4B40-A59A-BD6EE6EB60D7";
name = Light;
paths = (
{
closed = 1;
nodes = (
"629 625 LINE",
"673 625 LINE",
"673 786 LINE SMOOTH",
"673 857 OFFCURVE",
"712 879 OFFCURVE",
"760 879 CURVE SMOOTH",
"783 879 OFFCURVE",
"806 873 OFFCURVE",
"822 865 CURVE",
"822 912 LINE",
"808 918 OFFCURVE",
"787 923 OFFCURVE",
"760 923 CURVE SMOOTH",
"711 923 OFFCURVE",
"629 903 OFFCURVE",
"629 786 CURVE SMOOTH"
);
}
);
width = 274;
}
);
},
{
glyphname = "iMatra-deva.02";
lastChange = "2014-10-13 14:29:55 +0000";
layers = (
{
anchors = (
{
name = imatra;
position = "{714, 608}";
},
{
name = top;
position = "{756, 608}";
}
);
layerId = "BE6E37CB-569E-4B40-A59A-BD6EE6EB60D7";
name = Light;
paths = (
{
closed = 1;
nodes = (
"404 923 LINE",
"203 923 OFFCURVE",
"111 868 OFFCURVE",
"111 695 CURVE SMOOTH",
"111 618 LINE",
"165 618 LINE",
"165 695 LINE SMOOTH",
"165 862 OFFCURVE",
"257 879 OFFCURVE",
"404 879 CURVE",
"428 879 LINE",
"570 879 OFFCURVE",
"659 862 OFFCURVE",
"660 695 CURVE SMOOTH",
"660 608 LINE",
"714 608 LINE",
"714 695 LINE",
"711 868 OFFCURVE",
"623 923 OFFCURVE",
"428 923 CURVE"
);
},
{
closed = 1;
nodes = (
"111 610 LINE",
"111 0 LINE",
"165 0 LINE",
"165 610 LINE"
);
},
{
closed = 1;
nodes = (
"-10 634 LINE",
"-10 590 LINE",
"285 590 LINE",
"285 634 LINE"
);
}
);
width = 274;
}
);
},
{
glyphname = "iMatra_reph-deva.02";
lastChange = "2014-10-13 14:29:59 +0000";
layers = (
{
components = (
{
name = "iMatra-deva.02";
transform = "{1, 0, 0, 1, 0, 0}";
}
);
layerId = "BE6E37CB-569E-4B40-A59A-BD6EE6EB60D7";
name = Light;
paths = (
{
closed = 1;
nodes = (
"670 625 LINE",
"714 625 LINE",
"714 786 LINE SMOOTH",
"714 857 OFFCURVE",
"753 879 OFFCURVE",
"801 879 CURVE SMOOTH",
"824 879 OFFCURVE",
"847 873 OFFCURVE",
"863 865 CURVE",
"863 912 LINE",
"849 918 OFFCURVE",
"828 923 OFFCURVE",
"801 923 CURVE SMOOTH",
"752 923 OFFCURVE",
"670 903 OFFCURVE",
"670 786 CURVE SMOOTH"
);
}
);
width = 274;
}
);
},
{
glyphname = "iMatra_reph_anusvara-deva.02";
lastChange = "2014-10-13 14:30:02 +0000";
layers = (
{
components = (
{
name = "iMatra-deva.02";
transform = "{1, 0, 0, 1, 0, 0}";
},
{
disableAlignment = 1;
name = "anusvara-deva";
transform = "{1, 0, 0, 1, 950, -6}";
}
);
layerId = "BE6E37CB-569E-4B40-A59A-BD6EE6EB60D7";
name = Light;
paths = (
{
closed = 1;
nodes = (
"670 625 LINE",
"714 625 LINE",
"714 786 LINE SMOOTH",
"714 857 OFFCURVE",
"753 879 OFFCURVE",
"801 879 CURVE SMOOTH",
"824 879 OFFCURVE",
"847 873 OFFCURVE",
"863 865 CURVE",
"863 912 LINE",
"849 918 OFFCURVE",
"828 923 OFFCURVE",
"801 923 CURVE SMOOTH",
"752 923 OFFCURVE",
"670 903 OFFCURVE",
"670 786 CURVE SMOOTH"
);
}
);
width = 274;
}
);
},
{
glyphname = "iMatra-deva.03";
lastChange = "2014-10-13 14:30:11 +0000";
layers = (
{
anchors = (
{
name = imatra;
position = "{728, 608}";
},
{
name = top;
position = "{770, 608}";
}
);
layerId = "BE6E37CB-569E-4B40-A59A-BD6EE6EB60D7";
name = Light;
paths = (
{
closed = 1;
nodes = (
"411 923 LINE",
"205 923 OFFCURVE",
"111 868 OFFCURVE",
"111 695 CURVE SMOOTH",
"111 618 LINE",
"165 618 LINE",
"165 695 LINE SMOOTH",
"165 862 OFFCURVE",
"259 879 OFFCURVE",
"411 879 CURVE",
"442 879 LINE",
"584 879 OFFCURVE",
"673 862 OFFCURVE",
"674 695 CURVE SMOOTH",
"674 608 LINE",
"728 608 LINE",
"728 695 LINE",
"725 868 OFFCURVE",
"637 923 OFFCURVE",
"442 923 CURVE"
);
},
{
closed = 1;
nodes = (
"111 610 LINE",
"111 0 LINE",
"165 0 LINE",
"165 610 LINE"
);
},
{
closed = 1;
nodes = (
"-10 634 LINE",
"-10 590 LINE",
"285 590 LINE",
"285 634 LINE"
);
}
);
width = 274;
}
);
},
{
glyphname = "iMatra_reph-deva.03";
lastChange = "2014-10-13 14:30:14 +0000";
layers = (
{
components = (
{
name = "iMatra-deva.03";
transform = "{1, 0, 0, 1, 0, 0}";
}
);
layerId = "BE6E37CB-569E-4B40-A59A-BD6EE6EB60D7";
name = Light;
paths = (
{
closed = 1;
nodes = (
"684 625 LINE",
"728 625 LINE",
"728 786 LINE SMOOTH",
"728 857 OFFCURVE",
"767 879 OFFCURVE",
"815 879 CURVE SMOOTH",
"838 879 OFFCURVE",
"861 873 OFFCURVE",
"877 865 CURVE",
"877 912 LINE",
"863 918 OFFCURVE",
"842 923 OFFCURVE",
"815 923 CURVE SMOOTH",
"766 923 OFFCURVE",
"684 903 OFFCURVE",
"684 786 CURVE SMOOTH"
);
}
);
width = 274;
}
);
},
{
glyphname = "iMatra_reph_anusvara-deva.03";
lastChange = "2014-10-13 14:30:18 +0000";
layers = (
{
components = (
{
name = "iMatra-deva.03";
transform = "{1, 0, 0, 1, 0, 0}";
},
{
disableAlignment = 1;
name = "anusvara-deva";
transform = "{1, 0, 0, 1, 964, -6}";
}
);
layerId = "BE6E37CB-569E-4B40-A59A-BD6EE6EB60D7";
name = Light;
paths = (
{
closed = 1;
nodes = (
"684 625 LINE",
"728 625 LINE",
"728 786 LINE SMOOTH",
"728 857 OFFCURVE",
"767 879 OFFCURVE",
"815 879 CURVE SMOOTH",
"838 879 OFFCURVE",
"861 873 OFFCURVE",
"877 865 CURVE",
"877 912 LINE",
"863 918 OFFCURVE",
"842 923 OFFCURVE",
"815 923 CURVE SMOOTH",
"766 923 OFFCURVE",
"684 903 OFFCURVE",
"684 786 CURVE SMOOTH"
);
}
);
width = 274;
}
);
},
{
glyphname = "iMatra-deva.04";
lastChange = "2014-10-13 14:30:27 +0000";
layers = (
{
anchors = (
{
name = imatra;
position = "{744, 608}";
},
{
name = top;
position = "{786, 608}";
}
);
layerId = "BE6E37CB-569E-4B40-A59A-BD6EE6EB60D7";
name = Light;
paths = (
{
closed = 1;
nodes = (
"419 923 LINE",
"207 923 OFFCURVE",
"111 868 OFFCURVE",
"111 695 CURVE SMOOTH",
"111 618 LINE",
"165 618 LINE",
"165 695 LINE SMOOTH",
"165 862 OFFCURVE",
"262 879 OFFCURVE",
"419 879 CURVE",
"450 879 LINE",
"597 879 OFFCURVE",
"690 862 OFFCURVE",
"690 695 CURVE SMOOTH",
"690 608 LINE",
"744 608 LINE",
"744 695 LINE",
"744 868 OFFCURVE",
"650 923 OFFCURVE",
"450 923 CURVE"
);
},
{
closed = 1;
nodes = (
"111 610 LINE",
"111 0 LINE",
"165 0 LINE",
"165 610 LINE"
);
},
{
closed = 1;
nodes = (
"-10 634 LINE",
"-10 590 LINE",
"285 590 LINE",
"285 634 LINE"
);
}
);
width = 274;
}
);
},
{
glyphname = "iMatra_reph-deva.04";
lastChange = "2014-10-13 14:30:31 +0000";
layers = (
{
components = (
{
name = "iMatra-deva.04";
transform = "{1, 0, 0, 1, 0, 0}";
}
);
layerId = "BE6E37CB-569E-4B40-A59A-BD6EE6EB60D7";
name = Light;
paths = (
{
closed = 1;
nodes = (
"700 625 LINE",
"744 625 LINE",
"744 786 LINE SMOOTH",
"744 857 OFFCURVE",
"783 879 OFFCURVE",
"831 879 CURVE SMOOTH",
"854 879 OFFCURVE",
"877 873 OFFCURVE",
"893 865 CURVE",
"893 912 LINE",
"879 918 OFFCURVE",
"858 923 OFFCURVE",
"831 923 CURVE SMOOTH",
"782 923 OFFCURVE",
"700 903 OFFCURVE",
"700 786 CURVE SMOOTH"
);
}
);
width = 274;
}
);
},
{
glyphname = "iMatra_reph_anusvara-deva.04";
lastChange = "2014-10-13 14:30:34 +0000";
layers = (
{
components = (
{
name = "iMatra-deva.04";
transform = "{1, 0, 0, 1, 0, 0}";
},
{
disableAlignment = 1;
name = "anusvara-deva";
transform = "{1, 0, 0, 1, 980, -6}";
}
);
layerId = "BE6E37CB-569E-4B40-A59A-BD6EE6EB60D7";
name = Light;
paths = (
{
closed = 1;
nodes = (
"700 625 LINE",
"744 625 LINE",
"744 786 LINE SMOOTH",
"744 857 OFFCURVE",
"783 879 OFFCURVE",
"831 879 CURVE SMOOTH",
"854 879 OFFCURVE",
"877 873 OFFCURVE",
"893 865 CURVE",
"893 912 LINE",
"879 918 OFFCURVE",
"858 923 OFFCURVE",
"831 923 CURVE SMOOTH",
"782 923 OFFCURVE",
"700 903 OFFCURVE",
"700 786 CURVE SMOOTH"
);
}
);
width = 274;
}
);
},
{
glyphname = "iMatra-deva.045";
lastChange = "2014-11-03 23:45:26 +0000";
layers = (
{
anchors = (
{
name = imatra;
position = "{755, 608}";
},
{
name = top;
position = "{797, 608}";
}
);
layerId = "BE6E37CB-569E-4B40-A59A-BD6EE6EB60D7";
name = Light;
paths = (
{
closed = 1;
nodes = (
"419 923 LINE",
"207 923 OFFCURVE",
"111 868 OFFCURVE",
"111 695 CURVE SMOOTH",
"111 618 LINE",
"165 618 LINE",
"165 695 LINE SMOOTH",
"165 862 OFFCURVE",
"262 879 OFFCURVE",
"419 879 CURVE",
"461 879 LINE",
"608 879 OFFCURVE",
"701 862 OFFCURVE",
"701 695 CURVE SMOOTH",
"701 608 LINE",
"755 608 LINE",
"755 695 LINE",
"755 868 OFFCURVE",
"661 923 OFFCURVE",
"461 923 CURVE"
);
},
{
closed = 1;
nodes = (
"111 610 LINE",
"111 0 LINE",
"165 0 LINE",
"165 610 LINE"
);
},
{
closed = 1;
nodes = (
"-10 634 LINE",
"-10 590 LINE",
"285 590 LINE",
"285 634 LINE"
);
}
);
width = 274;
}
);
},
{
glyphname = "iMatra_reph-deva.045";
lastChange = "2014-11-04 00:07:13 +0000";
layers = (
{
components = (
{
name = "iMatra-deva.045";
transform = "{1, 0, 0, 1, 0, 0}";
}
);
layerId = "BE6E37CB-569E-4B40-A59A-BD6EE6EB60D7";
name = Light;
paths = (
{
closed = 1;
nodes = (
"711 625 LINE",
"755 625 LINE",
"755 786 LINE SMOOTH",
"755 857 OFFCURVE",
"794 879 OFFCURVE",
"842 879 CURVE SMOOTH",
"865 879 OFFCURVE",
"888 873 OFFCURVE",
"904 865 CURVE",
"904 912 LINE",
"890 918 OFFCURVE",
"869 923 OFFCURVE",
"842 923 CURVE SMOOTH",
"793 923 OFFCURVE",
"711 903 OFFCURVE",
"711 786 CURVE SMOOTH"
);
}
);
width = 274;
}
);
},
{
glyphname = "iMatra_reph_anusvara-deva.045";
lastChange = "2014-11-04 00:08:27 +0000";
layers = (
{
background = {
paths = (
{
closed = 1;
nodes = (
"710 625 LINE",
"754 625 LINE",
"754 786 LINE SMOOTH",
"754 857 OFFCURVE",
"793 879 OFFCURVE",
"841 879 CURVE SMOOTH",
"864 879 OFFCURVE",
"887 873 OFFCURVE",
"903 865 CURVE",
"903 912 LINE",
"889 918 OFFCURVE",
"868 923 OFFCURVE",
"841 923 CURVE SMOOTH",
"792 923 OFFCURVE",
"710 903 OFFCURVE",
"710 786 CURVE SMOOTH"
);
},
{
closed = 1;
nodes = (
"795 751 LINE",
"852 695 LINE",
"909 751 LINE",
"852 808 LINE"
);
}
);
};
components = (
{
name = "iMatra-deva.045";
transform = "{1, 0, 0, 1, 0, 0}";
},
{
name = "anusvara-deva";
transform = "{1, 0, 0, 1, 990, -6}";
}
);
layerId = "BE6E37CB-569E-4B40-A59A-BD6EE6EB60D7";
name = Light;
paths = (
{
closed = 1;
nodes = (
"711 625 LINE",
"755 625 LINE",
"755 786 LINE SMOOTH",
"755 857 OFFCURVE",
"794 879 OFFCURVE",
"842 879 CURVE SMOOTH",
"865 879 OFFCURVE",
"888 873 OFFCURVE",
"904 865 CURVE",
"904 912 LINE",
"890 918 OFFCURVE",
"869 923 OFFCURVE",
"842 923 CURVE SMOOTH",
"793 923 OFFCURVE",
"711 903 OFFCURVE",
"711 786 CURVE SMOOTH"
);
}
);
width = 274;
}
);
},
{
glyphname = "iMatra-deva.05";
lastChange = "2014-10-13 14:30:40 +0000";
layers = (
{
anchors = (
{
name = imatra;
position = "{770, 598}";
},
{
name = top;
position = "{806, 598}";
}
);
background = {
paths = (
{
closed = 1;
nodes = (
"110 610 LINE",
"110 0 LINE",
"164 0 LINE",
"164 610 LINE"
);
},
{
closed = 1;
nodes = (
"-10 634 LINE",
"-10 590 LINE",
"284 590 LINE",
"284 634 LINE"
);
}
);
};
layerId = "BE6E37CB-569E-4B40-A59A-BD6EE6EB60D7";
name = Light;
paths = (
{
closed = 1;
nodes = (
"410 923 LINE",
"204 923 OFFCURVE",
"110 868 OFFCURVE",
"110 695 CURVE SMOOTH",
"110 618 LINE",
"164 618 LINE",
"164 695 LINE SMOOTH",
"164 862 OFFCURVE",
"259 879 OFFCURVE",
"410 879 CURVE",
"470 879 LINE",
"621 879 OFFCURVE",
"716 862 OFFCURVE",
"716 695 CURVE SMOOTH",
"716 598 LINE",
"770 598 LINE",
"770 695 LINE",
"767 868 OFFCURVE",
"675 923 OFFCURVE",
"470 923 CURVE"
);
},
{
closed = 1;
nodes = (
"110 610 LINE",
"110 0 LINE",
"164 0 LINE",
"164 610 LINE"
);
},
{
closed = 1;
nodes = (
"-10 634 LINE",
"-10 590 LINE",
"284 590 LINE",
"284 634 LINE"
);
}
);
width = 274;
}
);
},
{
glyphname = "iMatra_reph-deva.05";
lastChange = "2014-10-13 14:30:45 +0000";
layers = (
{
components = (
{
name = "iMatra-deva.05";
transform = "{1, 0, 0, 1, 0, 0}";
},
{
disableAlignment = 1;
name = "anusvara-deva";
transform = "{1, 0, 0, 1, 1006, -6}";
}
);
layerId = "BE6E37CB-569E-4B40-A59A-BD6EE6EB60D7";
name = Light;
paths = (
{
closed = 1;
nodes = (
"726 625 LINE",
"770 625 LINE",
"770 786 LINE SMOOTH",
"770 857 OFFCURVE",
"809 879 OFFCURVE",
"857 879 CURVE SMOOTH",
"880 879 OFFCURVE",
"903 873 OFFCURVE",
"919 865 CURVE",
"919 912 LINE",
"905 918 OFFCURVE",
"884 923 OFFCURVE",
"857 923 CURVE SMOOTH",
"808 923 OFFCURVE",
"726 903 OFFCURVE",
"726 786 CURVE SMOOTH"
);
}
);
width = 274;
}
);
},
{
glyphname = "iMatra_reph_anusvara-deva.05";
lastChange = "2014-10-13 14:30:47 +0000";
layers = (
{
components = (
{
name = "iMatra-deva.05";
transform = "{1, 0, 0, 1, 0, 0}";
},
{
disableAlignment = 1;
name = "anusvara-deva";
transform = "{1, 0, 0, 1, 1006, -6}";
}
);
layerId = "BE6E37CB-569E-4B40-A59A-BD6EE6EB60D7";
name = Light;
paths = (
{
closed = 1;
nodes = (
"726 625 LINE",
"770 625 LINE",
"770 786 LINE SMOOTH",
"770 857 OFFCURVE",
"809 879 OFFCURVE",
"857 879 CURVE SMOOTH",
"880 879 OFFCURVE",
"903 873 OFFCURVE",
"919 865 CURVE",
"919 912 LINE",
"905 918 OFFCURVE",
"884 923 OFFCURVE",
"857 923 CURVE SMOOTH",
"808 923 OFFCURVE",
"726 903 OFFCURVE",
"726 786 CURVE SMOOTH"
);
}
);
width = 274;
}
);
},
{
glyphname = "iMatra-deva.055";
lastChange = "2014-11-03 23:47:16 +0000";
layers = (
{
anchors = (
{
name = imatra;
position = "{810, 598}";
},
{
name = top;
position = "{846, 598}";
}
);
layerId = "BE6E37CB-569E-4B40-A59A-BD6EE6EB60D7";
name = Light;
paths = (
{
closed = 1;
nodes = (
"410 923 LINE",
"204 923 OFFCURVE",
"110 868 OFFCURVE",
"110 695 CURVE SMOOTH",
"110 618 LINE",
"164 618 LINE",
"164 695 LINE SMOOTH",
"164 862 OFFCURVE",
"259 879 OFFCURVE",
"410 879 CURVE",
"510 879 LINE",
"661 879 OFFCURVE",
"756 862 OFFCURVE",
"756 695 CURVE SMOOTH",
"756 598 LINE",
"810 598 LINE",
"810 695 LINE",
"807 868 OFFCURVE",
"715 923 OFFCURVE",
"510 923 CURVE"
);
},
{
closed = 1;
nodes = (
"110 610 LINE",
"110 0 LINE",
"164 0 LINE",
"164 610 LINE"
);
},
{
closed = 1;
nodes = (
"-10 634 LINE",
"-10 590 LINE",
"284 590 LINE",
"284 634 LINE"
);
}
);
width = 274;
}
);
},
{
glyphname = "iMatra_reph-deva.055";
lastChange = "2014-11-04 00:09:03 +0000";
layers = (
{
components = (
{
name = "iMatra-deva.055";
transform = "{1, 0, 0, 1, 0, 0}";
}
);
layerId = "BE6E37CB-569E-4B40-A59A-BD6EE6EB60D7";
name = Light;
paths = (
{
closed = 1;
nodes = (
"766 625 LINE",
"810 625 LINE",
"810 786 LINE SMOOTH",
"810 857 OFFCURVE",
"849 879 OFFCURVE",
"897 879 CURVE SMOOTH",
"920 879 OFFCURVE",
"943 873 OFFCURVE",
"959 865 CURVE",
"959 912 LINE",
"945 918 OFFCURVE",
"924 923 OFFCURVE",
"897 923 CURVE SMOOTH",
"848 923 OFFCURVE",
"766 903 OFFCURVE",
"766 786 CURVE SMOOTH"
);
}
);
width = 274;
}
);
},
{
glyphname = "iMatra_reph_anusvara-deva.055";
lastChange = "2014-11-04 00:09:38 +0000";
layers = (
{
background = {
paths = (
{
closed = 1;
nodes = (
"766 625 LINE",
"810 625 LINE",
"810 786 LINE SMOOTH",
"810 857 OFFCURVE",
"849 879 OFFCURVE",
"897 879 CURVE SMOOTH",
"920 879 OFFCURVE",
"943 873 OFFCURVE",
"959 865 CURVE",
"959 912 LINE",
"945 918 OFFCURVE",
"924 923 OFFCURVE",
"897 923 CURVE SMOOTH",
"848 923 OFFCURVE",
"766 903 OFFCURVE",
"766 786 CURVE SMOOTH"
);
},
{
closed = 1;
nodes = (
"851 751 LINE",
"908 695 LINE",
"965 751 LINE",
"908 808 LINE"
);
}
);
};
components = (
{
name = "iMatra-deva.055";
transform = "{1, 0, 0, 1, 0, 0}";
},
{
name = "anusvara-deva";
transform = "{1, 0, 0, 1, 1046, -6}";
}
);
layerId = "BE6E37CB-569E-4B40-A59A-BD6EE6EB60D7";
name = Light;
paths = (
{
closed = 1;
nodes = (
"766 625 LINE",
"810 625 LINE",
"810 786 LINE SMOOTH",
"810 857 OFFCURVE",
"849 879 OFFCURVE",
"897 879 CURVE SMOOTH",
"920 879 OFFCURVE",
"943 873 OFFCURVE",
"959 865 CURVE",
"959 912 LINE",
"945 918 OFFCURVE",
"924 923 OFFCURVE",
"897 923 CURVE SMOOTH",
"848 923 OFFCURVE",
"766 903 OFFCURVE",
"766 786 CURVE SMOOTH"
);
}
);
width = 274;
}
);
},
{
glyphname = "iMatra-deva.057";
lastChange = "2014-11-03 23:47:47 +0000";
layers = (
{
anchors = (
{
name = imatra;
position = "{825, 598}";
},
{
name = top;
position = "{861, 598}";
}
);
layerId = "BE6E37CB-569E-4B40-A59A-BD6EE6EB60D7";
name = Light;
paths = (
{
closed = 1;
nodes = (
"410 923 LINE",
"204 923 OFFCURVE",
"110 868 OFFCURVE",
"110 695 CURVE SMOOTH",
"110 618 LINE",
"164 618 LINE",
"164 695 LINE SMOOTH",
"164 862 OFFCURVE",
"259 879 OFFCURVE",
"410 879 CURVE",
"525 879 LINE",
"676 879 OFFCURVE",
"771 862 OFFCURVE",
"771 695 CURVE SMOOTH",
"771 598 LINE",
"825 598 LINE",
"825 695 LINE",
"822 868 OFFCURVE",
"730 923 OFFCURVE",
"525 923 CURVE"
);
},
{
closed = 1;
nodes = (
"110 610 LINE",
"110 0 LINE",
"164 0 LINE",
"164 610 LINE"
);
},
{
closed = 1;
nodes = (
"-10 634 LINE",
"-10 590 LINE",
"284 590 LINE",
"284 634 LINE"
);
}
);
width = 274;
}
);
},
{
glyphname = "iMatra_reph-deva.057";
lastChange = "2014-11-04 00:11:03 +0000";
layers = (
{
background = {
paths = (
{
closed = 1;
nodes = (
"781 625 LINE",
"825 625 LINE",
"825 786 LINE SMOOTH",
"825 857 OFFCURVE",
"864 879 OFFCURVE",
"912 879 CURVE SMOOTH",
"935 879 OFFCURVE",
"958 873 OFFCURVE",
"974 865 CURVE",
"974 912 LINE",
"960 918 OFFCURVE",
"939 923 OFFCURVE",
"912 923 CURVE SMOOTH",
"863 923 OFFCURVE",
"781 903 OFFCURVE",
"781 786 CURVE SMOOTH"
);
},
{
closed = 1;
nodes = (
"866 751 LINE",
"923 695 LINE",
"980 751 LINE",
"923 808 LINE"
);
}
);
};
components = (
{
name = "iMatra-deva.057";
transform = "{1, 0, 0, 1, 0, 0}";
}
);
layerId = "BE6E37CB-569E-4B40-A59A-BD6EE6EB60D7";
name = Light;
paths = (
{
closed = 1;
nodes = (
"781 625 LINE",
"825 625 LINE",
"825 786 LINE SMOOTH",
"825 857 OFFCURVE",
"864 879 OFFCURVE",
"912 879 CURVE SMOOTH",
"935 879 OFFCURVE",
"958 873 OFFCURVE",
"974 865 CURVE",
"974 912 LINE",
"960 918 OFFCURVE",
"939 923 OFFCURVE",
"912 923 CURVE SMOOTH",
"863 923 OFFCURVE",
"781 903 OFFCURVE",
"781 786 CURVE SMOOTH"
);
}
);
width = 274;
}
);
},
{
glyphname = "iMatra_reph_anusvara-deva.057";
lastChange = "2014-11-04 00:10:59 +0000";
layers = (
{
components = (
{
name = "iMatra-deva.057";
transform = "{1, 0, 0, 1, 0, 0}";
},
{
name = "anusvara-deva";
transform = "{1, 0, 0, 1, 1061, -6}";
}
);
layerId = "BE6E37CB-569E-4B40-A59A-BD6EE6EB60D7";
name = Light;
paths = (
{
closed = 1;
nodes = (
"781 625 LINE",
"825 625 LINE",
"825 786 LINE SMOOTH",
"825 857 OFFCURVE",
"864 879 OFFCURVE",
"912 879 CURVE SMOOTH",
"935 879 OFFCURVE",
"958 873 OFFCURVE",
"974 865 CURVE",
"974 912 LINE",
"960 918 OFFCURVE",
"939 923 OFFCURVE",
"912 923 CURVE SMOOTH",
"863 923 OFFCURVE",
"781 903 OFFCURVE",
"781 786 CURVE SMOOTH"
);
}
);
width = 274;
}
);
},
{
glyphname = "iMatra-deva.059";
lastChange = "2014-11-03 23:49:38 +0000";
layers = (
{
anchors = (
{
name = imatra;
position = "{843, 598}";
},
{
name = top;
position = "{879, 598}";
}
);
layerId = "BE6E37CB-569E-4B40-A59A-BD6EE6EB60D7";
name = Light;
paths = (
{
closed = 1;
nodes = (
"410 923 LINE",
"204 923 OFFCURVE",
"110 868 OFFCURVE",
"110 695 CURVE SMOOTH",
"110 618 LINE",
"164 618 LINE",
"164 695 LINE SMOOTH",
"164 862 OFFCURVE",
"259 879 OFFCURVE",
"410 879 CURVE",
"543 879 LINE",
"694 879 OFFCURVE",
"789 862 OFFCURVE",
"789 695 CURVE SMOOTH",
"789 598 LINE",
"843 598 LINE",
"843 695 LINE",
"840 868 OFFCURVE",
"748 923 OFFCURVE",
"543 923 CURVE"
);
},
{
closed = 1;
nodes = (
"110 610 LINE",
"110 0 LINE",
"164 0 LINE",
"164 610 LINE"
);
},
{
closed = 1;
nodes = (
"-10 634 LINE",
"-10 590 LINE",
"284 590 LINE",
"284 634 LINE"
);
}
);
width = 274;
}
);
},
{
glyphname = "iMatra_reph-deva.059";
lastChange = "2014-11-04 00:11:24 +0000";
layers = (
{
components = (
{
name = "iMatra-deva.059";
transform = "{1, 0, 0, 1, 0, 0}";
}
);
layerId = "BE6E37CB-569E-4B40-A59A-BD6EE6EB60D7";
name = Light;
paths = (
{
closed = 1;
nodes = (
"799 625 LINE",
"843 625 LINE",
"843 786 LINE SMOOTH",
"843 857 OFFCURVE",
"882 879 OFFCURVE",
"930 879 CURVE SMOOTH",
"953 879 OFFCURVE",
"976 873 OFFCURVE",
"992 865 CURVE",
"992 912 LINE",
"978 918 OFFCURVE",
"957 923 OFFCURVE",
"930 923 CURVE SMOOTH",
"881 923 OFFCURVE",
"799 903 OFFCURVE",
"799 786 CURVE SMOOTH"
);
}
);
width = 274;
}
);
},
{
glyphname = "iMatra_reph_anusvara-deva.059";
lastChange = "2014-11-04 00:11:56 +0000";
layers = (
{
background = {
paths = (
{
closed = 1;
nodes = (
"799 625 LINE",
"843 625 LINE",
"843 786 LINE SMOOTH",
"843 857 OFFCURVE",
"882 879 OFFCURVE",
"930 879 CURVE SMOOTH",
"953 879 OFFCURVE",
"976 873 OFFCURVE",
"992 865 CURVE",
"992 912 LINE",
"978 918 OFFCURVE",
"957 923 OFFCURVE",
"930 923 CURVE SMOOTH",
"881 923 OFFCURVE",
"799 903 OFFCURVE",
"799 786 CURVE SMOOTH"
);
},
{
closed = 1;
nodes = (
"884 751 LINE",
"941 695 LINE",
"998 751 LINE",
"941 808 LINE"
);
}
);
};
components = (
{
name = "iMatra-deva.059";
transform = "{1, 0, 0, 1, 0, 0}";
},
{
name = "anusvara-deva";
transform = "{1, 0, 0, 1, 1079, -6}";
}
);
layerId = "BE6E37CB-569E-4B40-A59A-BD6EE6EB60D7";
name = Light;
paths = (
{
closed = 1;
nodes = (
"799 625 LINE",
"843 625 LINE",
"843 786 LINE SMOOTH",
"843 857 OFFCURVE",
"882 879 OFFCURVE",
"930 879 CURVE SMOOTH",
"953 879 OFFCURVE",
"976 873 OFFCURVE",
"992 865 CURVE",
"992 912 LINE",
"978 918 OFFCURVE",
"957 923 OFFCURVE",
"930 923 CURVE SMOOTH",
"881 923 OFFCURVE",
"799 903 OFFCURVE",
"799 786 CURVE SMOOTH"
);
}
);
width = 274;
}
);
},
{
glyphname = "iMatra-deva.06";
lastChange = "2014-10-13 14:30:54 +0000";
layers = (
{
anchors = (
{
name = imatra;
position = "{866, 598}";
},
{
name = top;
position = "{900, 598}";
}
);
layerId = "BE6E37CB-569E-4B40-A59A-BD6EE6EB60D7";
name = Light;
paths = (
{
closed = 1;
nodes = (
"421 923 LINE",
"208 923 OFFCURVE",
"110 868 OFFCURVE",
"110 695 CURVE SMOOTH",
"110 618 LINE",
"164 618 LINE",
"164 695 LINE SMOOTH",
"164 862 OFFCURVE",
"263 879 OFFCURVE",
"421 879 CURVE",
"555 879 LINE",
"713 879 OFFCURVE",
"812 862 OFFCURVE",
"812 695 CURVE SMOOTH",
"812 598 LINE",
"866 598 LINE",
"866 695 LINE",
"863 868 OFFCURVE",
"768 923 OFFCURVE",
"555 923 CURVE"
);
},
{
closed = 1;
nodes = (
"110 610 LINE",
"110 0 LINE",
"164 0 LINE",
"164 610 LINE"
);
},
{
closed = 1;
nodes = (
"-10 634 LINE",
"-10 590 LINE",
"284 590 LINE",
"284 634 LINE"
);
}
);
width = 274;
}
);
},
{
glyphname = "iMatra_reph-deva.06";
lastChange = "2014-10-13 14:30:58 +0000";
layers = (
{
components = (
{
name = "iMatra-deva.06";
transform = "{1, 0, 0, 1, 0, 0}";
}
);
layerId = "BE6E37CB-569E-4B40-A59A-BD6EE6EB60D7";
name = Light;
paths = (
{
closed = 1;
nodes = (
"822 625 LINE",
"866 625 LINE",
"866 786 LINE SMOOTH",
"866 857 OFFCURVE",
"905 879 OFFCURVE",
"953 879 CURVE SMOOTH",
"976 879 OFFCURVE",
"999 873 OFFCURVE",
"1015 865 CURVE",
"1015 912 LINE",
"1001 918 OFFCURVE",
"980 923 OFFCURVE",
"953 923 CURVE SMOOTH",
"904 923 OFFCURVE",
"822 903 OFFCURVE",
"822 786 CURVE SMOOTH"
);
}
);
width = 274;
}
);
},
{
glyphname = "iMatra_reph_anusvara-deva.06";
lastChange = "2014-10-13 14:31:00 +0000";
layers = (
{
components = (
{
name = "iMatra-deva.06";
transform = "{1, 0, 0, 1, 0, 0}";
},
{
disableAlignment = 1;
name = "anusvara-deva";
transform = "{1, 0, 0, 1, 1102, -6}";
}
);
layerId = "BE6E37CB-569E-4B40-A59A-BD6EE6EB60D7";
name = Light;
paths = (
{
closed = 1;
nodes = (
"822 625 LINE",
"866 625 LINE",
"866 786 LINE SMOOTH",
"866 857 OFFCURVE",
"905 879 OFFCURVE",
"953 879 CURVE SMOOTH",
"976 879 OFFCURVE",
"999 873 OFFCURVE",
"1015 865 CURVE",
"1015 912 LINE",
"1001 918 OFFCURVE",
"980 923 OFFCURVE",
"953 923 CURVE SMOOTH",
"904 923 OFFCURVE",
"822 903 OFFCURVE",
"822 786 CURVE SMOOTH"
);
}
);
width = 274;
}
);
},
{
glyphname = "iMatra-deva.07";
lastChange = "2014-10-13 14:29:02 +0000";
layers = (
{
anchors = (
{
name = imatra;
position = "{896, 598}";
},
{
name = top;
position = "{930, 598}";
}
);
layerId = "BE6E37CB-569E-4B40-A59A-BD6EE6EB60D7";
name = Light;
paths = (
{
closed = 1;
nodes = (
"421 923 LINE",
"208 923 OFFCURVE",
"110 868 OFFCURVE",
"110 695 CURVE SMOOTH",
"110 618 LINE",
"164 618 LINE",
"164 695 LINE SMOOTH",
"164 862 OFFCURVE",
"263 879 OFFCURVE",
"421 879 CURVE",
"585 879 LINE",
"743 879 OFFCURVE",
"842 862 OFFCURVE",
"842 695 CURVE SMOOTH",
"842 598 LINE",
"896 598 LINE",
"896 695 LINE",
"893 868 OFFCURVE",
"798 923 OFFCURVE",
"585 923 CURVE"
);
},
{
closed = 1;
nodes = (
"110 610 LINE",
"110 0 LINE",
"164 0 LINE",
"164 610 LINE"
);
},
{
closed = 1;
nodes = (
"-10 634 LINE",
"-10 590 LINE",
"284 590 LINE",
"284 634 LINE"
);
}
);
width = 274;
}
);
},
{
glyphname = "iMatra_reph-deva.07";
lastChange = "2014-10-13 14:23:55 +0000";
layers = (
{
anchors = (
{
name = iMatra;
position = "{896, 598}";
}
);
components = (
{
name = "iMatra-deva.07";
transform = "{1, 0, 0, 1, 0, 0}";
}
);
layerId = "BE6E37CB-569E-4B40-A59A-BD6EE6EB60D7";
name = Light;
paths = (
{
closed = 1;
nodes = (
"852 625 LINE",
"896 625 LINE",
"896 786 LINE SMOOTH",
"896 857 OFFCURVE",
"935 879 OFFCURVE",
"983 879 CURVE SMOOTH",
"1006 879 OFFCURVE",
"1029 873 OFFCURVE",
"1045 865 CURVE",
"1045 912 LINE",
"1031 918 OFFCURVE",
"1010 923 OFFCURVE",
"983 923 CURVE SMOOTH",
"934 923 OFFCURVE",
"852 903 OFFCURVE",
"852 786 CURVE SMOOTH"
);
}
);
width = 274;
}
);
},
{
glyphname = "iMatra_reph_anusvara-deva.07";
lastChange = "2014-10-13 14:23:55 +0000";
layers = (
{
anchors = (
{
name = iMatra;
position = "{896, 598}";
}
);
components = (
{
name = "iMatra-deva.07";
transform = "{1, 0, 0, 1, 0, 0}";
},
{
disableAlignment = 1;
name = "anusvara-deva";
transform = "{1, 0, 0, 1, 1132, -6}";
}
);
layerId = "BE6E37CB-569E-4B40-A59A-BD6EE6EB60D7";
name = Light;
paths = (
{
closed = 1;
nodes = (
"852 625 LINE",
"896 625 LINE",
"896 786 LINE SMOOTH",
"896 857 OFFCURVE",
"935 879 OFFCURVE",
"983 879 CURVE SMOOTH",
"1006 879 OFFCURVE",
"1029 873 OFFCURVE",
"1045 865 CURVE",
"1045 912 LINE",
"1031 918 OFFCURVE",
"1010 923 OFFCURVE",
"983 923 CURVE SMOOTH",
"934 923 OFFCURVE",
"852 903 OFFCURVE",
"852 786 CURVE SMOOTH"
);
}
);
width = 274;
}
);
},
{
glyphname = "iMatra-deva.073";
lastChange = "2014-11-03 23:50:30 +0000";
layers = (
{
anchors = (
{
name = imatra;
position = "{912, 598}";
},
{
name = top;
position = "{946, 598}";
}
);
layerId = "BE6E37CB-569E-4B40-A59A-BD6EE6EB60D7";
name = Light;
paths = (
{
closed = 1;
nodes = (
"421 923 LINE",
"208 923 OFFCURVE",
"110 868 OFFCURVE",
"110 695 CURVE SMOOTH",
"110 618 LINE",
"164 618 LINE",
"164 695 LINE SMOOTH",
"164 862 OFFCURVE",
"263 879 OFFCURVE",
"421 879 CURVE",
"601 879 LINE",
"759 879 OFFCURVE",
"858 862 OFFCURVE",
"858 695 CURVE SMOOTH",
"858 598 LINE",
"912 598 LINE",
"912 695 LINE",
"909 868 OFFCURVE",
"814 923 OFFCURVE",
"601 923 CURVE"
);
},
{
closed = 1;
nodes = (
"110 610 LINE",
"110 0 LINE",
"164 0 LINE",
"164 610 LINE"
);
},
{
closed = 1;
nodes = (
"-10 634 LINE",
"-10 590 LINE",
"284 590 LINE",
"284 634 LINE"
);
}
);
width = 274;
}
);
},
{
glyphname = "iMatra_reph-deva.073";
lastChange = "2014-11-04 00:12:25 +0000";
layers = (
{
components = (
{
name = "iMatra-deva.073";
transform = "{1, 0, 0, 1, 0, 0}";
}
);
layerId = "BE6E37CB-569E-4B40-A59A-BD6EE6EB60D7";
name = Light;
paths = (
{
closed = 1;
nodes = (
"868 625 LINE",
"912 625 LINE",
"912 786 LINE SMOOTH",
"912 857 OFFCURVE",
"951 879 OFFCURVE",
"999 879 CURVE SMOOTH",
"1022 879 OFFCURVE",
"1045 873 OFFCURVE",
"1061 865 CURVE",
"1061 912 LINE",
"1047 918 OFFCURVE",
"1026 923 OFFCURVE",
"999 923 CURVE SMOOTH",
"950 923 OFFCURVE",
"868 903 OFFCURVE",
"868 786 CURVE SMOOTH"
);
}
);
width = 274;
}
);
},
{
glyphname = "iMatra_reph_anusvara-deva.073";
lastChange = "2014-11-04 00:12:57 +0000";
layers = (
{
background = {
paths = (
{
closed = 1;
nodes = (
"868 625 LINE",
"912 625 LINE",
"912 786 LINE SMOOTH",
"912 857 OFFCURVE",
"951 879 OFFCURVE",
"999 879 CURVE SMOOTH",
"1022 879 OFFCURVE",
"1045 873 OFFCURVE",
"1061 865 CURVE",
"1061 912 LINE",
"1047 918 OFFCURVE",
"1026 923 OFFCURVE",
"999 923 CURVE SMOOTH",
"950 923 OFFCURVE",
"868 903 OFFCURVE",
"868 786 CURVE SMOOTH"
);
},
{
closed = 1;
nodes = (
"953 751 LINE",
"1010 695 LINE",
"1067 751 LINE",
"1010 808 LINE"
);
}
);
};
components = (
{
name = "iMatra-deva.073";
transform = "{1, 0, 0, 1, 0, 0}";
},
{
name = "anusvara-deva";
transform = "{1, 0, 0, 1, 1148, -6}";
}
);
layerId = "BE6E37CB-569E-4B40-A59A-BD6EE6EB60D7";
name = Light;
paths = (
{
closed = 1;
nodes = (
"868 625 LINE",
"912 625 LINE",
"912 786 LINE SMOOTH",
"912 857 OFFCURVE",
"951 879 OFFCURVE",
"999 879 CURVE SMOOTH",
"1022 879 OFFCURVE",
"1045 873 OFFCURVE",
"1061 865 CURVE",
"1061 912 LINE",
"1047 918 OFFCURVE",
"1026 923 OFFCURVE",
"999 923 CURVE SMOOTH",
"950 923 OFFCURVE",
"868 903 OFFCURVE",
"868 786 CURVE SMOOTH"
);
}
);
width = 274;
}
);
},
{
glyphname = "iMatra-deva.075";
lastChange = "2014-11-03 23:51:10 +0000";
layers = (
{
anchors = (
{
name = imatra;
position = "{936, 598}";
},
{
name = top;
position = "{970, 598}";
}
);
layerId = "BE6E37CB-569E-4B40-A59A-BD6EE6EB60D7";
name = Light;
paths = (
{
closed = 1;
nodes = (
"421 923 LINE",
"208 923 OFFCURVE",
"110 868 OFFCURVE",
"110 695 CURVE SMOOTH",
"110 618 LINE",
"164 618 LINE",
"164 695 LINE SMOOTH",
"164 862 OFFCURVE",
"263 879 OFFCURVE",
"421 879 CURVE",
"625 879 LINE",
"783 879 OFFCURVE",
"882 862 OFFCURVE",
"882 695 CURVE SMOOTH",
"882 598 LINE",
"936 598 LINE",
"936 695 LINE",
"933 868 OFFCURVE",
"838 923 OFFCURVE",
"625 923 CURVE"
);
},
{
closed = 1;
nodes = (
"110 610 LINE",
"110 0 LINE",
"164 0 LINE",
"164 610 LINE"
);
},
{
closed = 1;
nodes = (
"-10 634 LINE",
"-10 590 LINE",
"284 590 LINE",
"284 634 LINE"
);
}
);
width = 274;
}
);
},
{
glyphname = "iMatra_reph-deva.075";
lastChange = "2014-11-04 00:13:20 +0000";
layers = (
{
components = (
{
name = "iMatra-deva.075";
transform = "{1, 0, 0, 1, 0, 0}";
}
);
layerId = "BE6E37CB-569E-4B40-A59A-BD6EE6EB60D7";
name = Light;
paths = (
{
closed = 1;
nodes = (
"892 625 LINE",
"936 625 LINE",
"936 786 LINE SMOOTH",
"936 857 OFFCURVE",
"975 879 OFFCURVE",
"1023 879 CURVE SMOOTH",
"1046 879 OFFCURVE",
"1069 873 OFFCURVE",
"1085 865 CURVE",
"1085 912 LINE",
"1071 918 OFFCURVE",
"1050 923 OFFCURVE",
"1023 923 CURVE SMOOTH",
"974 923 OFFCURVE",
"892 903 OFFCURVE",
"892 786 CURVE SMOOTH"
);
}
);
width = 274;
}
);
},
{
glyphname = "iMatra_reph_anusvara-deva.075";
lastChange = "2014-11-04 00:13:57 +0000";
layers = (
{
background = {
paths = (
{
closed = 1;
nodes = (
"892 625 LINE",
"936 625 LINE",
"936 786 LINE SMOOTH",
"936 857 OFFCURVE",
"975 879 OFFCURVE",
"1023 879 CURVE SMOOTH",
"1046 879 OFFCURVE",
"1069 873 OFFCURVE",
"1085 865 CURVE",
"1085 912 LINE",
"1071 918 OFFCURVE",
"1050 923 OFFCURVE",
"1023 923 CURVE SMOOTH",
"974 923 OFFCURVE",
"892 903 OFFCURVE",
"892 786 CURVE SMOOTH"
);
},
{
closed = 1;
nodes = (
"977 751 LINE",
"1034 695 LINE",
"1091 751 LINE",
"1034 808 LINE"
);
}
);
};
components = (
{
name = "iMatra-deva.075";
transform = "{1, 0, 0, 1, 0, 0}";
},
{
name = "anusvara-deva";
transform = "{1, 0, 0, 1, 1172, -6}";
}
);
layerId = "BE6E37CB-569E-4B40-A59A-BD6EE6EB60D7";
name = Light;
paths = (
{
closed = 1;
nodes = (
"892 625 LINE",
"936 625 LINE",
"936 786 LINE SMOOTH",
"936 857 OFFCURVE",
"975 879 OFFCURVE",
"1023 879 CURVE SMOOTH",
"1046 879 OFFCURVE",
"1069 873 OFFCURVE",
"1085 865 CURVE",
"1085 912 LINE",
"1071 918 OFFCURVE",
"1050 923 OFFCURVE",
"1023 923 CURVE SMOOTH",
"974 923 OFFCURVE",
"892 903 OFFCURVE",
"892 786 CURVE SMOOTH"
);
}
);
width = 274;
}
);
},
{
glyphname = "iMatra-deva.10";
lastChange = "2014-10-13 14:32:11 +0000";
layers = (
{
anchors = (
{
name = imatra;
position = "{958, 598}";
},
{
name = top;
position = "{996, 598}";
}
);
background = {
paths = (
{
closed = 1;
nodes = (
"110 610 LINE",
"110 0 LINE",
"164 0 LINE",
"164 610 LINE"
);
},
{
closed = 1;
nodes = (
"-10 634 LINE",
"-10 590 LINE",
"284 590 LINE",
"284 634 LINE"
);
}
);
};
layerId = "BE6E37CB-569E-4B40-A59A-BD6EE6EB60D7";
name = Light;
paths = (
{
closed = 1;
nodes = (
"421 923 LINE",
"208 923 OFFCURVE",
"110 868 OFFCURVE",
"110 695 CURVE SMOOTH",
"110 618 LINE",
"164 618 LINE",
"164 695 LINE SMOOTH",
"164 862 OFFCURVE",
"263 879 OFFCURVE",
"421 879 CURVE",
"647 879 LINE",
"805 879 OFFCURVE",
"904 862 OFFCURVE",
"904 695 CURVE SMOOTH",
"904 598 LINE",
"958 598 LINE",
"958 695 LINE",
"955 868 OFFCURVE",
"860 923 OFFCURVE",
"647 923 CURVE"
);
},
{
closed = 1;
nodes = (
"110 610 LINE",
"110 0 LINE",
"164 0 LINE",
"164 610 LINE"
);
},
{
closed = 1;
nodes = (
"-10 634 LINE",
"-10 590 LINE",
"284 590 LINE",
"284 634 LINE"
);
}
);
width = 274;
}
);
},
{
glyphname = "iMatra_reph-deva.10";
lastChange = "2014-10-13 14:32:15 +0000";
layers = (
{
components = (
{
name = "iMatra-deva.10";
transform = "{1, 0, 0, 1, 0, 0}";
}
);
layerId = "BE6E37CB-569E-4B40-A59A-BD6EE6EB60D7";
name = Light;
paths = (
{
closed = 1;
nodes = (
"914 625 LINE",
"958 625 LINE",
"958 786 LINE SMOOTH",
"958 857 OFFCURVE",
"997 879 OFFCURVE",
"1045 879 CURVE SMOOTH",
"1068 879 OFFCURVE",
"1091 873 OFFCURVE",
"1107 865 CURVE",
"1107 912 LINE",
"1093 918 OFFCURVE",
"1072 923 OFFCURVE",
"1045 923 CURVE SMOOTH",
"996 923 OFFCURVE",
"914 903 OFFCURVE",
"914 786 CURVE SMOOTH"
);
}
);
width = 274;
}
);
},
{
glyphname = "iMatra_reph_anusvara-deva.10";
lastChange = "2014-10-13 14:32:17 +0000";
layers = (
{
components = (
{
name = "iMatra-deva.10";
transform = "{1, 0, 0, 1, 0, 0}";
},
{
disableAlignment = 1;
name = "anusvara-deva";
transform = "{1, 0, 0, 1, 1194, -6}";
}
);
layerId = "BE6E37CB-569E-4B40-A59A-BD6EE6EB60D7";
name = Light;
paths = (
{
closed = 1;
nodes = (
"914 625 LINE",
"958 625 LINE",
"958 786 LINE SMOOTH",
"958 857 OFFCURVE",
"997 879 OFFCURVE",
"1045 879 CURVE SMOOTH",
"1068 879 OFFCURVE",
"1091 873 OFFCURVE",
"1107 865 CURVE",
"1107 912 LINE",
"1093 918 OFFCURVE",
"1072 923 OFFCURVE",
"1045 923 CURVE SMOOTH",
"996 923 OFFCURVE",
"914 903 OFFCURVE",
"914 786 CURVE SMOOTH"
);
}
);
width = 274;
}
);
},
{
glyphname = "iiMatra-deva.10";
lastChange = "2014-10-13 14:31:48 +0000";
layers = (
{
anchors = (
{
name = iimatra;
position = "{-425, 578}";
},
{
name = top;
position = "{274, 608}";
}
);
background = {
paths = (
{
closed = 1;
nodes = (
"110 610 LINE",
"110 0 LINE",
"164 0 LINE",
"164 610 LINE"
);
},
{
closed = 1;
nodes = (
"-10 634 LINE",
"-10 590 LINE",
"284 590 LINE",
"284 634 LINE"
);
}
);
};
layerId = "BE6E37CB-569E-4B40-A59A-BD6EE6EB60D7";
name = Light;
paths = (
{
closed = 1;
nodes = (
"110 0 LINE",
"164 0 LINE",
"164 610 LINE",
"110 610 LINE"
);
},
{
closed = 1;
nodes = (
"-10 590 LINE",
"284 590 LINE",
"284 634 LINE",
"-10 634 LINE"
);
},
{
closed = 1;
nodes = (
"-334 923 OFFCURVE",
"-425 868 OFFCURVE",
"-425 695 CURVE",
"-425 578 LINE",
"-371 578 LINE",
"-371 695 LINE SMOOTH",
"-371 862 OFFCURVE",
"-281 879 OFFCURVE",
"-139 879 CURVE",
"-122 879 LINE",
"21 879 OFFCURVE",
"110 862 OFFCURVE",
"110 695 CURVE SMOOTH",
"110 618 LINE",
"164 618 LINE",
"164 695 LINE SMOOTH",
"164 868 OFFCURVE",
"74 923 OFFCURVE",
"-122 923 CURVE",
"-139 923 LINE"
);
}
);
width = 274;
}
);
},
{
glyphname = "iiMatra_reph-deva.10";
lastChange = "2014-10-13 14:31:52 +0000";
layers = (
{
components = (
{
name = "iiMatra-deva.10";
transform = "{1, 0, 0, 1, 0, 0}";
}
);
layerId = "BE6E37CB-569E-4B40-A59A-BD6EE6EB60D7";
name = Light;
paths = (
{
closed = 1;
nodes = (
"120 625 LINE",
"164 625 LINE",
"164 786 LINE SMOOTH",
"164 857 OFFCURVE",
"203 879 OFFCURVE",
"251 879 CURVE SMOOTH",
"274 879 OFFCURVE",
"297 873 OFFCURVE",
"313 865 CURVE",
"313 912 LINE",
"299 918 OFFCURVE",
"278 923 OFFCURVE",
"251 923 CURVE SMOOTH",
"202 923 OFFCURVE",
"120 903 OFFCURVE",
"120 786 CURVE SMOOTH"
);
}
);
width = 274;
}
);
},
{
glyphname = "iiMatra_reph_anusvara-deva.10";
lastChange = "2014-10-13 14:31:55 +0000";
layers = (
{
components = (
{
name = "iiMatra-deva.10";
transform = "{1, 0, 0, 1, 0, 0}";
},
{
disableAlignment = 1;
name = "anusvara-deva";
transform = "{1, 0, 0, 1, 400, -6}";
}
);
layerId = "BE6E37CB-569E-4B40-A59A-BD6EE6EB60D7";
name = Light;
paths = (
{
closed = 1;
nodes = (
"120 625 LINE",
"164 625 LINE",
"164 786 LINE SMOOTH",
"164 857 OFFCURVE",
"203 879 OFFCURVE",
"251 879 CURVE SMOOTH",
"274 879 OFFCURVE",
"297 873 OFFCURVE",
"313 865 CURVE",
"313 912 LINE",
"299 918 OFFCURVE",
"278 923 OFFCURVE",
"251 923 CURVE SMOOTH",
"202 923 OFFCURVE",
"120 903 OFFCURVE",
"120 786 CURVE SMOOTH"
);
}
);
width = 274;
}
);
},
{
glyphname = "iMatra-deva.101";
lastChange = "2014-11-03 17:34:34 +0000";
layers = (
{
anchors = (
{
name = imatra;
position = "{1008, 598}";
},
{
name = top;
position = "{1046, 598}";
}
);
layerId = "BE6E37CB-569E-4B40-A59A-BD6EE6EB60D7";
name = Light;
paths = (
{
closed = 1;
nodes = (
"421 923 LINE",
"208 923 OFFCURVE",
"110 868 OFFCURVE",
"110 695 CURVE SMOOTH",
"110 618 LINE",
"164 618 LINE",
"164 695 LINE SMOOTH",
"164 862 OFFCURVE",
"263 879 OFFCURVE",
"421 879 CURVE",
"697 879 LINE",
"855 879 OFFCURVE",
"954 862 OFFCURVE",
"954 695 CURVE SMOOTH",
"954 598 LINE",
"1008 598 LINE",
"1008 695 LINE",
"1005 868 OFFCURVE",
"910 923 OFFCURVE",
"697 923 CURVE"
);
},
{
closed = 1;
nodes = (
"110 610 LINE",
"110 0 LINE",
"164 0 LINE",
"164 610 LINE"
);
},
{
closed = 1;
nodes = (
"-10 634 LINE",
"-10 590 LINE",
"284 590 LINE",
"284 634 LINE"
);
}
);
width = 274;
}
);
},
{
glyphname = "iMatra_reph-deva.101";
lastChange = "2014-11-04 00:14:54 +0000";
layers = (
{
components = (
{
name = "iMatra-deva.101";
transform = "{1, 0, 0, 1, 0, 0}";
}
);
layerId = "BE6E37CB-569E-4B40-A59A-BD6EE6EB60D7";
name = Light;
paths = (
{
closed = 1;
nodes = (
"964 625 LINE",
"1008 625 LINE",
"1008 786 LINE SMOOTH",
"1008 857 OFFCURVE",
"1047 879 OFFCURVE",
"1095 879 CURVE SMOOTH",
"1118 879 OFFCURVE",
"1141 873 OFFCURVE",
"1157 865 CURVE",
"1157 912 LINE",
"1143 918 OFFCURVE",
"1122 923 OFFCURVE",
"1095 923 CURVE SMOOTH",
"1046 923 OFFCURVE",
"964 903 OFFCURVE",
"964 786 CURVE SMOOTH"
);
}
);
width = 274;
}
);
},
{
glyphname = "iMatra_reph_anusvara-deva.101";
lastChange = "2014-11-04 00:15:25 +0000";
layers = (
{
background = {
paths = (
{
closed = 1;
nodes = (
"964 625 LINE",
"1008 625 LINE",
"1008 786 LINE SMOOTH",
"1008 857 OFFCURVE",
"1047 879 OFFCURVE",
"1095 879 CURVE SMOOTH",
"1118 879 OFFCURVE",
"1141 873 OFFCURVE",
"1157 865 CURVE",
"1157 912 LINE",
"1143 918 OFFCURVE",
"1122 923 OFFCURVE",
"1095 923 CURVE SMOOTH",
"1046 923 OFFCURVE",
"964 903 OFFCURVE",
"964 786 CURVE SMOOTH"
);
},
{
closed = 1;
nodes = (
"1049 751 LINE",
"1106 695 LINE",
"1163 751 LINE",
"1106 808 LINE"
);
}
);
};
components = (
{
name = "iMatra-deva.101";
transform = "{1, 0, 0, 1, 0, 0}";
},
{
disableAlignment = 1;
name = "anusvara-deva";
transform = "{1, 0, 0, 1, 1244, -6}";
}
);
layerId = "BE6E37CB-569E-4B40-A59A-BD6EE6EB60D7";
name = Light;
paths = (
{
closed = 1;
nodes = (
"964 625 LINE",
"1008 625 LINE",
"1008 786 LINE SMOOTH",
"1008 857 OFFCURVE",
"1047 879 OFFCURVE",
"1095 879 CURVE SMOOTH",
"1118 879 OFFCURVE",
"1141 873 OFFCURVE",
"1157 865 CURVE",
"1157 912 LINE",
"1143 918 OFFCURVE",
"1122 923 OFFCURVE",
"1095 923 CURVE SMOOTH",
"1046 923 OFFCURVE",
"964 903 OFFCURVE",
"964 786 CURVE SMOOTH"
);
}
);
width = 274;
}
);
},
{
glyphname = "iMatra-deva.102";
lastChange = "2014-11-04 07:57:32 +0000";
layers = (
{
anchors = (
{
name = imatra;
position = "{1058, 598}";
},
{
name = top;
position = "{1096, 598}";
}
);
layerId = "BE6E37CB-569E-4B40-A59A-BD6EE6EB60D7";
name = Light;
paths = (
{
closed = 1;
nodes = (
"421 923 LINE",
"208 923 OFFCURVE",
"110 868 OFFCURVE",
"110 695 CURVE SMOOTH",
"110 618 LINE",
"164 618 LINE",
"164 695 LINE SMOOTH",
"164 862 OFFCURVE",
"263 879 OFFCURVE",
"421 879 CURVE",
"747 879 LINE",
"905 879 OFFCURVE",
"1004 862 OFFCURVE",
"1004 695 CURVE SMOOTH",
"1004 598 LINE",
"1058 598 LINE",
"1058 695 LINE",
"1055 868 OFFCURVE",
"960 923 OFFCURVE",
"747 923 CURVE"
);
},
{
closed = 1;
nodes = (
"110 610 LINE",
"110 0 LINE",
"164 0 LINE",
"164 610 LINE"
);
},
{
closed = 1;
nodes = (
"-10 634 LINE",
"-10 590 LINE",
"284 590 LINE",
"284 634 LINE"
);
}
);
width = 274;
}
);
},
{
glyphname = "iMatra_reph-deva.102";
lastChange = "2014-11-04 00:16:56 +0000";
layers = (
{
background = {
paths = (
{
closed = 1;
nodes = (
"1014 625 LINE",
"1058 625 LINE",
"1058 786 LINE SMOOTH",
"1058 857 OFFCURVE",
"1097 879 OFFCURVE",
"1145 879 CURVE SMOOTH",
"1168 879 OFFCURVE",
"1191 873 OFFCURVE",
"1207 865 CURVE",
"1207 912 LINE",
"1193 918 OFFCURVE",
"1172 923 OFFCURVE",
"1145 923 CURVE SMOOTH",
"1096 923 OFFCURVE",
"1014 903 OFFCURVE",
"1014 786 CURVE SMOOTH"
);
},
{
closed = 1;
nodes = (
"1099 751 LINE",
"1156 695 LINE",
"1213 751 LINE",
"1156 808 LINE"
);
}
);
};
components = (
{
name = "iMatra-deva.102";
transform = "{1, 0, 0, 1, 0, 0}";
}
);
layerId = "BE6E37CB-569E-4B40-A59A-BD6EE6EB60D7";
name = Light;
paths = (
{
closed = 1;
nodes = (
"1014 625 LINE",
"1058 625 LINE",
"1058 786 LINE SMOOTH",
"1058 857 OFFCURVE",
"1097 879 OFFCURVE",
"1145 879 CURVE SMOOTH",
"1168 879 OFFCURVE",
"1191 873 OFFCURVE",
"1207 865 CURVE",
"1207 912 LINE",
"1193 918 OFFCURVE",
"1172 923 OFFCURVE",
"1145 923 CURVE SMOOTH",
"1096 923 OFFCURVE",
"1014 903 OFFCURVE",
"1014 786 CURVE SMOOTH"
);
}
);
width = 274;
}
);
},
{
glyphname = "iMatra_reph_anusvara-deva.102";
lastChange = "2014-11-04 07:54:09 +0000";
layers = (
{
background = {
paths = (
{
closed = 1;
nodes = (
"1014 625 LINE",
"1058 625 LINE",
"1058 786 LINE SMOOTH",
"1058 857 OFFCURVE",
"1097 879 OFFCURVE",
"1145 879 CURVE SMOOTH",
"1168 879 OFFCURVE",
"1191 873 OFFCURVE",
"1207 865 CURVE",
"1207 912 LINE",
"1193 918 OFFCURVE",
"1172 923 OFFCURVE",
"1145 923 CURVE SMOOTH",
"1096 923 OFFCURVE",
"1014 903 OFFCURVE",
"1014 786 CURVE SMOOTH"
);
},
{
closed = 1;
nodes = (
"1099 751 LINE",
"1156 695 LINE",
"1213 751 LINE",
"1156 808 LINE"
);
}
);
};
components = (
{
name = "iMatra-deva.102";
transform = "{1, 0, 0, 1, 0, 0}";
},
{
disableAlignment = 1;
name = "anusvara-deva";
transform = "{1, 0, 0, 1, 1294, -6}";
}
);
layerId = "BE6E37CB-569E-4B40-A59A-BD6EE6EB60D7";
name = Light;
paths = (
{
closed = 1;
nodes = (
"1014 625 LINE",
"1058 625 LINE",
"1058 786 LINE SMOOTH",
"1058 857 OFFCURVE",
"1097 879 OFFCURVE",
"1145 879 CURVE SMOOTH",
"1168 879 OFFCURVE",
"1191 873 OFFCURVE",
"1207 865 CURVE",
"1207 912 LINE",
"1193 918 OFFCURVE",
"1172 923 OFFCURVE",
"1145 923 CURVE SMOOTH",
"1096 923 OFFCURVE",
"1014 903 OFFCURVE",
"1014 786 CURVE SMOOTH"
);
}
);
width = 274;
}
);
},
{
glyphname = "iMatra-deva.103";
lastChange = "2014-11-04 07:57:37 +0000";
layers = (
{
anchors = (
{
name = imatra;
position = "{1108, 598}";
},
{
name = top;
position = "{1146, 598}";
}
);
layerId = "BE6E37CB-569E-4B40-A59A-BD6EE6EB60D7";
name = Light;
paths = (
{
closed = 1;
nodes = (
"421 923 LINE",
"208 923 OFFCURVE",
"110 868 OFFCURVE",
"110 695 CURVE SMOOTH",
"110 618 LINE",
"164 618 LINE",
"164 695 LINE SMOOTH",
"164 862 OFFCURVE",
"263 879 OFFCURVE",
"421 879 CURVE",
"797 879 LINE",
"955 879 OFFCURVE",
"1054 862 OFFCURVE",
"1054 695 CURVE SMOOTH",
"1054 598 LINE",
"1108 598 LINE",
"1108 695 LINE",
"1105 868 OFFCURVE",
"1010 923 OFFCURVE",
"797 923 CURVE"
);
},
{
closed = 1;
nodes = (
"110 610 LINE",
"110 0 LINE",
"164 0 LINE",
"164 610 LINE"
);
},
{
closed = 1;
nodes = (
"-10 634 LINE",
"-10 590 LINE",
"284 590 LINE",
"284 634 LINE"
);
}
);
width = 274;
}
);
},
{
glyphname = "iMatra_reph-deva.103";
lastChange = "2014-11-04 07:53:47 +0000";
layers = (
{
components = (
{
name = "iMatra-deva.103";
transform = "{1, 0, 0, 1, 0, 0}";
}
);
layerId = "BE6E37CB-569E-4B40-A59A-BD6EE6EB60D7";
name = Light;
paths = (
{
closed = 1;
nodes = (
"1064 625 LINE",
"1108 625 LINE",
"1108 786 LINE SMOOTH",
"1108 857 OFFCURVE",
"1147 879 OFFCURVE",
"1195 879 CURVE SMOOTH",
"1218 879 OFFCURVE",
"1241 873 OFFCURVE",
"1257 865 CURVE",
"1257 912 LINE",
"1243 918 OFFCURVE",
"1222 923 OFFCURVE",
"1195 923 CURVE SMOOTH",
"1146 923 OFFCURVE",
"1064 903 OFFCURVE",
"1064 786 CURVE SMOOTH"
);
}
);
width = 274;
}
);
},
{
glyphname = "iMatra_reph_anusvara-deva.103";
lastChange = "2014-11-04 07:54:32 +0000";
layers = (
{
background = {
paths = (
{
closed = 1;
nodes = (
"1064 625 LINE",
"1108 625 LINE",
"1108 786 LINE SMOOTH",
"1108 857 OFFCURVE",
"1147 879 OFFCURVE",
"1195 879 CURVE SMOOTH",
"1218 879 OFFCURVE",
"1241 873 OFFCURVE",
"1257 865 CURVE",
"1257 912 LINE",
"1243 918 OFFCURVE",
"1222 923 OFFCURVE",
"1195 923 CURVE SMOOTH",
"1146 923 OFFCURVE",
"1064 903 OFFCURVE",
"1064 786 CURVE SMOOTH"
);
},
{
closed = 1;
nodes = (
"1149 751 LINE",
"1206 695 LINE",
"1263 751 LINE",
"1206 808 LINE"
);
}
);
};
components = (
{
name = "iMatra-deva.103";
transform = "{1, 0, 0, 1, 0, 0}";
},
{
disableAlignment = 1;
name = "anusvara-deva";
transform = "{1, 0, 0, 1, 1344, -6}";
}
);
layerId = "BE6E37CB-569E-4B40-A59A-BD6EE6EB60D7";
name = Light;
paths = (
{
closed = 1;
nodes = (
"1064 625 LINE",
"1108 625 LINE",
"1108 786 LINE SMOOTH",
"1108 857 OFFCURVE",
"1147 879 OFFCURVE",
"1195 879 CURVE SMOOTH",
"1218 879 OFFCURVE",
"1241 873 OFFCURVE",
"1257 865 CURVE",
"1257 912 LINE",
"1243 918 OFFCURVE",
"1222 923 OFFCURVE",
"1195 923 CURVE SMOOTH",
"1146 923 OFFCURVE",
"1064 903 OFFCURVE",
"1064 786 CURVE SMOOTH"
);
}
);
width = 274;
}
);
},
{
glyphname = "iMatra-deva.104";
lastChange = "2014-11-04 07:57:48 +0000";
layers = (
{
anchors = (
{
name = imatra;
position = "{1158, 598}";
},
{
name = top;
position = "{1196, 598}";
}
);
layerId = "BE6E37CB-569E-4B40-A59A-BD6EE6EB60D7";
name = Light;
paths = (
{
closed = 1;
nodes = (
"421 923 LINE",
"208 923 OFFCURVE",
"110 868 OFFCURVE",
"110 695 CURVE SMOOTH",
"110 618 LINE",
"164 618 LINE",
"164 695 LINE SMOOTH",
"164 862 OFFCURVE",
"263 879 OFFCURVE",
"421 879 CURVE",
"847 879 LINE",
"1005 879 OFFCURVE",
"1104 862 OFFCURVE",
"1104 695 CURVE SMOOTH",
"1104 598 LINE",
"1158 598 LINE",
"1158 695 LINE",
"1155 868 OFFCURVE",
"1060 923 OFFCURVE",
"847 923 CURVE"
);
},
{
closed = 1;
nodes = (
"110 610 LINE",
"110 0 LINE",
"164 0 LINE",
"164 610 LINE"
);
},
{
closed = 1;
nodes = (
"-10 634 LINE",
"-10 590 LINE",
"284 590 LINE",
"284 634 LINE"
);
}
);
width = 274;
}
);
},
{
glyphname = "iMatra_reph-deva.104";
lastChange = "2014-11-04 07:59:44 +0000";
layers = (
{
components = (
{
name = "iMatra-deva.104";
transform = "{1, 0, 0, 1, 0, 0}";
}
);
layerId = "BE6E37CB-569E-4B40-A59A-BD6EE6EB60D7";
name = Light;
paths = (
{
closed = 1;
nodes = (
"1114 625 LINE",
"1158 625 LINE",
"1158 786 LINE SMOOTH",
"1158 857 OFFCURVE",
"1197 879 OFFCURVE",
"1245 879 CURVE SMOOTH",
"1268 879 OFFCURVE",
"1291 873 OFFCURVE",
"1307 865 CURVE",
"1307 912 LINE",
"1293 918 OFFCURVE",
"1272 923 OFFCURVE",
"1245 923 CURVE SMOOTH",
"1196 923 OFFCURVE",
"1114 903 OFFCURVE",
"1114 786 CURVE SMOOTH"
);
}
);
width = 274;
}
);
},
{
glyphname = "iMatra_reph_anusvara-deva.104";
lastChange = "2014-11-04 08:00:11 +0000";
layers = (
{
components = (
{
disableAlignment = 1;
name = "anusvara-deva";
transform = "{1, 0, 0, 1, 1394, -6}";
},
{
name = "iMatra-deva.104";
transform = "{1, 0, 0, 1, 0, 0}";
}
);
layerId = "BE6E37CB-569E-4B40-A59A-BD6EE6EB60D7";
name = Light;
paths = (
{
closed = 1;
nodes = (
"1114 625 LINE",
"1158 625 LINE",
"1158 786 LINE SMOOTH",
"1158 857 OFFCURVE",
"1197 879 OFFCURVE",
"1245 879 CURVE SMOOTH",
"1268 879 OFFCURVE",
"1291 873 OFFCURVE",
"1307 865 CURVE",
"1307 912 LINE",
"1293 918 OFFCURVE",
"1272 923 OFFCURVE",
"1245 923 CURVE SMOOTH",
"1196 923 OFFCURVE",
"1114 903 OFFCURVE",
"1114 786 CURVE SMOOTH"
);
}
);
width = 274;
}
);
},
{
glyphname = "iMatra-deva.105";
lastChange = "2014-11-04 07:57:55 +0000";
layers = (
{
anchors = (
{
name = imatra;
position = "{1208, 598}";
},
{
name = top;
position = "{1246, 598}";
}
);
background = {
anchors = (
{
name = imatra;
position = "{1108, 598}";
},
{
name = top;
position = "{1146, 598}";
}
);
paths = (
{
closed = 1;
nodes = (
"421 923 LINE",
"208 923 OFFCURVE",
"110 868 OFFCURVE",
"110 695 CURVE SMOOTH",
"110 618 LINE",
"164 618 LINE",
"164 695 LINE SMOOTH",
"164 862 OFFCURVE",
"263 879 OFFCURVE",
"421 879 CURVE",
"797 879 LINE",
"955 879 OFFCURVE",
"1054 862 OFFCURVE",
"1054 695 CURVE SMOOTH",
"1054 598 LINE",
"1108 598 LINE",
"1108 695 LINE",
"1105 868 OFFCURVE",
"1010 923 OFFCURVE",
"797 923 CURVE"
);
},
{
closed = 1;
nodes = (
"110 610 LINE",
"110 0 LINE",
"164 0 LINE",
"164 610 LINE"
);
},
{
closed = 1;
nodes = (
"-10 634 LINE",
"-10 590 LINE",
"284 590 LINE",
"284 634 LINE"
);
}
);
};
layerId = "BE6E37CB-569E-4B40-A59A-BD6EE6EB60D7";
name = Light;
paths = (
{
closed = 1;
nodes = (
"421 923 LINE",
"208 923 OFFCURVE",
"110 868 OFFCURVE",
"110 695 CURVE SMOOTH",
"110 618 LINE",
"164 618 LINE",
"164 695 LINE SMOOTH",
"164 862 OFFCURVE",
"263 879 OFFCURVE",
"421 879 CURVE",
"897 879 LINE",
"1055 879 OFFCURVE",
"1154 862 OFFCURVE",
"1154 695 CURVE SMOOTH",
"1154 598 LINE",
"1208 598 LINE",
"1208 695 LINE",
"1205 868 OFFCURVE",
"1110 923 OFFCURVE",
"897 923 CURVE"
);
},
{
closed = 1;
nodes = (
"110 610 LINE",
"110 0 LINE",
"164 0 LINE",
"164 610 LINE"
);
},
{
closed = 1;
nodes = (
"-10 634 LINE",
"-10 590 LINE",
"284 590 LINE",
"284 634 LINE"
);
}
);
width = 274;
}
);
},
{
glyphname = "iMatra_reph-deva.105";
lastChange = "2014-11-04 07:56:19 +0000";
layers = (
{
components = (
{
name = "iMatra-deva.105";
transform = "{1, 0, 0, 1, 0, 0}";
}
);
layerId = "BE6E37CB-569E-4B40-A59A-BD6EE6EB60D7";
name = Light;
paths = (
{
closed = 1;
nodes = (
"1164 625 LINE",
"1208 625 LINE",
"1208 786 LINE SMOOTH",
"1208 857 OFFCURVE",
"1247 879 OFFCURVE",
"1295 879 CURVE SMOOTH",
"1318 879 OFFCURVE",
"1341 873 OFFCURVE",
"1357 865 CURVE",
"1357 912 LINE",
"1343 918 OFFCURVE",
"1322 923 OFFCURVE",
"1295 923 CURVE SMOOTH",
"1246 923 OFFCURVE",
"1164 903 OFFCURVE",
"1164 786 CURVE SMOOTH"
);
}
);
width = 274;
}
);
},
{
glyphname = "iMatra_reph_anusvara-deva.105";
lastChange = "2014-11-04 08:42:12 +0000";
layers = (
{
background = {
paths = (
{
closed = 1;
nodes = (
"1164 625 LINE",
"1208 625 LINE",
"1208 786 LINE SMOOTH",
"1208 857 OFFCURVE",
"1247 879 OFFCURVE",
"1295 879 CURVE SMOOTH",
"1318 879 OFFCURVE",
"1341 873 OFFCURVE",
"1357 865 CURVE",
"1357 912 LINE",
"1343 918 OFFCURVE",
"1322 923 OFFCURVE",
"1295 923 CURVE SMOOTH",
"1246 923 OFFCURVE",
"1164 903 OFFCURVE",
"1164 786 CURVE SMOOTH"
);
},
{
closed = 1;
nodes = (
"1249 751 LINE",
"1306 695 LINE",
"1363 751 LINE",
"1306 808 LINE"
);
}
);
};
components = (
{
name = "iMatra-deva.105";
transform = "{1, 0, 0, 1, 0, 0}";
},
{
disableAlignment = 1;
name = "anusvara-deva";
transform = "{1, 0, 0, 1, 1444, -6}";
}
);
layerId = "BE6E37CB-569E-4B40-A59A-BD6EE6EB60D7";
name = Light;
paths = (
{
closed = 1;
nodes = (
"1164 625 LINE",
"1208 625 LINE",
"1208 786 LINE SMOOTH",
"1208 857 OFFCURVE",
"1247 879 OFFCURVE",
"1295 879 CURVE SMOOTH",
"1318 879 OFFCURVE",
"1341 873 OFFCURVE",
"1357 865 CURVE",
"1357 912 LINE",
"1343 918 OFFCURVE",
"1322 923 OFFCURVE",
"1295 923 CURVE SMOOTH",
"1246 923 OFFCURVE",
"1164 903 OFFCURVE",
"1164 786 CURVE SMOOTH"
);
}
);
width = 274;
}
);
},
{
glyphname = "iMatra-deva.106";
lastChange = "2014-11-04 07:58:03 +0000";
layers = (
{
anchors = (
{
name = imatra;
position = "{1258, 598}";
},
{
name = top;
position = "{1296, 598}";
}
);
layerId = "BE6E37CB-569E-4B40-A59A-BD6EE6EB60D7";
name = Light;
paths = (
{
closed = 1;
nodes = (
"421 923 LINE",
"208 923 OFFCURVE",
"110 868 OFFCURVE",
"110 695 CURVE SMOOTH",
"110 618 LINE",
"164 618 LINE",
"164 695 LINE SMOOTH",
"164 862 OFFCURVE",
"263 879 OFFCURVE",
"421 879 CURVE",
"947 879 LINE",
"1105 879 OFFCURVE",
"1204 862 OFFCURVE",
"1204 695 CURVE SMOOTH",
"1204 598 LINE",
"1258 598 LINE",
"1258 695 LINE",
"1255 868 OFFCURVE",
"1160 923 OFFCURVE",
"947 923 CURVE"
);
},
{
closed = 1;
nodes = (
"110 610 LINE",
"110 0 LINE",
"164 0 LINE",
"164 610 LINE"
);
},
{
closed = 1;
nodes = (
"-10 634 LINE",
"-10 590 LINE",
"284 590 LINE",
"284 634 LINE"
);
}
);
width = 274;
}
);
},
{
glyphname = "iMatra_reph-deva.106";
lastChange = "2014-11-04 08:42:43 +0000";
layers = (
{
components = (
{
name = "iMatra-deva.106";
transform = "{1, 0, 0, 1, 0, 0}";
}
);
layerId = "BE6E37CB-569E-4B40-A59A-BD6EE6EB60D7";
name = Light;
paths = (
{
closed = 1;
nodes = (
"1214 625 LINE",
"1258 625 LINE",
"1258 786 LINE SMOOTH",
"1258 857 OFFCURVE",
"1297 879 OFFCURVE",
"1345 879 CURVE SMOOTH",
"1368 879 OFFCURVE",
"1391 873 OFFCURVE",
"1407 865 CURVE",
"1407 912 LINE",
"1393 918 OFFCURVE",
"1372 923 OFFCURVE",
"1345 923 CURVE SMOOTH",
"1296 923 OFFCURVE",
"1214 903 OFFCURVE",
"1214 786 CURVE SMOOTH"
);
}
);
width = 274;
}
);
},
{
glyphname = "iMatra_reph_anusvara-deva.106";
lastChange = "2014-11-04 08:42:57 +0000";
layers = (
{
components = (
{
name = "iMatra-deva.106";
transform = "{1, 0, 0, 1, 0, 0}";
},
{
disableAlignment = 1;
name = "anusvara-deva";
transform = "{1, 0, 0, 1, 1494, -6}";
}
);
layerId = "BE6E37CB-569E-4B40-A59A-BD6EE6EB60D7";
name = Light;
paths = (
{
closed = 1;
nodes = (
"1214 625 LINE",
"1258 625 LINE",
"1258 786 LINE SMOOTH",
"1258 857 OFFCURVE",
"1297 879 OFFCURVE",
"1345 879 CURVE SMOOTH",
"1368 879 OFFCURVE",
"1391 873 OFFCURVE",
"1407 865 CURVE",
"1407 912 LINE",
"1393 918 OFFCURVE",
"1372 923 OFFCURVE",
"1345 923 CURVE SMOOTH",
"1296 923 OFFCURVE",
"1214 903 OFFCURVE",
"1214 786 CURVE SMOOTH"
);
}
);
width = 274;
}
);
},
{
glyphname = "iMatra-deva.107";
lastChange = "2014-11-03 17:36:21 +0000";
layers = (
{
anchors = (
{
name = imatra;
position = "{1308, 598}";
},
{
name = top;
position = "{1346, 598}";
}
);
layerId = "BE6E37CB-569E-4B40-A59A-BD6EE6EB60D7";
name = Light;
paths = (
{
closed = 1;
nodes = (
"421 923 LINE",
"208 923 OFFCURVE",
"110 868 OFFCURVE",
"110 695 CURVE SMOOTH",
"110 618 LINE",
"164 618 LINE",
"164 695 LINE SMOOTH",
"164 862 OFFCURVE",
"263 879 OFFCURVE",
"421 879 CURVE",
"997 879 LINE",
"1155 879 OFFCURVE",
"1254 862 OFFCURVE",
"1254 695 CURVE SMOOTH",
"1254 598 LINE",
"1308 598 LINE",
"1308 695 LINE",
"1305 868 OFFCURVE",
"1210 923 OFFCURVE",
"997 923 CURVE"
);
},
{
closed = 1;
nodes = (
"110 610 LINE",
"110 0 LINE",
"164 0 LINE",
"164 610 LINE"
);
},
{
closed = 1;
nodes = (
"-10 634 LINE",
"-10 590 LINE",
"284 590 LINE",
"284 634 LINE"
);
}
);
width = 274;
}
);
},
{
glyphname = "iMatra_reph-deva.107";
lastChange = "2014-11-04 08:54:34 +0000";
layers = (
{
components = (
{
name = "iMatra-deva.107";
transform = "{1, 0, 0, 1, 0, 0}";
}
);
layerId = "BE6E37CB-569E-4B40-A59A-BD6EE6EB60D7";
name = Light;
paths = (
{
closed = 1;
nodes = (
"1264 625 LINE",
"1308 625 LINE",
"1308 786 LINE SMOOTH",
"1308 857 OFFCURVE",
"1347 879 OFFCURVE",
"1395 879 CURVE SMOOTH",
"1418 879 OFFCURVE",
"1441 873 OFFCURVE",
"1457 865 CURVE",
"1457 912 LINE",
"1443 918 OFFCURVE",
"1422 923 OFFCURVE",
"1395 923 CURVE SMOOTH",
"1346 923 OFFCURVE",
"1264 903 OFFCURVE",
"1264 786 CURVE SMOOTH"
);
}
);
width = 274;
}
);
},
{
glyphname = "iMatra_reph_anusvara-deva.107";
lastChange = "2014-11-04 08:54:47 +0000";
layers = (
{
components = (
{
name = "iMatra-deva.107";
transform = "{1, 0, 0, 1, 0, 0}";
},
{
disableAlignment = 1;
name = "anusvara-deva";
transform = "{1, 0, 0, 1, 1544, -6}";
}
);
layerId = "BE6E37CB-569E-4B40-A59A-BD6EE6EB60D7";
name = Light;
paths = (
{
closed = 1;
nodes = (
"1264 625 LINE",
"1308 625 LINE",
"1308 786 LINE SMOOTH",
"1308 857 OFFCURVE",
"1347 879 OFFCURVE",
"1395 879 CURVE SMOOTH",
"1418 879 OFFCURVE",
"1441 873 OFFCURVE",
"1457 865 CURVE",
"1457 912 LINE",
"1443 918 OFFCURVE",
"1422 923 OFFCURVE",
"1395 923 CURVE SMOOTH",
"1346 923 OFFCURVE",
"1264 903 OFFCURVE",
"1264 786 CURVE SMOOTH"
);
}
);
width = 274;
}
);
},
{
glyphname = "iMatra-deva.108";
lastChange = "2014-11-03 17:36:34 +0000";
layers = (
{
anchors = (
{
name = imatra;
position = "{1358, 598}";
},
{
name = top;
position = "{1396, 598}";
}
);
layerId = "BE6E37CB-569E-4B40-A59A-BD6EE6EB60D7";
name = Light;
paths = (
{
closed = 1;
nodes = (
"421 923 LINE",
"208 923 OFFCURVE",
"110 868 OFFCURVE",
"110 695 CURVE SMOOTH",
"110 618 LINE",
"164 618 LINE",
"164 695 LINE SMOOTH",
"164 862 OFFCURVE",
"263 879 OFFCURVE",
"421 879 CURVE",
"1047 879 LINE",
"1205 879 OFFCURVE",
"1304 862 OFFCURVE",
"1304 695 CURVE SMOOTH",
"1304 598 LINE",
"1358 598 LINE",
"1358 695 LINE",
"1355 868 OFFCURVE",
"1260 923 OFFCURVE",
"1047 923 CURVE"
);
},
{
closed = 1;
nodes = (
"110 610 LINE",
"110 0 LINE",
"164 0 LINE",
"164 610 LINE"
);
},
{
closed = 1;
nodes = (
"-10 634 LINE",
"-10 590 LINE",
"284 590 LINE",
"284 634 LINE"
);
}
);
width = 274;
}
);
},
{
glyphname = "iMatra_reph-deva.108";
lastChange = "2014-11-04 08:56:11 +0000";
layers = (
{
components = (
{
name = "iMatra-deva.108";
transform = "{1, 0, 0, 1, 0, 0}";
}
);
layerId = "BE6E37CB-569E-4B40-A59A-BD6EE6EB60D7";
name = Light;
paths = (
{
closed = 1;
nodes = (
"1314 625 LINE",
"1358 625 LINE",
"1358 786 LINE SMOOTH",
"1358 857 OFFCURVE",
"1397 879 OFFCURVE",
"1445 879 CURVE SMOOTH",
"1468 879 OFFCURVE",
"1491 873 OFFCURVE",
"1507 865 CURVE",
"1507 912 LINE",
"1493 918 OFFCURVE",
"1472 923 OFFCURVE",
"1445 923 CURVE SMOOTH",
"1396 923 OFFCURVE",
"1314 903 OFFCURVE",
"1314 786 CURVE SMOOTH"
);
}
);
width = 274;
}
);
},
{
glyphname = "iMatra_reph_anusvara-deva.108";
lastChange = "2014-11-04 08:56:29 +0000";
layers = (
{
components = (
{
name = "iMatra-deva.108";
transform = "{1, 0, 0, 1, 0, 0}";
},
{
disableAlignment = 1;
name = "anusvara-deva";
transform = "{1, 0, 0, 1, 1594, -6}";
}
);
layerId = "BE6E37CB-569E-4B40-A59A-BD6EE6EB60D7";
name = Light;
paths = (
{
closed = 1;
nodes = (
"1314 625 LINE",
"1358 625 LINE",
"1358 786 LINE SMOOTH",
"1358 857 OFFCURVE",
"1397 879 OFFCURVE",
"1445 879 CURVE SMOOTH",
"1468 879 OFFCURVE",
"1491 873 OFFCURVE",
"1507 865 CURVE",
"1507 912 LINE",
"1493 918 OFFCURVE",
"1472 923 OFFCURVE",
"1445 923 CURVE SMOOTH",
"1396 923 OFFCURVE",
"1314 903 OFFCURVE",
"1314 786 CURVE SMOOTH"
);
}
);
width = 274;
}
);
},
{
glyphname = "iMatra-deva.109";
lastChange = "2014-11-03 17:36:49 +0000";
layers = (
{
anchors = (
{
name = imatra;
position = "{1408, 598}";
},
{
name = top;
position = "{1446, 598}";
}
);
layerId = "BE6E37CB-569E-4B40-A59A-BD6EE6EB60D7";
name = Light;
paths = (
{
closed = 1;
nodes = (
"421 923 LINE",
"208 923 OFFCURVE",
"110 868 OFFCURVE",
"110 695 CURVE SMOOTH",
"110 618 LINE",
"164 618 LINE",
"164 695 LINE SMOOTH",
"164 862 OFFCURVE",
"263 879 OFFCURVE",
"421 879 CURVE",
"1097 879 LINE",
"1255 879 OFFCURVE",
"1354 862 OFFCURVE",
"1354 695 CURVE SMOOTH",
"1354 598 LINE",
"1408 598 LINE",
"1408 695 LINE",
"1405 868 OFFCURVE",
"1310 923 OFFCURVE",
"1097 923 CURVE"
);
},
{
closed = 1;
nodes = (
"110 610 LINE",
"110 0 LINE",
"164 0 LINE",
"164 610 LINE"
);
},
{
closed = 1;
nodes = (
"-10 634 LINE",
"-10 590 LINE",
"284 590 LINE",
"284 634 LINE"
);
}
);
width = 274;
}
);
},
{
glyphname = "iMatra_reph-deva.109";
lastChange = "2014-11-04 08:56:57 +0000";
layers = (
{
components = (
{
name = "iMatra-deva.109";
transform = "{1, 0, 0, 1, 0, 0}";
}
);
layerId = "BE6E37CB-569E-4B40-A59A-BD6EE6EB60D7";
name = Light;
paths = (
{
closed = 1;
nodes = (
"1364 625 LINE",
"1408 625 LINE",
"1408 786 LINE SMOOTH",
"1408 857 OFFCURVE",
"1447 879 OFFCURVE",
"1495 879 CURVE SMOOTH",
"1518 879 OFFCURVE",
"1541 873 OFFCURVE",
"1557 865 CURVE",
"1557 912 LINE",
"1543 918 OFFCURVE",
"1522 923 OFFCURVE",
"1495 923 CURVE SMOOTH",
"1446 923 OFFCURVE",
"1364 903 OFFCURVE",
"1364 786 CURVE SMOOTH"
);
}
);
width = 274;
}
);
},
{
glyphname = "iMatra_reph_anusvara-deva.109";
lastChange = "2014-11-04 08:57:24 +0000";
layers = (
{
components = (
{
name = "iMatra-deva.109";
transform = "{1, 0, 0, 1, 0, 0}";
},
{
disableAlignment = 1;
name = "anusvara-deva";
transform = "{1, 0, 0, 1, 1644, -6}";
}
);
layerId = "BE6E37CB-569E-4B40-A59A-BD6EE6EB60D7";
name = Light;
paths = (
{
closed = 1;
nodes = (
"1364 625 LINE",
"1408 625 LINE",
"1408 786 LINE SMOOTH",
"1408 857 OFFCURVE",
"1447 879 OFFCURVE",
"1495 879 CURVE SMOOTH",
"1518 879 OFFCURVE",
"1541 873 OFFCURVE",
"1557 865 CURVE",
"1557 912 LINE",
"1543 918 OFFCURVE",
"1522 923 OFFCURVE",
"1495 923 CURVE SMOOTH",
"1446 923 OFFCURVE",
"1364 903 OFFCURVE",
"1364 786 CURVE SMOOTH"
);
}
);
width = 274;
}
);
},
{
glyphname = "iMatra-deva.110";
lastChange = "2014-11-03 17:36:58 +0000";
layers = (
{
anchors = (
{
name = imatra;
position = "{1458, 598}";
},
{
name = top;
position = "{1496, 598}";
}
);
layerId = "BE6E37CB-569E-4B40-A59A-BD6EE6EB60D7";
name = Light;
paths = (
{
closed = 1;
nodes = (
"421 923 LINE",
"208 923 OFFCURVE",
"110 868 OFFCURVE",
"110 695 CURVE SMOOTH",
"110 618 LINE",
"164 618 LINE",
"164 695 LINE SMOOTH",
"164 862 OFFCURVE",
"263 879 OFFCURVE",
"421 879 CURVE",
"1147 879 LINE",
"1305 879 OFFCURVE",
"1404 862 OFFCURVE",
"1404 695 CURVE SMOOTH",
"1404 598 LINE",
"1458 598 LINE",
"1458 695 LINE",
"1455 868 OFFCURVE",
"1360 923 OFFCURVE",
"1147 923 CURVE"
);
},
{
closed = 1;
nodes = (
"110 610 LINE",
"110 0 LINE",
"164 0 LINE",
"164 610 LINE"
);
},
{
closed = 1;
nodes = (
"-10 634 LINE",
"-10 590 LINE",
"284 590 LINE",
"284 634 LINE"
);
}
);
width = 274;
}
);
},
{
glyphname = "iMatra_reph-deva.110";
lastChange = "2014-11-04 08:57:54 +0000";
layers = (
{
components = (
{
name = "iMatra-deva.110";
transform = "{1, 0, 0, 1, 0, 0}";
}
);
layerId = "BE6E37CB-569E-4B40-A59A-BD6EE6EB60D7";
name = Light;
paths = (
{
closed = 1;
nodes = (
"1414 625 LINE",
"1458 625 LINE",
"1458 786 LINE SMOOTH",
"1458 857 OFFCURVE",
"1497 879 OFFCURVE",
"1545 879 CURVE SMOOTH",
"1568 879 OFFCURVE",
"1591 873 OFFCURVE",
"1607 865 CURVE",
"1607 912 LINE",
"1593 918 OFFCURVE",
"1572 923 OFFCURVE",
"1545 923 CURVE SMOOTH",
"1496 923 OFFCURVE",
"1414 903 OFFCURVE",
"1414 786 CURVE SMOOTH"
);
}
);
width = 274;
}
);
},
{
glyphname = "iMatra_reph_anusvara-deva.110";
lastChange = "2014-11-04 09:57:20 +0000";
layers = (
{
components = (
{
name = "iMatra-deva.110";
transform = "{1, 0, 0, 1, 0, 0}";
},
{
disableAlignment = 1;
name = "anusvara-deva";
transform = "{1, 0, 0, 1, 1694, -6}";
}
);
layerId = "BE6E37CB-569E-4B40-A59A-BD6EE6EB60D7";
name = Light;
paths = (
{
closed = 1;
nodes = (
"1414 625 LINE",
"1458 625 LINE",
"1458 786 LINE SMOOTH",
"1458 857 OFFCURVE",
"1497 879 OFFCURVE",
"1545 879 CURVE SMOOTH",
"1568 879 OFFCURVE",
"1591 873 OFFCURVE",
"1607 865 CURVE",
"1607 912 LINE",
"1593 918 OFFCURVE",
"1572 923 OFFCURVE",
"1545 923 CURVE SMOOTH",
"1496 923 OFFCURVE",
"1414 903 OFFCURVE",
"1414 786 CURVE SMOOTH"
);
}
);
width = 274;
}
);
},
{
glyphname = "iMatra-deva.111";
lastChange = "2014-11-03 17:37:11 +0000";
layers = (
{
anchors = (
{
name = imatra;
position = "{1508, 598}";
},
{
name = top;
position = "{1546, 598}";
}
);
layerId = "BE6E37CB-569E-4B40-A59A-BD6EE6EB60D7";
name = Light;
paths = (
{
closed = 1;
nodes = (
"421 923 LINE",
"208 923 OFFCURVE",
"110 868 OFFCURVE",
"110 695 CURVE SMOOTH",
"110 618 LINE",
"164 618 LINE",
"164 695 LINE SMOOTH",
"164 862 OFFCURVE",
"263 879 OFFCURVE",
"421 879 CURVE",
"1197 879 LINE",
"1355 879 OFFCURVE",
"1454 862 OFFCURVE",
"1454 695 CURVE SMOOTH",
"1454 598 LINE",
"1508 598 LINE",
"1508 695 LINE",
"1505 868 OFFCURVE",
"1410 923 OFFCURVE",
"1197 923 CURVE"
);
},
{
closed = 1;
nodes = (
"110 610 LINE",
"110 0 LINE",
"164 0 LINE",
"164 610 LINE"
);
},
{
closed = 1;
nodes = (
"-10 634 LINE",
"-10 590 LINE",
"284 590 LINE",
"284 634 LINE"
);
}
);
width = 274;
}
);
},
{
glyphname = "iMatra_reph-deva.111";
lastChange = "2014-11-04 09:57:59 +0000";
layers = (
{
components = (
{
name = "iMatra-deva.111";
transform = "{1, 0, 0, 1, 0, 0}";
}
);
layerId = "BE6E37CB-569E-4B40-A59A-BD6EE6EB60D7";
name = Light;
paths = (
{
closed = 1;
nodes = (
"1464 625 LINE",
"1508 625 LINE",
"1508 786 LINE SMOOTH",
"1508 857 OFFCURVE",
"1547 879 OFFCURVE",
"1595 879 CURVE SMOOTH",
"1618 879 OFFCURVE",
"1641 873 OFFCURVE",
"1657 865 CURVE",
"1657 912 LINE",
"1643 918 OFFCURVE",
"1622 923 OFFCURVE",
"1595 923 CURVE SMOOTH",
"1546 923 OFFCURVE",
"1464 903 OFFCURVE",
"1464 786 CURVE SMOOTH"
);
}
);
width = 274;
}
);
},
{
glyphname = "iMatra_reph_anusvara-deva.111";
lastChange = "2014-11-04 09:58:15 +0000";
layers = (
{
components = (
{
name = "iMatra-deva.111";
transform = "{1, 0, 0, 1, 0, 0}";
},
{
disableAlignment = 1;
name = "anusvara-deva";
transform = "{1, 0, 0, 1, 1744, -6}";
}
);
layerId = "BE6E37CB-569E-4B40-A59A-BD6EE6EB60D7";
name = Light;
paths = (
{
closed = 1;
nodes = (
"1464 625 LINE",
"1508 625 LINE",
"1508 786 LINE SMOOTH",
"1508 857 OFFCURVE",
"1547 879 OFFCURVE",
"1595 879 CURVE SMOOTH",
"1618 879 OFFCURVE",
"1641 873 OFFCURVE",
"1657 865 CURVE",
"1657 912 LINE",
"1643 918 OFFCURVE",
"1622 923 OFFCURVE",
"1595 923 CURVE SMOOTH",
"1546 923 OFFCURVE",
"1464 903 OFFCURVE",
"1464 786 CURVE SMOOTH"
);
}
);
width = 274;
}
);
},
{
glyphname = "iMatra-deva.112";
lastChange = "2014-11-03 17:37:27 +0000";
layers = (
{
anchors = (
{
name = imatra;
position = "{1558, 598}";
},
{
name = top;
position = "{1596, 598}";
}
);
layerId = "BE6E37CB-569E-4B40-A59A-BD6EE6EB60D7";
name = Light;
paths = (
{
closed = 1;
nodes = (
"421 923 LINE",
"208 923 OFFCURVE",
"110 868 OFFCURVE",
"110 695 CURVE SMOOTH",
"110 618 LINE",
"164 618 LINE",
"164 695 LINE SMOOTH",
"164 862 OFFCURVE",
"263 879 OFFCURVE",
"421 879 CURVE",
"1247 879 LINE",
"1405 879 OFFCURVE",
"1504 862 OFFCURVE",
"1504 695 CURVE SMOOTH",
"1504 598 LINE",
"1558 598 LINE",
"1558 695 LINE",
"1555 868 OFFCURVE",
"1460 923 OFFCURVE",
"1247 923 CURVE"
);
},
{
closed = 1;
nodes = (
"110 610 LINE",
"110 0 LINE",
"164 0 LINE",
"164 610 LINE"
);
},
{
closed = 1;
nodes = (
"-10 634 LINE",
"-10 590 LINE",
"284 590 LINE",
"284 634 LINE"
);
}
);
width = 274;
}
);
},
{
glyphname = "iMatra_reph-deva.112";
lastChange = "2014-11-04 09:59:01 +0000";
layers = (
{
components = (
{
name = "iMatra-deva.112";
transform = "{1, 0, 0, 1, 0, 0}";
}
);
layerId = "BE6E37CB-569E-4B40-A59A-BD6EE6EB60D7";
name = Light;
paths = (
{
closed = 1;
nodes = (
"1514 625 LINE",
"1558 625 LINE",
"1558 786 LINE SMOOTH",
"1558 857 OFFCURVE",
"1597 879 OFFCURVE",
"1645 879 CURVE SMOOTH",
"1668 879 OFFCURVE",
"1691 873 OFFCURVE",
"1707 865 CURVE",
"1707 912 LINE",
"1693 918 OFFCURVE",
"1672 923 OFFCURVE",
"1645 923 CURVE SMOOTH",
"1596 923 OFFCURVE",
"1514 903 OFFCURVE",
"1514 786 CURVE SMOOTH"
);
}
);
width = 274;
}
);
},
{
glyphname = "iMatra_reph_anusvara-deva.112";
lastChange = "2014-11-04 09:59:24 +0000";
layers = (
{
components = (
{
name = "iMatra-deva.112";
transform = "{1, 0, 0, 1, 0, 0}";
},
{
disableAlignment = 1;
name = "anusvara-deva";
transform = "{1, 0, 0, 1, 1794, -6}";
}
);
layerId = "BE6E37CB-569E-4B40-A59A-BD6EE6EB60D7";
name = Light;
paths = (
{
closed = 1;
nodes = (
"1514 625 LINE",
"1558 625 LINE",
"1558 786 LINE SMOOTH",
"1558 857 OFFCURVE",
"1597 879 OFFCURVE",
"1645 879 CURVE SMOOTH",
"1668 879 OFFCURVE",
"1691 873 OFFCURVE",
"1707 865 CURVE",
"1707 912 LINE",
"1693 918 OFFCURVE",
"1672 923 OFFCURVE",
"1645 923 CURVE SMOOTH",
"1596 923 OFFCURVE",
"1514 903 OFFCURVE",
"1514 786 CURVE SMOOTH"
);
}
);
width = 274;
}
);
},
{
glyphname = "iMatra-deva.113";
lastChange = "2014-11-03 17:37:36 +0000";
layers = (
{
anchors = (
{
name = imatra;
position = "{1608, 598}";
},
{
name = top;
position = "{1646, 598}";
}
);
layerId = "BE6E37CB-569E-4B40-A59A-BD6EE6EB60D7";
name = Light;
paths = (
{
closed = 1;
nodes = (
"421 923 LINE",
"208 923 OFFCURVE",
"110 868 OFFCURVE",
"110 695 CURVE SMOOTH",
"110 618 LINE",
"164 618 LINE",
"164 695 LINE SMOOTH",
"164 862 OFFCURVE",
"263 879 OFFCURVE",
"421 879 CURVE",
"1297 879 LINE",
"1455 879 OFFCURVE",
"1554 862 OFFCURVE",
"1554 695 CURVE SMOOTH",
"1554 598 LINE",
"1608 598 LINE",
"1608 695 LINE",
"1605 868 OFFCURVE",
"1510 923 OFFCURVE",
"1297 923 CURVE"
);
},
{
closed = 1;
nodes = (
"110 610 LINE",
"110 0 LINE",
"164 0 LINE",
"164 610 LINE"
);
},
{
closed = 1;
nodes = (
"-10 634 LINE",
"-10 590 LINE",
"284 590 LINE",
"284 634 LINE"
);
}
);
width = 274;
}
);
},
{
glyphname = "iMatra_reph-deva.113";
lastChange = "2014-11-04 10:00:06 +0000";
layers = (
{
components = (
{
name = "iMatra-deva.113";
transform = "{1, 0, 0, 1, 0, 0}";
}
);
layerId = "BE6E37CB-569E-4B40-A59A-BD6EE6EB60D7";
name = Light;
paths = (
{
closed = 1;
nodes = (
"1564 625 LINE",
"1608 625 LINE",
"1608 786 LINE SMOOTH",
"1608 857 OFFCURVE",
"1647 879 OFFCURVE",
"1695 879 CURVE SMOOTH",
"1718 879 OFFCURVE",
"1741 873 OFFCURVE",
"1757 865 CURVE",
"1757 912 LINE",
"1743 918 OFFCURVE",
"1722 923 OFFCURVE",
"1695 923 CURVE SMOOTH",
"1646 923 OFFCURVE",
"1564 903 OFFCURVE",
"1564 786 CURVE SMOOTH"
);
}
);
width = 274;
}
);
},
{
glyphname = "iMatra_reph_anusvara-deva.113";
lastChange = "2014-11-04 10:00:21 +0000";
layers = (
{
components = (
{
name = "iMatra-deva.113";
transform = "{1, 0, 0, 1, 0, 0}";
},
{
disableAlignment = 1;
name = "anusvara-deva";
transform = "{1, 0, 0, 1, 1844, -6}";
}
);
layerId = "BE6E37CB-569E-4B40-A59A-BD6EE6EB60D7";
name = Light;
paths = (
{
closed = 1;
nodes = (
"1564 625 LINE",
"1608 625 LINE",
"1608 786 LINE SMOOTH",
"1608 857 OFFCURVE",
"1647 879 OFFCURVE",
"1695 879 CURVE SMOOTH",
"1718 879 OFFCURVE",
"1741 873 OFFCURVE",
"1757 865 CURVE",
"1757 912 LINE",
"1743 918 OFFCURVE",
"1722 923 OFFCURVE",
"1695 923 CURVE SMOOTH",
"1646 923 OFFCURVE",
"1564 903 OFFCURVE",
"1564 786 CURVE SMOOTH"
);
}
);
width = 274;
}
);
},
{
glyphname = "iMatra-deva.114";
lastChange = "2014-11-03 17:37:47 +0000";
layers = (
{
anchors = (
{
name = imatra;
position = "{1658, 598}";
},
{
name = top;
position = "{1696, 598}";
}
);
layerId = "BE6E37CB-569E-4B40-A59A-BD6EE6EB60D7";
name = Light;
paths = (
{
closed = 1;
nodes = (
"421 923 LINE",
"208 923 OFFCURVE",
"110 868 OFFCURVE",
"110 695 CURVE SMOOTH",
"110 618 LINE",
"164 618 LINE",
"164 695 LINE SMOOTH",
"164 862 OFFCURVE",
"263 879 OFFCURVE",
"421 879 CURVE",
"1347 879 LINE",
"1505 879 OFFCURVE",
"1604 862 OFFCURVE",
"1604 695 CURVE SMOOTH",
"1604 598 LINE",
"1658 598 LINE",
"1658 695 LINE",
"1655 868 OFFCURVE",
"1560 923 OFFCURVE",
"1347 923 CURVE"
);
},
{
closed = 1;
nodes = (
"110 610 LINE",
"110 0 LINE",
"164 0 LINE",
"164 610 LINE"
);
},
{
closed = 1;
nodes = (
"-10 634 LINE",
"-10 590 LINE",
"284 590 LINE",
"284 634 LINE"
);
}
);
width = 274;
}
);
},
{
glyphname = "iMatra_reph-deva.114";
lastChange = "2014-11-04 10:00:51 +0000";
layers = (
{
components = (
{
name = "iMatra-deva.114";
transform = "{1, 0, 0, 1, 0, 0}";
}
);
layerId = "BE6E37CB-569E-4B40-A59A-BD6EE6EB60D7";
name = Light;
paths = (
{
closed = 1;
nodes = (
"1614 625 LINE",
"1658 625 LINE",
"1658 786 LINE SMOOTH",
"1658 857 OFFCURVE",
"1697 879 OFFCURVE",
"1745 879 CURVE SMOOTH",
"1768 879 OFFCURVE",
"1791 873 OFFCURVE",
"1807 865 CURVE",
"1807 912 LINE",
"1793 918 OFFCURVE",
"1772 923 OFFCURVE",
"1745 923 CURVE SMOOTH",
"1696 923 OFFCURVE",
"1614 903 OFFCURVE",
"1614 786 CURVE SMOOTH"
);
}
);
width = 274;
}
);
},
{
glyphname = "iMatra_reph_anusvara-deva.114";
lastChange = "2014-11-04 10:01:06 +0000";
layers = (
{
components = (
{
name = "iMatra-deva.114";
transform = "{1, 0, 0, 1, 0, 0}";
},
{
disableAlignment = 1;
name = "anusvara-deva";
transform = "{1, 0, 0, 1, 1894, -6}";
}
);
layerId = "BE6E37CB-569E-4B40-A59A-BD6EE6EB60D7";
name = Light;
paths = (
{
closed = 1;
nodes = (
"1614 625 LINE",
"1658 625 LINE",
"1658 786 LINE SMOOTH",
"1658 857 OFFCURVE",
"1697 879 OFFCURVE",
"1745 879 CURVE SMOOTH",
"1768 879 OFFCURVE",
"1791 873 OFFCURVE",
"1807 865 CURVE",
"1807 912 LINE",
"1793 918 OFFCURVE",
"1772 923 OFFCURVE",
"1745 923 CURVE SMOOTH",
"1696 923 OFFCURVE",
"1614 903 OFFCURVE",
"1614 786 CURVE SMOOTH"
);
}
);
width = 274;
}
);
},
{
glyphname = "iMatra-deva.115";
lastChange = "2014-11-03 17:37:59 +0000";
layers = (
{
anchors = (
{
name = imatra;
position = "{1708, 598}";
},
{
name = top;
position = "{1746, 598}";
}
);
layerId = "BE6E37CB-569E-4B40-A59A-BD6EE6EB60D7";
name = Light;
paths = (
{
closed = 1;
nodes = (
"421 923 LINE",
"208 923 OFFCURVE",
"110 868 OFFCURVE",
"110 695 CURVE SMOOTH",
"110 618 LINE",
"164 618 LINE",
"164 695 LINE SMOOTH",
"164 862 OFFCURVE",
"263 879 OFFCURVE",
"421 879 CURVE",
"1397 879 LINE",
"1555 879 OFFCURVE",
"1654 862 OFFCURVE",
"1654 695 CURVE SMOOTH",
"1654 598 LINE",
"1708 598 LINE",
"1708 695 LINE",
"1705 868 OFFCURVE",
"1610 923 OFFCURVE",
"1397 923 CURVE"
);
},
{
closed = 1;
nodes = (
"110 610 LINE",
"110 0 LINE",
"164 0 LINE",
"164 610 LINE"
);
},
{
closed = 1;
nodes = (
"-10 634 LINE",
"-10 590 LINE",
"284 590 LINE",
"284 634 LINE"
);
}
);
width = 274;
}
);
},
{
glyphname = "iMatra_reph-deva.115";
lastChange = "2014-11-04 10:01:40 +0000";
layers = (
{
components = (
{
name = "iMatra-deva.115";
transform = "{1, 0, 0, 1, 0, 0}";
}
);
layerId = "BE6E37CB-569E-4B40-A59A-BD6EE6EB60D7";
name = Light;
paths = (
{
closed = 1;
nodes = (
"1664 625 LINE",
"1708 625 LINE",
"1708 786 LINE SMOOTH",
"1708 857 OFFCURVE",
"1747 879 OFFCURVE",
"1795 879 CURVE SMOOTH",
"1818 879 OFFCURVE",
"1841 873 OFFCURVE",
"1857 865 CURVE",
"1857 912 LINE",
"1843 918 OFFCURVE",
"1822 923 OFFCURVE",
"1795 923 CURVE SMOOTH",
"1746 923 OFFCURVE",
"1664 903 OFFCURVE",
"1664 786 CURVE SMOOTH"
);
}
);
width = 274;
}
);
},
{
glyphname = "iMatra_reph_anusvara-deva.115";
lastChange = "2014-11-04 10:01:56 +0000";
layers = (
{
components = (
{
name = "iMatra-deva.115";
transform = "{1, 0, 0, 1, 0, 0}";
},
{
disableAlignment = 1;
name = "anusvara-deva";
transform = "{1, 0, 0, 1, 1944, -6}";
}
);
layerId = "BE6E37CB-569E-4B40-A59A-BD6EE6EB60D7";
name = Light;
paths = (
{
closed = 1;
nodes = (
"1664 625 LINE",
"1708 625 LINE",
"1708 786 LINE SMOOTH",
"1708 857 OFFCURVE",
"1747 879 OFFCURVE",
"1795 879 CURVE SMOOTH",
"1818 879 OFFCURVE",
"1841 873 OFFCURVE",
"1857 865 CURVE",
"1857 912 LINE",
"1843 918 OFFCURVE",
"1822 923 OFFCURVE",
"1795 923 CURVE SMOOTH",
"1746 923 OFFCURVE",
"1664 903 OFFCURVE",
"1664 786 CURVE SMOOTH"
);
}
);
width = 274;
}
);
},
{
glyphname = "iMatra-deva.116";
lastChange = "2014-11-03 17:38:12 +0000";
layers = (
{
anchors = (
{
name = imatra;
position = "{1758, 598}";
},
{
name = top;
position = "{1796, 598}";
}
);
layerId = "BE6E37CB-569E-4B40-A59A-BD6EE6EB60D7";
name = Light;
paths = (
{
closed = 1;
nodes = (
"421 923 LINE",
"208 923 OFFCURVE",
"110 868 OFFCURVE",
"110 695 CURVE SMOOTH",
"110 618 LINE",
"164 618 LINE",
"164 695 LINE SMOOTH",
"164 862 OFFCURVE",
"263 879 OFFCURVE",
"421 879 CURVE",
"1447 879 LINE",
"1605 879 OFFCURVE",
"1704 862 OFFCURVE",
"1704 695 CURVE SMOOTH",
"1704 598 LINE",
"1758 598 LINE",
"1758 695 LINE",
"1755 868 OFFCURVE",
"1660 923 OFFCURVE",
"1447 923 CURVE"
);
},
{
closed = 1;
nodes = (
"110 610 LINE",
"110 0 LINE",
"164 0 LINE",
"164 610 LINE"
);
},
{
closed = 1;
nodes = (
"-10 634 LINE",
"-10 590 LINE",
"284 590 LINE",
"284 634 LINE"
);
}
);
width = 274;
}
);
},
{
glyphname = "iMatra_reph-deva.116";
lastChange = "2014-11-04 10:02:29 +0000";
layers = (
{
components = (
{
name = "iMatra-deva.116";
transform = "{1, 0, 0, 1, 0, 0}";
}
);
layerId = "BE6E37CB-569E-4B40-A59A-BD6EE6EB60D7";
name = Light;
paths = (
{
closed = 1;
nodes = (
"1714 625 LINE",
"1758 625 LINE",
"1758 786 LINE SMOOTH",
"1758 857 OFFCURVE",
"1797 879 OFFCURVE",
"1845 879 CURVE SMOOTH",
"1868 879 OFFCURVE",
"1891 873 OFFCURVE",
"1907 865 CURVE",
"1907 912 LINE",
"1893 918 OFFCURVE",
"1872 923 OFFCURVE",
"1845 923 CURVE SMOOTH",
"1796 923 OFFCURVE",
"1714 903 OFFCURVE",
"1714 786 CURVE SMOOTH"
);
}
);
width = 274;
}
);
},
{
glyphname = "iMatra_reph_anusvara-deva.116";
lastChange = "2014-11-04 10:02:43 +0000";
layers = (
{
components = (
{
name = "iMatra-deva.116";
transform = "{1, 0, 0, 1, 0, 0}";
},
{
disableAlignment = 1;
name = "anusvara-deva";
transform = "{1, 0, 0, 1, 1994, -6}";
}
);
layerId = "BE6E37CB-569E-4B40-A59A-BD6EE6EB60D7";
name = Light;
paths = (
{
closed = 1;
nodes = (
"1714 625 LINE",
"1758 625 LINE",
"1758 786 LINE SMOOTH",
"1758 857 OFFCURVE",
"1797 879 OFFCURVE",
"1845 879 CURVE SMOOTH",
"1868 879 OFFCURVE",
"1891 873 OFFCURVE",
"1907 865 CURVE",
"1907 912 LINE",
"1893 918 OFFCURVE",
"1872 923 OFFCURVE",
"1845 923 CURVE SMOOTH",
"1796 923 OFFCURVE",
"1714 903 OFFCURVE",
"1714 786 CURVE SMOOTH"
);
}
);
width = 274;
}
);
},
{
glyphname = "iMatra-deva.117";
lastChange = "2014-11-03 17:38:24 +0000";
layers = (
{
anchors = (
{
name = imatra;
position = "{1808, 598}";
},
{
name = top;
position = "{1846, 598}";
}
);
layerId = "BE6E37CB-569E-4B40-A59A-BD6EE6EB60D7";
name = Light;
paths = (
{
closed = 1;
nodes = (
"421 923 LINE",
"208 923 OFFCURVE",
"110 868 OFFCURVE",
"110 695 CURVE SMOOTH",
"110 618 LINE",
"164 618 LINE",
"164 695 LINE SMOOTH",
"164 862 OFFCURVE",
"263 879 OFFCURVE",
"421 879 CURVE",
"1497 879 LINE",
"1655 879 OFFCURVE",
"1754 862 OFFCURVE",
"1754 695 CURVE SMOOTH",
"1754 598 LINE",
"1808 598 LINE",
"1808 695 LINE",
"1805 868 OFFCURVE",
"1710 923 OFFCURVE",
"1497 923 CURVE"
);
},
{
closed = 1;
nodes = (
"110 610 LINE",
"110 0 LINE",
"164 0 LINE",
"164 610 LINE"
);
},
{
closed = 1;
nodes = (
"-10 634 LINE",
"-10 590 LINE",
"284 590 LINE",
"284 634 LINE"
);
}
);
width = 274;
}
);
},
{
glyphname = "iMatra_reph-deva.117";
lastChange = "2014-11-04 10:03:21 +0000";
layers = (
{
components = (
{
name = "iMatra-deva.117";
transform = "{1, 0, 0, 1, 0, 0}";
}
);
layerId = "BE6E37CB-569E-4B40-A59A-BD6EE6EB60D7";
name = Light;
paths = (
{
closed = 1;
nodes = (
"1764 625 LINE",
"1808 625 LINE",
"1808 786 LINE SMOOTH",
"1808 857 OFFCURVE",
"1847 879 OFFCURVE",
"1895 879 CURVE SMOOTH",
"1918 879 OFFCURVE",
"1941 873 OFFCURVE",
"1957 865 CURVE",
"1957 912 LINE",
"1943 918 OFFCURVE",
"1922 923 OFFCURVE",
"1895 923 CURVE SMOOTH",
"1846 923 OFFCURVE",
"1764 903 OFFCURVE",
"1764 786 CURVE SMOOTH"
);
}
);
width = 274;
}
);
},
{
glyphname = "iMatra_reph_anusvara-deva.117";
lastChange = "2014-11-04 10:03:34 +0000";
layers = (
{
components = (
{
name = "iMatra-deva.117";
transform = "{1, 0, 0, 1, 0, 0}";
},
{
disableAlignment = 1;
name = "anusvara-deva";
transform = "{1, 0, 0, 1, 2044, -6}";
}
);
layerId = "BE6E37CB-569E-4B40-A59A-BD6EE6EB60D7";
name = Light;
paths = (
{
closed = 1;
nodes = (
"1764 625 LINE",
"1808 625 LINE",
"1808 786 LINE SMOOTH",
"1808 857 OFFCURVE",
"1847 879 OFFCURVE",
"1895 879 CURVE SMOOTH",
"1918 879 OFFCURVE",
"1941 873 OFFCURVE",
"1957 865 CURVE",
"1957 912 LINE",
"1943 918 OFFCURVE",
"1922 923 OFFCURVE",
"1895 923 CURVE SMOOTH",
"1846 923 OFFCURVE",
"1764 903 OFFCURVE",
"1764 786 CURVE SMOOTH"
);
}
);
width = 274;
}
);
},
{
glyphname = "iMatra-deva.118";
lastChange = "2014-11-03 17:38:32 +0000";
layers = (
{
anchors = (
{
name = imatra;
position = "{1858, 598}";
},
{
name = top;
position = "{1896, 598}";
}
);
layerId = "BE6E37CB-569E-4B40-A59A-BD6EE6EB60D7";
name = Light;
paths = (
{
closed = 1;
nodes = (
"421 923 LINE",
"208 923 OFFCURVE",
"110 868 OFFCURVE",
"110 695 CURVE SMOOTH",
"110 618 LINE",
"164 618 LINE",
"164 695 LINE SMOOTH",
"164 862 OFFCURVE",
"263 879 OFFCURVE",
"421 879 CURVE",
"1547 879 LINE",
"1705 879 OFFCURVE",
"1804 862 OFFCURVE",
"1804 695 CURVE SMOOTH",
"1804 598 LINE",
"1858 598 LINE",
"1858 695 LINE",
"1855 868 OFFCURVE",
"1760 923 OFFCURVE",
"1547 923 CURVE"
);
},
{
closed = 1;
nodes = (
"110 610 LINE",
"110 0 LINE",
"164 0 LINE",
"164 610 LINE"
);
},
{
closed = 1;
nodes = (
"-10 634 LINE",
"-10 590 LINE",
"284 590 LINE",
"284 634 LINE"
);
}
);
width = 274;
}
);
},
{
glyphname = "iMatra_reph-deva.118";
lastChange = "2014-11-04 10:03:59 +0000";
layers = (
{
components = (
{
name = "iMatra-deva.118";
transform = "{1, 0, 0, 1, 0, 0}";
}
);
layerId = "BE6E37CB-569E-4B40-A59A-BD6EE6EB60D7";
name = Light;
paths = (
{
closed = 1;
nodes = (
"1814 625 LINE",
"1858 625 LINE",
"1858 786 LINE SMOOTH",
"1858 857 OFFCURVE",
"1897 879 OFFCURVE",
"1945 879 CURVE SMOOTH",
"1968 879 OFFCURVE",
"1991 873 OFFCURVE",
"2007 865 CURVE",
"2007 912 LINE",
"1993 918 OFFCURVE",
"1972 923 OFFCURVE",
"1945 923 CURVE SMOOTH",
"1896 923 OFFCURVE",
"1814 903 OFFCURVE",
"1814 786 CURVE SMOOTH"
);
}
);
width = 274;
}
);
},
{
glyphname = "iMatra_reph_anusvara-deva.118";
lastChange = "2014-11-04 10:04:14 +0000";
layers = (
{
components = (
{
name = "iMatra-deva.118";
transform = "{1, 0, 0, 1, 0, 0}";
},
{
disableAlignment = 1;
name = "anusvara-deva";
transform = "{1, 0, 0, 1, 2094, -6}";
}
);
layerId = "BE6E37CB-569E-4B40-A59A-BD6EE6EB60D7";
name = Light;
paths = (
{
closed = 1;
nodes = (
"1814 625 LINE",
"1858 625 LINE",
"1858 786 LINE SMOOTH",
"1858 857 OFFCURVE",
"1897 879 OFFCURVE",
"1945 879 CURVE SMOOTH",
"1968 879 OFFCURVE",
"1991 873 OFFCURVE",
"2007 865 CURVE",
"2007 912 LINE",
"1993 918 OFFCURVE",
"1972 923 OFFCURVE",
"1945 923 CURVE SMOOTH",
"1896 923 OFFCURVE",
"1814 903 OFFCURVE",
"1814 786 CURVE SMOOTH"
);
}
);
width = 274;
}
);
},
{
glyphname = "iMatra-deva.119";
lastChange = "2014-11-03 17:38:44 +0000";
layers = (
{
anchors = (
{
name = imatra;
position = "{1908, 598}";
},
{
name = top;
position = "{1946, 598}";
}
);
layerId = "BE6E37CB-569E-4B40-A59A-BD6EE6EB60D7";
name = Light;
paths = (
{
closed = 1;
nodes = (
"421 923 LINE",
"208 923 OFFCURVE",
"110 868 OFFCURVE",
"110 695 CURVE SMOOTH",
"110 618 LINE",
"164 618 LINE",
"164 695 LINE SMOOTH",
"164 862 OFFCURVE",
"263 879 OFFCURVE",
"421 879 CURVE",
"1597 879 LINE",
"1755 879 OFFCURVE",
"1854 862 OFFCURVE",
"1854 695 CURVE SMOOTH",
"1854 598 LINE",
"1908 598 LINE",
"1908 695 LINE",
"1905 868 OFFCURVE",
"1810 923 OFFCURVE",
"1597 923 CURVE"
);
},
{
closed = 1;
nodes = (
"110 610 LINE",
"110 0 LINE",
"164 0 LINE",
"164 610 LINE"
);
},
{
closed = 1;
nodes = (
"-10 634 LINE",
"-10 590 LINE",
"284 590 LINE",
"284 634 LINE"
);
}
);
width = 274;
}
);
},
{
glyphname = "iMatra_reph-deva.119";
lastChange = "2014-11-04 10:04:46 +0000";
layers = (
{
components = (
{
name = "iMatra-deva.119";
transform = "{1, 0, 0, 1, 0, 0}";
}
);
layerId = "BE6E37CB-569E-4B40-A59A-BD6EE6EB60D7";
name = Light;
paths = (
{
closed = 1;
nodes = (
"1864 625 LINE",
"1908 625 LINE",
"1908 786 LINE SMOOTH",
"1908 857 OFFCURVE",
"1947 879 OFFCURVE",
"1995 879 CURVE SMOOTH",
"2018 879 OFFCURVE",
"2041 873 OFFCURVE",
"2057 865 CURVE",
"2057 912 LINE",
"2043 918 OFFCURVE",
"2022 923 OFFCURVE",
"1995 923 CURVE SMOOTH",
"1946 923 OFFCURVE",
"1864 903 OFFCURVE",
"1864 786 CURVE SMOOTH"
);
}
);
width = 274;
}
);
},
{
glyphname = "iMatra_reph_anusvara-deva.119";
lastChange = "2014-11-04 10:05:01 +0000";
layers = (
{
components = (
{
name = "iMatra-deva.119";
transform = "{1, 0, 0, 1, 0, 0}";
},
{
disableAlignment = 1;
name = "anusvara-deva";
transform = "{1, 0, 0, 1, 2144, -6}";
}
);
layerId = "BE6E37CB-569E-4B40-A59A-BD6EE6EB60D7";
name = Light;
paths = (
{
closed = 1;
nodes = (
"1864 625 LINE",
"1908 625 LINE",
"1908 786 LINE SMOOTH",
"1908 857 OFFCURVE",
"1947 879 OFFCURVE",
"1995 879 CURVE SMOOTH",
"2018 879 OFFCURVE",
"2041 873 OFFCURVE",
"2057 865 CURVE",
"2057 912 LINE",
"2043 918 OFFCURVE",
"2022 923 OFFCURVE",
"1995 923 CURVE SMOOTH",
"1946 923 OFFCURVE",
"1864 903 OFFCURVE",
"1864 786 CURVE SMOOTH"
);
}
);
width = 274;
}
);
},
{
glyphname = "iMatra-deva.120";
lastChange = "2014-11-03 17:38:54 +0000";
layers = (
{
anchors = (
{
name = imatra;
position = "{1958, 598}";
},
{
name = top;
position = "{1996, 598}";
}
);
layerId = "BE6E37CB-569E-4B40-A59A-BD6EE6EB60D7";
name = Light;
paths = (
{
closed = 1;
nodes = (
"421 923 LINE",
"208 923 OFFCURVE",
"110 868 OFFCURVE",
"110 695 CURVE SMOOTH",
"110 618 LINE",
"164 618 LINE",
"164 695 LINE SMOOTH",
"164 862 OFFCURVE",
"263 879 OFFCURVE",
"421 879 CURVE",
"1647 879 LINE",
"1805 879 OFFCURVE",
"1904 862 OFFCURVE",
"1904 695 CURVE SMOOTH",
"1904 598 LINE",
"1958 598 LINE",
"1958 695 LINE",
"1955 868 OFFCURVE",
"1860 923 OFFCURVE",
"1647 923 CURVE"
);
},
{
closed = 1;
nodes = (
"110 610 LINE",
"110 0 LINE",
"164 0 LINE",
"164 610 LINE"
);
},
{
closed = 1;
nodes = (
"-10 634 LINE",
"-10 590 LINE",
"284 590 LINE",
"284 634 LINE"
);
}
);
width = 274;
}
);
},
{
glyphname = "iMatra_reph-deva.120";
lastChange = "2014-11-04 10:05:35 +0000";
layers = (
{
components = (
{
name = "iMatra-deva.120";
transform = "{1, 0, 0, 1, 0, 0}";
}
);
layerId = "BE6E37CB-569E-4B40-A59A-BD6EE6EB60D7";
name = Light;
paths = (
{
closed = 1;
nodes = (
"1914 625 LINE",
"1958 625 LINE",
"1958 786 LINE SMOOTH",
"1958 857 OFFCURVE",
"1997 879 OFFCURVE",
"2045 879 CURVE SMOOTH",
"2068 879 OFFCURVE",
"2091 873 OFFCURVE",
"2107 865 CURVE",
"2107 912 LINE",
"2093 918 OFFCURVE",
"2072 923 OFFCURVE",
"2045 923 CURVE SMOOTH",
"1996 923 OFFCURVE",
"1914 903 OFFCURVE",
"1914 786 CURVE SMOOTH"
);
}
);
width = 274;
}
);
},
{
glyphname = "iMatra_reph_anusvara-deva.120";
lastChange = "2014-11-04 10:05:51 +0000";
layers = (
{
components = (
{
name = "iMatra-deva.120";
transform = "{1, 0, 0, 1, 0, 0}";
},
{
disableAlignment = 1;
name = "anusvara-deva";
transform = "{1, 0, 0, 1, 2194, -6}";
}
);
layerId = "BE6E37CB-569E-4B40-A59A-BD6EE6EB60D7";
name = Light;
paths = (
{
closed = 1;
nodes = (
"1914 625 LINE",
"1958 625 LINE",
"1958 786 LINE SMOOTH",
"1958 857 OFFCURVE",
"1997 879 OFFCURVE",
"2045 879 CURVE SMOOTH",
"2068 879 OFFCURVE",
"2091 873 OFFCURVE",
"2107 865 CURVE",
"2107 912 LINE",
"2093 918 OFFCURVE",
"2072 923 OFFCURVE",
"2045 923 CURVE SMOOTH",
"1996 923 OFFCURVE",
"1914 903 OFFCURVE",
"1914 786 CURVE SMOOTH"
);
}
);
width = 274;
}
);
},
{
glyphname = "iMatra-deva.121";
lastChange = "2014-11-03 17:39:04 +0000";
layers = (
{
anchors = (
{
name = imatra;
position = "{2008, 598}";
},
{
name = top;
position = "{2046, 598}";
}
);
layerId = "BE6E37CB-569E-4B40-A59A-BD6EE6EB60D7";
name = Light;
paths = (
{
closed = 1;
nodes = (
"421 923 LINE",
"208 923 OFFCURVE",
"110 868 OFFCURVE",
"110 695 CURVE SMOOTH",
"110 618 LINE",
"164 618 LINE",
"164 695 LINE SMOOTH",
"164 862 OFFCURVE",
"263 879 OFFCURVE",
"421 879 CURVE",
"1697 879 LINE",
"1855 879 OFFCURVE",
"1954 862 OFFCURVE",
"1954 695 CURVE SMOOTH",
"1954 598 LINE",
"2008 598 LINE",
"2008 695 LINE",
"2005 868 OFFCURVE",
"1910 923 OFFCURVE",
"1697 923 CURVE"
);
},
{
closed = 1;
nodes = (
"110 610 LINE",
"110 0 LINE",
"164 0 LINE",
"164 610 LINE"
);
},
{
closed = 1;
nodes = (
"-10 634 LINE",
"-10 590 LINE",
"284 590 LINE",
"284 634 LINE"
);
}
);
width = 274;
}
);
},
{
glyphname = "iMatra_reph-deva.121";
lastChange = "2014-11-04 10:06:21 +0000";
layers = (
{
components = (
{
name = "iMatra-deva.121";
transform = "{1, 0, 0, 1, 0, 0}";
}
);
layerId = "BE6E37CB-569E-4B40-A59A-BD6EE6EB60D7";
name = Light;
paths = (
{
closed = 1;
nodes = (
"1964 625 LINE",
"2008 625 LINE",
"2008 786 LINE SMOOTH",
"2008 857 OFFCURVE",
"2047 879 OFFCURVE",
"2095 879 CURVE SMOOTH",
"2118 879 OFFCURVE",
"2141 873 OFFCURVE",
"2157 865 CURVE",
"2157 912 LINE",
"2143 918 OFFCURVE",
"2122 923 OFFCURVE",
"2095 923 CURVE SMOOTH",
"2046 923 OFFCURVE",
"1964 903 OFFCURVE",
"1964 786 CURVE SMOOTH"
);
}
);
width = 274;
}
);
},
{
glyphname = "iMatra_reph_anusvara-deva.121";
lastChange = "2014-11-04 10:06:35 +0000";
layers = (
{
components = (
{
name = "iMatra-deva.121";
transform = "{1, 0, 0, 1, 0, 0}";
},
{
disableAlignment = 1;
name = "anusvara-deva";
transform = "{1, 0, 0, 1, 2244, -6}";
}
);
layerId = "BE6E37CB-569E-4B40-A59A-BD6EE6EB60D7";
name = Light;
paths = (
{
closed = 1;
nodes = (
"1964 625 LINE",
"2008 625 LINE",
"2008 786 LINE SMOOTH",
"2008 857 OFFCURVE",
"2047 879 OFFCURVE",
"2095 879 CURVE SMOOTH",
"2118 879 OFFCURVE",
"2141 873 OFFCURVE",
"2157 865 CURVE",
"2157 912 LINE",
"2143 918 OFFCURVE",
"2122 923 OFFCURVE",
"2095 923 CURVE SMOOTH",
"2046 923 OFFCURVE",
"1964 903 OFFCURVE",
"1964 786 CURVE SMOOTH"
);
}
);
width = 274;
}
);
},
{
glyphname = "ka-deva";
lastChange = "2014-11-06 13:02:44 +0000";
layers = (
{
anchors = (
{
name = bottom;
position = "{397, 0}";
},
{
name = nukta;
position = "{231, 0}";
},
{
name = top;
position = "{397, 634}";
}
);
layerId = "BE6E37CB-569E-4B40-A59A-BD6EE6EB60D7";
name = Light;
paths = (
{
closed = 1;
nodes = (
"101 368 OFFCURVE",
"149 385 OFFCURVE",
"231 385 CURVE SMOOTH",
"243 385 LINE SMOOTH",
"261 385 OFFCURVE",
"285 383 OFFCURVE",
"303 379 CURVE",
"303 424 LINE",
"292 426 OFFCURVE",
"261 429 OFFCURVE",
"243 429 CURVE SMOOTH",
"231 429 LINE SMOOTH",
"109 429 OFFCURVE",
"47 392 OFFCURVE",
"47 282 CURVE SMOOTH",
"47 169 OFFCURVE",
"109 136 OFFCURVE",
"231 135 CURVE SMOOTH",
"249 135 LINE SMOOTH",
"287 135 OFFCURVE",
"350 140 OFFCURVE",
"398 180 CURVE",
"398 229 LINE",
"350 189 OFFCURVE",
"299 179 OFFCURVE",
"249 179 CURVE SMOOTH",
"231 179 LINE SMOOTH",
"148 180 OFFCURVE",
"101 192 OFFCURVE",
"101 282 CURVE"
);
},
{
closed = 1;
nodes = (
"695 196 OFFCURVE",
"647 179 OFFCURVE",
"565 179 CURVE SMOOTH",
"553 179 LINE SMOOTH",
"535 179 OFFCURVE",
"511 181 OFFCURVE",
"493 185 CURVE",
"493 140 LINE",
"504 138 OFFCURVE",
"535 135 OFFCURVE",
"553 135 CURVE SMOOTH",
"565 135 LINE SMOOTH",
"687 135 OFFCURVE",
"749 172 OFFCURVE",
"749 282 CURVE SMOOTH",
"749 395 OFFCURVE",
"687 428 OFFCURVE",
"565 429 CURVE SMOOTH",
"547 429 LINE SMOOTH",
"509 429 OFFCURVE",
"446 424 OFFCURVE",
"398 384 CURVE",
"398 335 LINE",
"446 375 OFFCURVE",
"497 385 OFFCURVE",
"547 385 CURVE SMOOTH",
"565 385 LINE SMOOTH",
"648 384 OFFCURVE",
"695 372 OFFCURVE",
"695 282 CURVE"
);
},
{
closed = 1;
nodes = (
"-10 634 LINE",
"-10 590 LINE",
"371 590 LINE",
"371 0 LINE",
"425 0 LINE",
"425 590 LINE",
"806 590 LINE",
"806 634 LINE"
);
}
);
width = 796;
}
);
unicode = 0915;
},
{
glyphname = "kha-deva";
lastChange = "2014-11-06 13:02:48 +0000";
layers = (
{
anchors = (
{
name = bottom;
position = "{657, 0}";
},
{
name = nukta;
position = "{90, -101}";
},
{
name = top;
position = "{657, 634}";
}
);
layerId = "BE6E37CB-569E-4B40-A59A-BD6EE6EB60D7";
name = Light;
paths = (
{
closed = 1;
nodes = (
"630 610 LINE",
"630 0 LINE",
"684 0 LINE",
"684 610 LINE"
);
},
{
closed = 1;
nodes = (
"-10 634 LINE",
"-10 590 LINE",
"804 590 LINE",
"804 634 LINE"
);
},
{
closed = 1;
nodes = (
"420 370 OFFCURVE",
"459 385 OFFCURVE",
"500 385 CURVE SMOOTH",
"512 385 LINE SMOOTH",
"526 385 OFFCURVE",
"543 384 OFFCURVE",
"562 381 CURVE",
"562 425 LINE",
"551 427 OFFCURVE",
"526 429 OFFCURVE",
"512 429 CURVE SMOOTH",
"500 429 LINE SMOOTH",
"431 429 OFFCURVE",
"366 394 OFFCURVE",
"366 302 CURVE SMOOTH",
"366 207 OFFCURVE",
"428 175 OFFCURVE",
"520 175 CURVE SMOOTH",
"538 175 LINE SMOOTH",
"576 175 OFFCURVE",
"621 181 OFFCURVE",
"657 200 CURVE",
"657 248 LINE",
"620 226 OFFCURVE",
"579 219 OFFCURVE",
"538 219 CURVE SMOOTH",
"520 219 LINE SMOOTH",
"457 219 OFFCURVE",
"420 231 OFFCURVE",
"420 302 CURVE"
);
},
{
closed = 1;
nodes = (
"262 613 LINE",
"262 395 LINE",
"262 313 OFFCURVE",
"210 302 OFFCURVE",
"122 302 CURVE SMOOTH",
"100 302 LINE",
"100 258 LINE",
"122 258 LINE SMOOTH",
"250 258 OFFCURVE",
"316 289 OFFCURVE",
"316 395 CURVE",
"316 613 LINE"
);
},
{
closed = 1;
nodes = (
"116 429 LINE",
"62 429 LINE",
"62 195 LINE SMOOTH",
"62 34 OFFCURVE",
"152 0 OFFCURVE",
"273 0 CURVE",
"438 0 LINE",
"438 44 LINE",
"273 44 LINE",
"160 44 OFFCURVE",
"116 80 OFFCURVE",
"116 195 CURVE"
);
}
);
width = 794;
}
);
unicode = 0916;
},
{
glyphname = "ga-deva";
lastChange = "2014-11-06 13:02:51 +0000";
layers = (
{
anchors = (
{
name = bottom;
position = "{442, 0}";
},
{
name = nukta;
position = "{183, 0}";
},
{
name = top;
position = "{442, 634}";
}
);
layerId = "BE6E37CB-569E-4B40-A59A-BD6EE6EB60D7";
name = Light;
paths = (
{
closed = 1;
nodes = (
"416 610 LINE",
"416 0 LINE",
"470 0 LINE",
"470 610 LINE"
);
},
{
closed = 1;
nodes = (
"-10 634 LINE",
"-10 590 LINE",
"590 590 LINE",
"590 634 LINE"
);
},
{
closed = 1;
nodes = (
"157 258 OFFCURVE",
"153 244 OFFCURVE",
"137 244 CURVE SMOOTH",
"116 244 OFFCURVE",
"99 272 OFFCURVE",
"83 307 CURVE",
"40 286 LINE",
"65 230 OFFCURVE",
"98 200 OFFCURVE",
"142 200 CURVE SMOOTH",
"189 200 OFFCURVE",
"211 233 OFFCURVE",
"211 290 CURVE SMOOTH",
"210 613 LINE",
"156 613 LINE",
"157 290 LINE"
);
}
);
width = 580;
}
);
unicode = 0917;
},
{
glyphname = "gha-deva";
lastChange = "2014-11-06 13:02:53 +0000";
layers = (
{
anchors = (
{
name = bottom;
position = "{453, 0}";
},
{
name = nukta;
position = "{143, 0}";
},
{
name = top;
position = "{453, 634}";
}
);
layerId = "BE6E37CB-569E-4B40-A59A-BD6EE6EB60D7";
name = Light;
paths = (
{
closed = 1;
nodes = (
"-10 634 LINE",
"-10 590 LINE",
"427 590 LINE",
"427 0 LINE",
"481 0 LINE",
"481 590 LINE",
"601 590 LINE",
"601 634 LINE"
);
},
{
closed = 1;
nodes = (
"157 365 OFFCURVE",
"205 382 OFFCURVE",
"287 382 CURVE SMOOTH",
"316 382 LINE",
"316 426 LINE",
"287 426 LINE SMOOTH",
"165 426 OFFCURVE",
"103 389 OFFCURVE",
"103 279 CURVE SMOOTH",
"103 166 OFFCURVE",
"165 133 OFFCURVE",
"287 132 CURVE SMOOTH",
"305 132 LINE SMOOTH",
"355 132 OFFCURVE",
"411 142 OFFCURVE",
"454 169 CURVE",
"454 228 LINE",
"409 185 OFFCURVE",
"350 176 OFFCURVE",
"305 176 CURVE SMOOTH",
"287 176 LINE SMOOTH",
"204 177 OFFCURVE",
"157 189 OFFCURVE",
"157 279 CURVE"
);
},
{
closed = 1;
nodes = (
"121 573 OFFCURVE",
"136 592 OFFCURVE",
"149 602 CURVE",
"104 630 LINE",
"77 606 OFFCURVE",
"67 570 OFFCURVE",
"67 525 CURVE SMOOTH",
"67 415 OFFCURVE",
"141 382 OFFCURVE",
"287 382 CURVE SMOOTH",
"305 382 LINE",
"305 426 LINE",
"287 426 LINE SMOOTH",
"181 426 OFFCURVE",
"122 439 OFFCURVE",
"121 525 CURVE"
);
}
);
width = 591;
}
);
unicode = 0918;
},
{
glyphname = "nga-deva";
lastChange = "2014-11-06 13:02:56 +0000";
layers = (
{
anchors = (
{
name = bottom;
position = "{353, 0}";
},
{
name = nukta;
position = "{123, -90}";
},
{
name = top;
position = "{354, 634}";
}
);
layerId = "BE6E37CB-569E-4B40-A59A-BD6EE6EB60D7";
name = Light;
paths = (
{
closed = 1;
nodes = (
"-10 634 LINE",
"-10 590 LINE",
"327 590 LINE",
"327 403 LINE",
"381 403 LINE",
"381 590 LINE",
"605 590 LINE",
"605 634 LINE"
);
},
{
closed = 1;
nodes = (
"210 447 LINE SMOOTH",
"114 447 OFFCURVE",
"66 417 OFFCURVE",
"66 335 CURVE SMOOTH",
"66 281 OFFCURVE",
"103 239 OFFCURVE",
"124 223 CURVE",
"280 223 LINE SMOOTH",
"349 223 OFFCURVE",
"388 201 OFFCURVE",
"390 134 CURVE SMOOTH",
"392 71 OFFCURVE",
"349 44 OFFCURVE",
"280 44 CURVE SMOOTH",
"265 44 LINE SMOOTH",
"177 44 OFFCURVE",
"114 64 OFFCURVE",
"53 103 CURVE",
"31 63 LINE",
"95 22 OFFCURVE",
"167 0 OFFCURVE",
"265 0 CURVE SMOOTH",
"280 0 LINE SMOOTH",
"382 0 OFFCURVE",
"444 46 OFFCURVE",
"444 134 CURVE SMOOTH",
"444 225 OFFCURVE",
"382 267 OFFCURVE",
"280 267 CURVE SMOOTH",
"150 267 LINE",
"135 277 OFFCURVE",
"120 300 OFFCURVE",
"120 335 CURVE",
"120 389 OFFCURVE",
"152 403 OFFCURVE",
"210 403 CURVE SMOOTH",
"374 403 LINE",
"374 447 LINE"
);
},
{
closed = 1;
nodes = (
"454 316 LINE",
"511 260 LINE",
"568 316 LINE",
"511 373 LINE"
);
}
);
width = 595;
}
);
unicode = 0919;
},
{
glyphname = "ca-deva";
lastChange = "2014-11-06 13:02:59 +0000";
layers = (
{
anchors = (
{
name = bottom;
position = "{468, 0}";
},
{
name = nukta;
position = "{110, 0}";
},
{
name = top;
position = "{468, 634}";
}
);
layerId = "BE6E37CB-569E-4B40-A59A-BD6EE6EB60D7";
name = Light;
paths = (
{
closed = 1;
nodes = (
"-10 634 LINE",
"-10 590 LINE",
"442 590 LINE",
"442 0 LINE",
"496 0 LINE",
"496 590 LINE",
"616 590 LINE",
"616 634 LINE"
);
},
{
closed = 1;
nodes = (
"158 365 OFFCURVE",
"203 391 OFFCURVE",
"262 411 CURVE",
"208 429 LINE",
"146 411 OFFCURVE",
"104 374 OFFCURVE",
"104 277 CURVE SMOOTH",
"104 155 OFFCURVE",
"173 119 OFFCURVE",
"302 119 CURVE SMOOTH",
"320 119 LINE SMOOTH",
"358 119 OFFCURVE",
"421 124 OFFCURVE",
"469 164 CURVE",
"469 213 LINE",
"421 173 OFFCURVE",
"370 163 OFFCURVE",
"320 163 CURVE SMOOTH",
"302 163 LINE SMOOTH",
"214 163 OFFCURVE",
"158 177 OFFCURVE",
"158 277 CURVE"
);
},
{
closed = 1;
nodes = (
"345 396 LINE",
"345 440 LINE",
"24 440 LINE",
"24 396 LINE"
);
}
);
width = 606;
}
);
unicode = 091A;
},
{
glyphname = "cha-deva";
lastChange = "2014-11-06 13:03:02 +0000";
layers = (
{
anchors = (
{
name = bottom;
position = "{344, 0}";
},
{
name = nukta;
position = "{214, -70}";
},
{
name = top;
position = "{564, 634}";
}
);
layerId = "BE6E37CB-569E-4B40-A59A-BD6EE6EB60D7";
name = Light;
paths = (
{
closed = 1;
nodes = (
"466 519 OFFCURVE",
"442 487 OFFCURVE",
"442 435 CURVE",
"442 330 LINE",
"496 330 LINE",
"496 435 LINE",
"496 463 OFFCURVE",
"505 475 OFFCURVE",
"532 475 CURVE SMOOTH",
"561 475 OFFCURVE",
"568 463 OFFCURVE",
"568 435 CURVE",
"568 315 LINE SMOOTH",
"568 115 OFFCURVE",
"453 69 OFFCURVE",
"353 69 CURVE SMOOTH",
"335 69 LINE SMOOTH",
"254 69 OFFCURVE",
"155 90 OFFCURVE",
"155 202 CURVE",
"155 306 OFFCURVE",
"210 330 OFFCURVE",
"305 330 CURVE SMOOTH",
"316 330 LINE",
"316 374 LINE",
"305 374 LINE SMOOTH",
"170 374 OFFCURVE",
"101 329 OFFCURVE",
"101 202 CURVE SMOOTH",
"101 69 OFFCURVE",
"216 25 OFFCURVE",
"335 25 CURVE SMOOTH",
"353 25 LINE SMOOTH",
"488 25 OFFCURVE",
"622 95 OFFCURVE",
"622 315 CURVE",
"622 435 LINE SMOOTH",
"622 487 OFFCURVE",
"598 519 OFFCURVE",
"532 519 CURVE SMOOTH"
);
},
{
closed = 1;
nodes = (
"-10 634 LINE",
"-10 590 LINE",
"712 590 LINE",
"712 634 LINE"
);
},
{
closed = 1;
nodes = (
"538 489 LINE",
"592 489 LINE",
"592 612 LINE",
"538 612 LINE"
);
},
{
closed = 1;
nodes = (
"121 550 OFFCURVE",
"176 580 OFFCURVE",
"224 596 CURVE",
"162 618 LINE",
"93 585 OFFCURVE",
"67 535 OFFCURVE",
"67 473 CURVE SMOOTH",
"67 362 OFFCURVE",
"140 330 OFFCURVE",
"293 330 CURVE SMOOTH",
"310 330 LINE",
"310 374 LINE",
"292 374 LINE SMOOTH",
"179 374 OFFCURVE",
"122 387 OFFCURVE",
"121 473 CURVE"
);
}
);
width = 702;
}
);
unicode = 091B;
},
{
glyphname = "ja-deva";
lastChange = "2014-11-06 13:03:04 +0000";
layers = (
{
anchors = (
{
name = bottom;
position = "{508, 0}";
},
{
name = nukta;
position = "{205, 0}";
},
{
name = top;
position = "{508, 634}";
}
);
layerId = "BE6E37CB-569E-4B40-A59A-BD6EE6EB60D7";
name = Light;
paths = (
{
closed = 1;
nodes = (
"-10 634 LINE",
"-10 590 LINE",
"482 590 LINE",
"482 0 LINE",
"536 0 LINE",
"536 590 LINE",
"656 590 LINE",
"656 634 LINE"
);
},
{
closed = 1;
nodes = (
"124 157 OFFCURVE",
"101 206 OFFCURVE",
"101 292 CURVE SMOOTH",
"101 419 LINE",
"47 419 LINE",
"47 292 LINE SMOOTH",
"47 173 OFFCURVE",
"89 113 OFFCURVE",
"205 113 CURVE SMOOTH",
"327 113 OFFCURVE",
"363 173 OFFCURVE",
"363 292 CURVE SMOOTH",
"363 419 LINE",
"309 419 LINE",
"309 292 LINE SMOOTH",
"309 205 OFFCURVE",
"294 157 OFFCURVE",
"205 157 CURVE"
);
},
{
closed = 1;
nodes = (
"508 375 LINE",
"508 419 LINE",
"334 419 LINE",
"334 375 LINE"
);
}
);
width = 646;
}
);
unicode = 091C;
},
